<svg width="122" height="37" viewBox="0 0 122 37" fill="none" xmlns="http://www.w3.org/2000/svg">
<path d="M0 12C0 5.37258 5.37258 0 12 0H108.313C111.082 0 113.014 2.74593 112.078 5.35209L102.021 33.3521C101.451 34.9406 99.9445 36 98.2566 36H0V12Z" fill="url(#paint0_linear_2701_2737)"/>
<rect x="114.688" y="15" width="6.93645" height="20.1479" rx="3.46823" transform="rotate(19.1848 114.688 15)" fill="#E4FF1A"/>
<path d="M27.0158 19.4102H35.4158V25.8102H33.5758V21.1542H28.7758V25.8902H27.0158V19.4102ZM34.1358 10.8662L35.6078 12.3702C34.8291 12.6689 33.9651 12.9302 33.0158 13.1542C32.0664 13.3675 31.0904 13.5435 30.0878 13.6822C29.0958 13.8209 28.1251 13.9329 27.1758 14.0182C27.1438 13.7942 27.0691 13.5222 26.9518 13.2022C26.8451 12.8715 26.7384 12.5995 26.6318 12.3862C27.3144 12.3115 28.0024 12.2262 28.6958 12.1302C29.3998 12.0342 30.0824 11.9222 30.7438 11.7942C31.4051 11.6662 32.0238 11.5275 32.5998 11.3782C33.1758 11.2182 33.6878 11.0475 34.1358 10.8662ZM30.2958 12.6742H32.1198V20.4182H30.2958V12.6742ZM26.0238 15.5382H36.2158V17.3622H26.0238V15.5382ZM28.2798 23.4902H34.3438V25.2342H28.2798V23.4902ZM22.0718 12.4662L23.1598 11.0742C23.4584 11.2235 23.7944 11.3942 24.1678 11.5862C24.5411 11.7782 24.9038 11.9702 25.2558 12.1622C25.6184 12.3542 25.9118 12.5249 26.1358 12.6742L24.9998 14.2262C24.7864 14.0662 24.5091 13.8849 24.1678 13.6822C23.8264 13.4795 23.4691 13.2715 23.0958 13.0582C22.7224 12.8342 22.3811 12.6369 22.0718 12.4662ZM21.3038 16.8982L22.3438 15.4742C22.6424 15.6022 22.9838 15.7622 23.3678 15.9542C23.7518 16.1462 24.1251 16.3382 24.4878 16.5302C24.8504 16.7115 25.1438 16.8769 25.3678 17.0262L24.2958 18.6262C24.0824 18.4662 23.7998 18.2849 23.4478 18.0822C23.1064 17.8795 22.7438 17.6715 22.3598 17.4582C21.9758 17.2449 21.6238 17.0582 21.3038 16.8982ZM21.5438 24.4182C21.8318 24.0129 22.1464 23.5382 22.4878 22.9942C22.8398 22.4395 23.1971 21.8529 23.5598 21.2342C23.9224 20.6049 24.2638 19.9809 24.5838 19.3622L25.9918 20.6422C25.7144 21.1969 25.4158 21.7675 25.0958 22.3542C24.7864 22.9409 24.4664 23.5169 24.1358 24.0822C23.8158 24.6475 23.4904 25.1915 23.1598 25.7142L21.5438 24.4182ZM44.8078 14.3542H51.0958V16.1942H44.8078V14.3542ZM50.1038 14.3542H51.9758C51.9758 14.3542 51.9758 14.4075 51.9758 14.5142C51.9758 14.6209 51.9704 14.7435 51.9598 14.8822C51.9598 15.0209 51.9598 15.1329 51.9598 15.2182C51.9278 16.8395 51.8851 18.2209 51.8318 19.3622C51.7891 20.4929 51.7358 21.4262 51.6718 22.1622C51.6078 22.8982 51.5278 23.4795 51.4318 23.9062C51.3358 24.3222 51.2238 24.6209 51.0958 24.8022C50.9038 25.0795 50.7064 25.2715 50.5038 25.3782C50.3011 25.4955 50.0558 25.5809 49.7678 25.6342C49.5118 25.6769 49.1918 25.6982 48.8078 25.6982C48.4238 25.7089 48.0238 25.7035 47.6078 25.6822C47.5971 25.4049 47.5384 25.0902 47.4318 24.7382C47.3251 24.3862 47.1918 24.0769 47.0318 23.8102C47.4158 23.8422 47.7678 23.8635 48.0878 23.8742C48.4078 23.8742 48.6531 23.8742 48.8238 23.8742C48.9624 23.8742 49.0744 23.8582 49.1598 23.8262C49.2451 23.7835 49.3304 23.7142 49.4158 23.6182C49.5118 23.4902 49.5918 23.2449 49.6558 22.8822C49.7304 22.5089 49.7944 21.9809 49.8478 21.2982C49.9011 20.6049 49.9438 19.7249 49.9758 18.6582C50.0184 17.5809 50.0611 16.2795 50.1038 14.7542V14.3542ZM46.6158 11.1542H48.5198C48.5198 12.4022 48.5038 13.6129 48.4718 14.7862C48.4504 15.9489 48.3864 17.0635 48.2798 18.1302C48.1731 19.1969 48.0024 20.1995 47.7678 21.1382C47.5331 22.0769 47.2131 22.9462 46.8078 23.7462C46.4131 24.5462 45.8958 25.2609 45.2558 25.8902C45.1598 25.7195 45.0264 25.5382 44.8558 25.3462C44.6958 25.1649 44.5251 24.9889 44.3438 24.8182C44.1624 24.6475 43.9918 24.5142 43.8318 24.4182C44.4078 23.8635 44.8718 23.2342 45.2238 22.5302C45.5864 21.8262 45.8584 21.0529 46.0398 20.2102C46.2318 19.3675 46.3651 18.4662 46.4398 17.5062C46.5251 16.5462 46.5731 15.5382 46.5838 14.4822C46.6051 13.4155 46.6158 12.3062 46.6158 11.1542ZM38.0398 12.1142H44.3278V13.7942H38.0398V12.1142ZM37.5118 15.8262H44.6158V17.5702H37.5118V15.8262ZM42.1038 19.0102L43.6558 18.5942C43.8478 19.0315 44.0398 19.5115 44.2318 20.0342C44.4344 20.5462 44.6211 21.0475 44.7918 21.5382C44.9624 22.0289 45.0904 22.4555 45.1758 22.8182L43.5118 23.3462C43.4371 22.9835 43.3251 22.5515 43.1758 22.0502C43.0264 21.5489 42.8558 21.0315 42.6638 20.4982C42.4824 19.9649 42.2958 19.4689 42.1038 19.0102ZM38.1998 24.1622L38.0078 22.5462L38.8238 21.9382L44.0078 20.7222C44.0184 20.9675 44.0504 21.2502 44.1038 21.5702C44.1678 21.8902 44.2264 22.1462 44.2798 22.3382C43.3091 22.5942 42.4931 22.8129 41.8318 22.9942C41.1704 23.1649 40.6211 23.3142 40.1838 23.4422C39.7571 23.5595 39.4158 23.6609 39.1598 23.7462C38.9038 23.8315 38.7011 23.9062 38.5518 23.9702C38.4131 24.0235 38.2958 24.0875 38.1998 24.1622ZM38.1838 24.1462C38.1624 24.0289 38.1144 23.8635 38.0398 23.6502C37.9758 23.4369 37.9011 23.2235 37.8158 23.0102C37.7304 22.7862 37.6504 22.5942 37.5758 22.4342C37.7358 22.3809 37.8744 22.2635 37.9918 22.0822C38.1198 21.9009 38.2478 21.6662 38.3758 21.3782C38.4398 21.2289 38.5251 20.9942 38.6318 20.6742C38.7491 20.3435 38.8718 19.9595 38.9998 19.5222C39.1278 19.0742 39.2558 18.5995 39.3838 18.0982C39.5118 17.5862 39.6131 17.0795 39.6878 16.5782L41.5758 17.1062C41.4264 17.8102 41.2344 18.5249 40.9998 19.2502C40.7651 19.9649 40.5091 20.6582 40.2318 21.3302C39.9651 21.9915 39.6984 22.5889 39.4318 23.1222V23.1702C39.4318 23.1702 39.3678 23.2022 39.2398 23.2662C39.1118 23.3302 38.9678 23.4155 38.8078 23.5222C38.6478 23.6289 38.5038 23.7409 38.3758 23.8582C38.2478 23.9649 38.1838 24.0609 38.1838 24.1462ZM54.6958 12.1302H59.3198V22.9302H54.6958V21.2182H57.5278V13.8422H54.6958V12.1302ZM54.8078 16.6262H58.0238V18.3062H54.8078V16.6262ZM53.7998 12.1302H55.5918V24.2262H53.7998V12.1302ZM59.9118 13.8262H68.2798V15.7302H59.9118V13.8262ZM64.6958 10.9782H66.6478V23.3462C66.6478 23.9222 66.5731 24.3542 66.4238 24.6422C66.2851 24.9409 66.0344 25.1649 65.6718 25.3142C65.3198 25.4635 64.8558 25.5595 64.2798 25.6022C63.7144 25.6449 63.0318 25.6609 62.2318 25.6502C62.1891 25.3835 62.1038 25.0582 61.9758 24.6742C61.8478 24.3009 61.7091 23.9809 61.5598 23.7142C61.9438 23.7249 62.3118 23.7355 62.6638 23.7462C63.0264 23.7569 63.3464 23.7622 63.6238 23.7622C63.9011 23.7622 64.0984 23.7622 64.2158 23.7622C64.3971 23.7622 64.5198 23.7302 64.5838 23.6662C64.6584 23.6022 64.6958 23.4902 64.6958 23.3302V10.9782ZM60.0878 17.6182L61.6718 16.7862C61.9278 17.1489 62.2104 17.5489 62.5198 17.9862C62.8291 18.4129 63.1171 18.8342 63.3838 19.2502C63.6611 19.6555 63.8904 20.0075 64.0718 20.3062L62.3598 21.2982C62.2104 20.9889 62.0024 20.6209 61.7358 20.1942C61.4798 19.7675 61.2024 19.3302 60.9038 18.8822C60.6158 18.4235 60.3438 18.0022 60.0878 17.6182ZM69.8798 14.7222H71.8638V25.8742H69.8798V14.7222ZM70.1038 11.9062L71.6238 10.9782C71.8691 11.2129 72.1198 11.4742 72.3758 11.7622C72.6424 12.0395 72.8824 12.3222 73.0958 12.6102C73.3198 12.8875 73.4904 13.1489 73.6078 13.3942L71.9918 14.4342C71.8851 14.1995 71.7251 13.9382 71.5118 13.6502C71.3091 13.3515 71.0851 13.0529 70.8398 12.7542C70.6051 12.4449 70.3598 12.1622 70.1038 11.9062ZM74.1678 11.6662H82.8398V13.4582H74.1678V11.6662ZM81.7678 11.6662H83.7518V23.8262C83.7518 24.2742 83.7038 24.6209 83.6078 24.8662C83.5118 25.1222 83.3304 25.3249 83.0638 25.4742C82.7971 25.6129 82.4718 25.6982 82.0878 25.7302C81.7038 25.7729 81.2611 25.7942 80.7598 25.7942C80.7171 25.5489 80.6424 25.2555 80.5358 24.9142C80.4398 24.5835 80.3331 24.3062 80.2158 24.0822C80.4718 24.0929 80.7278 24.0982 80.9838 24.0982C81.2398 24.0982 81.4104 24.0982 81.4958 24.0982C81.6024 24.0982 81.6718 24.0769 81.7038 24.0342C81.7464 23.9915 81.7678 23.9169 81.7678 23.8102V11.6662ZM75.2078 19.9542V21.4902H78.2958V19.9542H75.2078ZM75.2078 16.8982V18.4182H78.2958V16.8982H75.2078ZM73.4958 15.3622H80.0878V23.0262H73.4958V15.3622Z" fill="black"/>
<defs>
<linearGradient id="paint0_linear_2701_2737" x1="-4.73496" y1="5.59854" x2="113.223" y2="34.236" gradientUnits="userSpaceOnUse">
<stop stop-color="#F767C9"/>
<stop offset="1" stop-color="#E4FF1A" stop-opacity="0.960784"/>
</linearGradient>
</defs>
</svg>
