<svg width="158" height="37" viewBox="0 0 158 37" fill="none" xmlns="http://www.w3.org/2000/svg">
<path d="M0 12C0 5.37258 5.37258 0 12 0H143.686C146.62 0 148.556 3.05559 147.302 5.70909L134.07 33.7091C133.409 35.1078 132 36 130.453 36H0V12Z" fill="url(#paint0_linear_2701_2808)"/>
<rect x="151.146" y="15" width="6.93645" height="20.1479" rx="3.46823" transform="rotate(21.6477 151.146 15)" fill="#E4FF1A"/>
<path d="M21.6245 24.4662V12.8298H29.7381V15.1139H24.437V17.5003H29.3233V19.7901H24.437V22.1821H29.7381V24.4662H21.6245ZM39.9654 15.7389L36.971 24.4662H33.7892L30.8006 15.7389H33.7267L35.3347 21.7503H35.4256L37.0392 15.7389H39.9654ZM44.829 24.631C43.9161 24.631 43.1282 24.451 42.4654 24.0912C41.8063 23.7276 41.2987 23.2105 40.9426 22.5401C40.5904 21.8658 40.4142 21.0647 40.4142 20.1366C40.4142 19.2351 40.5923 18.4472 40.9483 17.773C41.3044 17.095 41.8063 16.5685 42.454 16.1935C43.1017 15.8147 43.865 15.6253 44.7438 15.6253C45.365 15.6253 45.9332 15.7219 46.4483 15.915C46.9635 16.1082 47.4085 16.3942 47.7835 16.773C48.1585 17.1518 48.4502 17.6196 48.6585 18.1764C48.8669 18.7294 48.971 19.3639 48.971 20.0798V20.773H41.3858V19.1594H46.3858C46.382 18.8639 46.312 18.6007 46.1756 18.3696C46.0392 18.1385 45.8517 17.9586 45.6131 17.8298C45.3782 17.6972 45.1074 17.631 44.8006 17.631C44.49 17.631 44.2116 17.701 43.9654 17.8412C43.7192 17.9776 43.5241 18.1651 43.3801 18.4037C43.2362 18.6385 43.1604 18.9056 43.1529 19.2048V20.8469C43.1529 21.2029 43.2229 21.5154 43.3631 21.7844C43.5032 22.0495 43.7021 22.256 43.9597 22.4037C44.2173 22.5514 44.5241 22.6253 44.8801 22.6253C45.1264 22.6253 45.3498 22.5912 45.5506 22.523C45.7514 22.4548 45.9237 22.3544 46.0676 22.2219C46.2116 22.0893 46.3195 21.9264 46.3915 21.7332L48.9426 21.8071C48.8366 22.3791 48.6036 22.8772 48.2438 23.3014C47.8877 23.7219 47.4199 24.0495 46.8404 24.2844C46.2608 24.5154 45.5904 24.631 44.829 24.631ZM53.1685 19.4889V24.4662H50.3901V15.7389H53.0321V17.3412H53.1287C53.3219 16.8071 53.6514 16.3885 54.1174 16.0855C54.5833 15.7787 55.1382 15.6253 55.7821 15.6253C56.3958 15.6253 56.928 15.7635 57.3787 16.04C57.8333 16.3128 58.1855 16.6954 58.4355 17.1878C58.6893 17.6764 58.8143 18.2484 58.8105 18.9037V24.4662H56.0321V19.4491C56.0359 18.9643 55.9128 18.5855 55.6628 18.3128C55.4166 18.0401 55.0738 17.9037 54.6344 17.9037C54.3427 17.9037 54.0852 17.9681 53.8617 18.0969C53.642 18.2219 53.4715 18.4018 53.3503 18.6366C53.2329 18.8715 53.1723 19.1556 53.1685 19.4889ZM65.4568 15.7389V17.7844H59.9512V15.7389H65.4568ZM61.1046 13.648H63.883V21.7219C63.883 21.8923 63.9095 22.0306 63.9625 22.1366C64.0193 22.2389 64.1008 22.3128 64.2068 22.3582C64.3129 22.3999 64.4398 22.4207 64.5875 22.4207C64.6936 22.4207 64.8053 22.4113 64.9228 22.3923C65.044 22.3696 65.1349 22.3507 65.1955 22.3355L65.6159 24.3412C65.4834 24.3791 65.2959 24.4264 65.0534 24.4832C64.8148 24.5401 64.5288 24.576 64.1955 24.5912C63.544 24.6215 62.9853 24.5457 62.5193 24.3639C62.0572 24.1783 61.7031 23.8904 61.4568 23.5003C61.2144 23.1101 61.097 22.6196 61.1046 22.0287V13.648ZM70.312 24.4662V12.8298H75.1188C75.99 12.8298 76.7419 13.0003 77.3745 13.3412C78.0108 13.6783 78.5014 14.1499 78.846 14.756C79.1907 15.3582 79.3631 16.059 79.3631 16.8582C79.3631 17.6613 79.187 18.3639 78.8347 18.9662C78.4862 19.5647 77.9881 20.0287 77.3404 20.3582C76.6926 20.6878 75.9237 20.8526 75.0335 20.8526H72.0676V18.6366H74.5108C74.9351 18.6366 75.2892 18.5628 75.5733 18.4151C75.8612 18.2673 76.079 18.0609 76.2267 17.7957C76.3745 17.5268 76.4483 17.2143 76.4483 16.8582C76.4483 16.4984 76.3745 16.1878 76.2267 15.9264C76.079 15.6613 75.8612 15.4567 75.5733 15.3128C75.2854 15.1688 74.9313 15.0969 74.5108 15.0969H73.1245V24.4662H70.312ZM84.6571 24.631C83.7442 24.631 82.9564 24.451 82.2935 24.0912C81.6344 23.7276 81.1268 23.2105 80.7708 22.5401C80.4185 21.8658 80.2424 21.0647 80.2424 20.1366C80.2424 19.2351 80.4204 18.4472 80.7764 17.773C81.1325 17.095 81.6344 16.5685 82.2821 16.1935C82.9299 15.8147 83.6931 15.6253 84.5719 15.6253C85.1931 15.6253 85.7613 15.7219 86.2764 15.915C86.7916 16.1082 87.2367 16.3942 87.6117 16.773C87.9867 17.1518 88.2783 17.6196 88.4867 18.1764C88.695 18.7294 88.7992 19.3639 88.7992 20.0798V20.773H81.2139V19.1594H86.2139C86.2102 18.8639 86.1401 18.6007 86.0037 18.3696C85.8674 18.1385 85.6799 17.9586 85.4412 17.8298C85.2064 17.6972 84.9355 17.631 84.6287 17.631C84.3181 17.631 84.0397 17.701 83.7935 17.8412C83.5473 17.9776 83.3522 18.1651 83.2083 18.4037C83.0643 18.6385 82.9886 18.9056 82.981 19.2048V20.8469C82.981 21.2029 83.0511 21.5154 83.1912 21.7844C83.3314 22.0495 83.5302 22.256 83.7878 22.4037C84.0454 22.5514 84.3522 22.6253 84.7083 22.6253C84.9545 22.6253 85.178 22.5912 85.3787 22.523C85.5795 22.4548 85.7518 22.3544 85.8958 22.2219C86.0397 22.0893 86.1477 21.9264 86.2196 21.7332L88.7708 21.8071C88.6647 22.3791 88.4317 22.8772 88.0719 23.3014C87.7158 23.7219 87.248 24.0495 86.6685 24.2844C86.0889 24.5154 85.4185 24.631 84.6571 24.631ZM90.2182 24.4662V15.7389H92.9171V17.3298H93.008C93.1671 16.7541 93.4265 16.326 93.7864 16.0457C94.1462 15.7616 94.5648 15.6196 95.0421 15.6196C95.1709 15.6196 95.3034 15.6291 95.4398 15.648C95.5762 15.6632 95.7031 15.6878 95.8205 15.7219V18.1366C95.6879 18.0912 95.5137 18.0552 95.2978 18.0287C95.0856 18.0022 94.8962 17.9889 94.7296 17.9889C94.4 17.9889 94.1027 18.0628 93.8375 18.2105C93.5762 18.3544 93.3697 18.5571 93.2182 18.8185C93.0705 19.076 92.9966 19.3791 92.9966 19.7276V24.4662H90.2182ZM96.9526 24.4662V15.7389H99.731V24.4662H96.9526ZM98.3446 14.7219C97.9545 14.7219 97.6192 14.5931 97.3389 14.3355C97.0586 14.0741 96.9185 13.7597 96.9185 13.3923C96.9185 13.0287 97.0586 12.7181 97.3389 12.4605C97.6192 12.1991 97.9545 12.0685 98.3446 12.0685C98.7386 12.0685 99.0738 12.1991 99.3503 12.4605C99.6306 12.7181 99.7708 13.0287 99.7708 13.3923C99.7708 13.7597 99.6306 14.0741 99.3503 14.3355C99.0738 14.5931 98.7386 14.7219 98.3446 14.7219ZM105.573 24.631C104.657 24.631 103.869 24.4435 103.21 24.0685C102.554 23.6897 102.049 23.1632 101.693 22.4889C101.34 21.8109 101.164 21.0249 101.164 20.131C101.164 19.2332 101.34 18.4472 101.693 17.773C102.049 17.095 102.554 16.5685 103.21 16.1935C103.869 15.8147 104.657 15.6253 105.573 15.6253C106.49 15.6253 107.276 15.8147 107.931 16.1935C108.59 16.5685 109.096 17.095 109.448 17.773C109.804 18.4472 109.982 19.2332 109.982 20.131C109.982 21.0249 109.804 21.8109 109.448 22.4889C109.096 23.1632 108.59 23.6897 107.931 24.0685C107.276 24.4435 106.49 24.631 105.573 24.631ZM105.59 22.5344C105.924 22.5344 106.206 22.4321 106.437 22.2276C106.668 22.023 106.844 21.7389 106.965 21.3753C107.09 21.0116 107.153 20.5912 107.153 20.1139C107.153 19.6291 107.09 19.2048 106.965 18.8412C106.844 18.4776 106.668 18.1935 106.437 17.9889C106.206 17.7844 105.924 17.6821 105.59 17.6821C105.246 17.6821 104.954 17.7844 104.715 17.9889C104.481 18.1935 104.301 18.4776 104.176 18.8412C104.054 19.2048 103.994 19.6291 103.994 20.1139C103.994 20.5912 104.054 21.0116 104.176 21.3753C104.301 21.7389 104.481 22.023 104.715 22.2276C104.954 22.4321 105.246 22.5344 105.59 22.5344ZM114.593 24.5912C113.949 24.5912 113.364 24.4245 112.838 24.0912C112.311 23.7579 111.891 23.2579 111.576 22.5912C111.262 21.9245 111.105 21.0969 111.105 20.1082C111.105 19.0817 111.267 18.237 111.593 17.5741C111.919 16.9113 112.345 16.4207 112.872 16.1025C113.402 15.7844 113.972 15.6253 114.582 15.6253C115.04 15.6253 115.432 15.7048 115.758 15.8639C116.084 16.0192 116.353 16.22 116.565 16.4662C116.777 16.7124 116.938 16.9681 117.048 17.2332H117.105V12.8298H119.883V24.4662H117.133V23.0514H117.048C116.93 23.3204 116.764 23.5722 116.548 23.8071C116.332 24.0419 116.061 24.2313 115.735 24.3753C115.413 24.5192 115.033 24.5912 114.593 24.5912ZM115.559 22.4264C115.896 22.4264 116.184 22.3317 116.423 22.1423C116.661 21.9491 116.845 21.6783 116.974 21.3298C117.103 20.9813 117.167 20.5722 117.167 20.1026C117.167 19.6253 117.103 19.2143 116.974 18.8696C116.849 18.5249 116.665 18.2597 116.423 18.0741C116.184 17.8885 115.896 17.7957 115.559 17.7957C115.214 17.7957 114.923 17.8904 114.684 18.0798C114.445 18.2692 114.264 18.5363 114.139 18.881C114.017 19.2257 113.957 19.6329 113.957 20.1026C113.957 20.5722 114.019 20.9813 114.144 21.3298C114.269 21.6783 114.449 21.9491 114.684 22.1423C114.923 22.3317 115.214 22.4264 115.559 22.4264Z" fill="black"/>
<defs>
<linearGradient id="paint0_linear_2701_2808" x1="-6.23021" y1="5.59854" x2="142.907" y2="53.2395" gradientUnits="userSpaceOnUse">
<stop stop-color="#F767C9"/>
<stop offset="1" stop-color="#E4FF1A" stop-opacity="0.960784"/>
</linearGradient>
</defs>
</svg>
