<svg width="163" height="37" viewBox="0 0 163 37" fill="none" xmlns="http://www.w3.org/2000/svg">
<path d="M0 12C0 5.37258 5.37258 0 12 0H148.595C151.552 0 153.487 3.09798 152.19 5.75523L138.516 33.7552C137.845 35.1288 136.45 36 134.922 36H0V12Z" fill="url(#paint0_linear_2654_5748)"/>
<rect x="155.746" y="15" width="6.93645" height="20.1479" rx="3.46823" transform="rotate(24.8818 155.746 15)" fill="#E4FF1A"/>
<path d="M21.5758 19.9862H35.9118V21.6662H21.5758V19.9862ZM27.7678 19.0262H29.7678C29.6931 19.7515 29.5758 20.4235 29.4158 21.0422C29.2558 21.6502 29.0211 22.2102 28.7118 22.7222C28.4024 23.2342 27.9758 23.6929 27.4318 24.0982C26.8984 24.4929 26.2051 24.8395 25.3518 25.1382C24.5091 25.4369 23.4744 25.6822 22.2478 25.8742C22.1838 25.6289 22.0611 25.3462 21.8798 25.0262C21.6984 24.7062 21.5171 24.4502 21.3358 24.2582C22.4451 24.1089 23.3678 23.9275 24.1038 23.7142C24.8398 23.4902 25.4371 23.2289 25.8958 22.9302C26.3544 22.6209 26.7064 22.2742 26.9518 21.8902C27.1971 21.5062 27.3731 21.0795 27.4798 20.6102C27.5971 20.1302 27.6931 19.6022 27.7678 19.0262ZM29.8798 21.3142C30.3811 22.1889 31.1704 22.8449 32.2478 23.2822C33.3251 23.7195 34.6798 23.9915 36.3118 24.0982C36.1838 24.2262 36.0451 24.3915 35.8958 24.5942C35.7464 24.7969 35.6078 25.0049 35.4798 25.2182C35.3518 25.4315 35.2504 25.6289 35.1758 25.8102C33.9811 25.6609 32.9358 25.4209 32.0398 25.0902C31.1544 24.7702 30.3971 24.3275 29.7678 23.7622C29.1384 23.1969 28.6051 22.4982 28.1678 21.6662L29.8798 21.3142ZM21.5758 12.4342L22.9998 11.6662C23.2771 12.0075 23.5544 12.4022 23.8318 12.8502C24.1091 13.2875 24.3064 13.6715 24.4238 14.0022L22.9038 14.8662C22.7864 14.5355 22.5998 14.1409 22.3438 13.6822C22.0984 13.2235 21.8424 12.8075 21.5758 12.4342ZM24.7918 10.8662H26.6478V19.0422H24.7918V10.8662ZM21.2718 16.5462C21.7624 16.3222 22.3544 16.0342 23.0478 15.6822C23.7411 15.3195 24.4504 14.9409 25.1758 14.5462L25.6718 16.0502C25.0744 16.4342 24.4558 16.8129 23.8158 17.1862C23.1864 17.5595 22.5998 17.9062 22.0558 18.2262L21.2718 16.5462ZM28.7918 15.0902L30.1518 14.2582C30.3864 14.4502 30.6264 14.6689 30.8718 14.9142C31.1171 15.1595 31.3518 15.3995 31.5758 15.6342C31.7998 15.8689 31.9758 16.0875 32.1038 16.2902L30.6638 17.2182C30.5358 17.0155 30.3704 16.7915 30.1678 16.5462C29.9651 16.2902 29.7411 16.0395 29.4958 15.7942C29.2504 15.5382 29.0158 15.3035 28.7918 15.0902ZM29.7038 12.1942H34.6158V13.7942H29.7038V12.1942ZM30.0878 10.8182L31.9118 11.4262C31.4424 12.1729 30.8504 12.8929 30.1358 13.5862C29.4318 14.2795 28.6904 14.8502 27.9118 15.2982C27.8264 15.1595 27.7144 15.0049 27.5758 14.8342C27.4478 14.6529 27.3091 14.4822 27.1598 14.3222C27.0211 14.1515 26.8931 14.0075 26.7758 13.8902C27.2344 13.6449 27.6771 13.3569 28.1038 13.0262C28.5411 12.6849 28.9304 12.3222 29.2718 11.9382C29.6238 11.5542 29.8958 11.1809 30.0878 10.8182ZM34.3598 12.1942H34.7278L35.0638 12.1622L36.1998 12.6742C35.7838 13.9969 35.1704 15.0849 34.3598 15.9382C33.5598 16.7809 32.5998 17.4475 31.4798 17.9382C30.3704 18.4289 29.1438 18.7915 27.7998 19.0262C27.7464 18.8769 27.6611 18.7009 27.5438 18.4982C27.4264 18.2955 27.2984 18.0982 27.1598 17.9062C27.0318 17.7035 26.9091 17.5435 26.7918 17.4262C28.0718 17.2555 29.2238 16.9889 30.2478 16.6262C31.2718 16.2529 32.1304 15.7355 32.8238 15.0742C33.5278 14.4022 34.0398 13.5382 34.3598 12.4822V12.1942ZM45.7198 14.7062H50.7118V16.4502H45.7198V14.7062ZM39.4318 14.6902H45.3678V16.3542H39.4318V14.6902ZM39.0638 11.7622H45.8478V13.4902H39.0638V11.7622ZM50.0878 14.7062H51.8638C51.8638 14.7062 51.8638 14.7595 51.8638 14.8662C51.8638 14.9729 51.8584 15.0902 51.8478 15.2182C51.8478 15.3462 51.8478 15.4475 51.8478 15.5222C51.8158 17.1542 51.7784 18.5355 51.7358 19.6662C51.7038 20.7969 51.6611 21.7302 51.6078 22.4662C51.5544 23.1915 51.4851 23.7569 51.3998 24.1622C51.3251 24.5675 51.2291 24.8555 51.1118 25.0262C50.9411 25.2822 50.7651 25.4635 50.5838 25.5702C50.4024 25.6875 50.1838 25.7675 49.9278 25.8102C49.7038 25.8529 49.4264 25.8742 49.0958 25.8742C48.7758 25.8849 48.4344 25.8849 48.0718 25.8742C48.0611 25.6075 48.0078 25.3089 47.9118 24.9782C47.8264 24.6582 47.7091 24.3755 47.5598 24.1302C47.8691 24.1515 48.1518 24.1675 48.4078 24.1782C48.6744 24.1782 48.8771 24.1782 49.0158 24.1782C49.1331 24.1782 49.2291 24.1622 49.3038 24.1302C49.3891 24.0875 49.4691 24.0129 49.5438 23.9062C49.6184 23.7889 49.6878 23.5542 49.7518 23.2022C49.8158 22.8502 49.8691 22.3329 49.9118 21.6502C49.9544 20.9675 49.9864 20.0929 50.0078 19.0262C50.0398 17.9489 50.0664 16.6369 50.0878 15.0902V14.7062ZM41.8318 17.7302H44.3758V19.3462H41.8318V17.7302ZM43.6558 17.7302H45.3038C45.3038 17.7302 45.2984 17.7729 45.2878 17.8582C45.2878 17.9435 45.2878 18.0395 45.2878 18.1462C45.2878 18.2422 45.2824 18.3275 45.2718 18.4022C45.2398 19.4902 45.2024 20.4182 45.1598 21.1862C45.1171 21.9542 45.0691 22.5942 45.0158 23.1062C44.9624 23.6075 44.8984 24.0022 44.8238 24.2902C44.7598 24.5782 44.6798 24.7915 44.5838 24.9302C44.4344 25.1222 44.2798 25.2609 44.1198 25.3462C43.9598 25.4315 43.7731 25.4902 43.5598 25.5222C43.3891 25.5542 43.1651 25.5702 42.8878 25.5702C42.6211 25.5809 42.3331 25.5809 42.0238 25.5702C42.0131 25.3355 41.9704 25.0689 41.8958 24.7702C41.8211 24.4822 41.7251 24.2369 41.6078 24.0342C41.8424 24.0555 42.0558 24.0715 42.2478 24.0822C42.4398 24.0929 42.5891 24.0929 42.6958 24.0822C42.8024 24.0929 42.8878 24.0875 42.9518 24.0662C43.0158 24.0342 43.0798 23.9702 43.1438 23.8742C43.2291 23.7675 43.2984 23.5115 43.3518 23.1062C43.4158 22.7009 43.4691 22.0929 43.5118 21.2822C43.5651 20.4715 43.6131 19.3889 43.6558 18.0342V17.7302ZM47.1758 11.1222H48.9358C48.9251 12.7329 48.8984 14.2689 48.8558 15.7302C48.8131 17.1809 48.6958 18.5355 48.5038 19.7942C48.3224 21.0529 48.0238 22.1995 47.6078 23.2342C47.2024 24.2582 46.6264 25.1595 45.8798 25.9382C45.7411 25.7142 45.5384 25.4689 45.2718 25.2022C45.0158 24.9462 44.7811 24.7489 44.5678 24.6102C45.1118 24.0662 45.5491 23.4422 45.8798 22.7382C46.2104 22.0342 46.4611 21.2609 46.6318 20.4182C46.8131 19.5649 46.9411 18.6529 47.0158 17.6822C47.0904 16.7009 47.1331 15.6662 47.1438 14.5782C47.1651 13.4795 47.1758 12.3275 47.1758 11.1222ZM41.0158 15.6822H42.7598C42.7384 16.8022 42.7011 17.8689 42.6478 18.8822C42.5944 19.8955 42.4878 20.8449 42.3278 21.7302C42.1678 22.6049 41.9278 23.4102 41.6078 24.1462C41.2984 24.8715 40.8718 25.5115 40.3278 26.0662C40.2104 25.8529 40.0291 25.6129 39.7838 25.3462C39.5491 25.0902 39.3304 24.8929 39.1278 24.7542C39.5758 24.2742 39.9224 23.7195 40.1678 23.0902C40.4238 22.4609 40.6104 21.7622 40.7278 20.9942C40.8451 20.2262 40.9198 19.3995 40.9518 18.5142C40.9838 17.6182 41.0051 16.6742 41.0158 15.6822ZM38.1518 11.7622H39.8958V17.6822C39.8958 18.3009 39.8798 18.9729 39.8478 19.6982C39.8264 20.4129 39.7731 21.1435 39.6878 21.8902C39.6024 22.6369 39.4744 23.3569 39.3038 24.0502C39.1438 24.7329 38.9358 25.3569 38.6798 25.9222C38.5624 25.8262 38.4078 25.7142 38.2158 25.5862C38.0238 25.4689 37.8264 25.3569 37.6238 25.2502C37.4318 25.1435 37.2611 25.0635 37.1118 25.0102C37.4318 24.3169 37.6664 23.5489 37.8158 22.7062C37.9651 21.8529 38.0558 20.9942 38.0878 20.1302C38.1304 19.2555 38.1518 18.4449 38.1518 17.6982V11.7622ZM55.8638 16.7542H64.5198V18.6102H55.8638V16.7542ZM63.8798 16.7542H65.8958C65.8958 16.7542 65.8958 16.8075 65.8958 16.9142C65.8958 17.0102 65.8958 17.1275 65.8958 17.2662C65.8958 17.3942 65.8904 17.5009 65.8798 17.5862C65.8371 18.7915 65.7891 19.8315 65.7358 20.7062C65.6824 21.5702 65.6184 22.2902 65.5438 22.8662C65.4798 23.4422 65.3998 23.9009 65.3038 24.2422C65.2078 24.5835 65.0904 24.8395 64.9518 25.0102C64.7384 25.2662 64.5144 25.4475 64.2798 25.5542C64.0558 25.6609 63.7891 25.7355 63.4798 25.7782C63.2131 25.8209 62.8611 25.8422 62.4238 25.8422C61.9864 25.8529 61.5278 25.8475 61.0478 25.8262C61.0371 25.5382 60.9731 25.2075 60.8558 24.8342C60.7384 24.4715 60.5944 24.1569 60.4238 23.8902C60.8718 23.9222 61.2878 23.9435 61.6718 23.9542C62.0558 23.9649 62.3438 23.9702 62.5358 23.9702C62.6851 23.9702 62.8078 23.9595 62.9038 23.9382C62.9998 23.9062 63.0958 23.8422 63.1918 23.7462C63.3198 23.6075 63.4211 23.3035 63.4958 22.8342C63.5811 22.3542 63.6558 21.6502 63.7198 20.7222C63.7838 19.7835 63.8371 18.5729 63.8798 17.0902V16.7542ZM57.6558 11.0742L59.7358 11.6822C59.3411 12.6102 58.8664 13.5062 58.3118 14.3702C57.7678 15.2342 57.1758 16.0289 56.5358 16.7542C55.9064 17.4795 55.2504 18.1089 54.5678 18.6422C54.4504 18.5035 54.2904 18.3382 54.0878 18.1462C53.8851 17.9435 53.6771 17.7462 53.4638 17.5542C53.2611 17.3622 53.0798 17.2075 52.9198 17.0902C53.5811 16.6422 54.2104 16.1089 54.8078 15.4902C55.4158 14.8609 55.9651 14.1729 56.4558 13.4262C56.9464 12.6689 57.3464 11.8849 57.6558 11.0742ZM63.7518 11.0422C64.0078 11.5542 64.3171 12.0769 64.6798 12.6102C65.0424 13.1435 65.4371 13.6662 65.8638 14.1782C66.3011 14.6795 66.7438 15.1542 67.1918 15.6022C67.6504 16.0502 68.0984 16.4395 68.5358 16.7702C68.3651 16.8982 68.1731 17.0689 67.9598 17.2822C67.7571 17.4849 67.5598 17.6929 67.3678 17.9062C67.1864 18.1195 67.0318 18.3169 66.9038 18.4982C66.4558 18.0822 66.0024 17.6182 65.5438 17.1062C65.0851 16.5835 64.6318 16.0342 64.1838 15.4582C63.7464 14.8715 63.3304 14.2689 62.9358 13.6502C62.5411 13.0209 62.1838 12.4022 61.8638 11.7942L63.7518 11.0422ZM58.7118 17.2982H60.8078C60.7331 18.1942 60.6104 19.0689 60.4398 19.9222C60.2691 20.7755 59.9864 21.5809 59.5918 22.3382C59.2078 23.0955 58.6478 23.7889 57.9118 24.4182C57.1864 25.0369 56.2264 25.5649 55.0318 26.0022C54.9571 25.8209 54.8504 25.6235 54.7118 25.4102C54.5731 25.1969 54.4238 24.9835 54.2638 24.7702C54.1038 24.5675 53.9438 24.3915 53.7838 24.2422C54.8611 23.9009 55.7144 23.4795 56.3438 22.9782C56.9731 22.4662 57.4478 21.9115 57.7678 21.3142C58.0878 20.7062 58.3064 20.0609 58.4238 19.3782C58.5518 18.6955 58.6478 18.0022 58.7118 17.2982ZM78.3118 16.4662H82.7758V18.2902H78.3118V16.4662ZM77.3838 16.4662H79.2878V23.1382C79.2878 23.4689 79.3304 23.6769 79.4158 23.7622C79.5011 23.8475 79.7038 23.8902 80.0238 23.8902C80.0878 23.8902 80.1998 23.8902 80.3598 23.8902C80.5198 23.8902 80.6958 23.8902 80.8878 23.8902C81.0798 23.8902 81.2611 23.8902 81.4318 23.8902C81.6131 23.8902 81.7411 23.8902 81.8158 23.8902C82.0184 23.8902 82.1678 23.8315 82.2638 23.7142C82.3704 23.5862 82.4451 23.3409 82.4878 22.9782C82.5411 22.6155 82.5838 22.0822 82.6158 21.3782C82.7544 21.4849 82.9251 21.5915 83.1278 21.6982C83.3304 21.7942 83.5384 21.8849 83.7518 21.9702C83.9758 22.0449 84.1731 22.1035 84.3438 22.1462C84.2798 23.0529 84.1678 23.7622 84.0078 24.2742C83.8478 24.7862 83.6078 25.1489 83.2878 25.3622C82.9678 25.5755 82.5304 25.6822 81.9758 25.6822C81.8904 25.6822 81.7731 25.6822 81.6238 25.6822C81.4744 25.6822 81.3091 25.6822 81.1278 25.6822C80.9464 25.6822 80.7598 25.6822 80.5678 25.6822C80.3864 25.6822 80.2211 25.6822 80.0718 25.6822C79.9224 25.6822 79.8104 25.6822 79.7358 25.6822C79.1384 25.6822 78.6691 25.6075 78.3278 25.4582C77.9971 25.3195 77.7571 25.0635 77.6078 24.6902C77.4584 24.3275 77.3838 23.8102 77.3838 23.1382V16.4662ZM77.3358 11.6022H83.7198V19.2982H81.8638V13.4582H77.3358V11.6022ZM69.7198 14.4342H76.4398V25.5862H74.9198V16.0182H71.1918V25.8102H69.7198V14.4342ZM70.5038 20.8822H75.6398V22.2102H70.5038V20.8822ZM70.5038 23.3142H75.6398V24.8022H70.5038V23.3142ZM69.4158 11.4582H76.7438V13.1382H69.4158V11.4582ZM71.5758 11.8422H72.8238V15.6822H71.5758V11.8422ZM73.4638 11.8422H74.7438V15.6822H73.4638V11.8422ZM71.8798 15.6662H72.7758V17.2982C72.7758 17.5969 72.7491 17.9222 72.6958 18.2742C72.6531 18.6155 72.5624 18.9569 72.4238 19.2982C72.2958 19.6289 72.1091 19.9329 71.8638 20.2102C71.7891 20.1249 71.6771 20.0182 71.5278 19.8902C71.3891 19.7622 71.2664 19.6715 71.1598 19.6182C71.3731 19.3835 71.5278 19.1329 71.6238 18.8662C71.7304 18.5995 71.7998 18.3329 71.8318 18.0662C71.8638 17.7889 71.8798 17.5275 71.8798 17.2822V15.6662ZM73.3198 15.6662H74.2158V18.6102C74.2158 18.7169 74.2211 18.7862 74.2318 18.8182C74.2424 18.8395 74.2744 18.8502 74.3278 18.8502C74.3491 18.8502 74.3758 18.8502 74.4078 18.8502C74.4504 18.8502 74.4878 18.8502 74.5198 18.8502C74.5624 18.8502 74.5944 18.8502 74.6158 18.8502C74.7331 18.8502 74.8024 18.8342 74.8238 18.8022C74.9198 18.8769 75.0478 18.9462 75.2078 19.0102C75.3678 19.0742 75.5171 19.1222 75.6558 19.1542C75.6024 19.3782 75.5011 19.5435 75.3518 19.6502C75.2131 19.7462 75.0211 19.7942 74.7758 19.7942C74.7331 19.7942 74.6744 19.7942 74.5998 19.7942C74.5358 19.7942 74.4664 19.7942 74.3918 19.7942C74.3278 19.7942 74.2691 19.7942 74.2158 19.7942C73.8744 19.7942 73.6398 19.7195 73.5118 19.5702C73.3838 19.4209 73.3198 19.1062 73.3198 18.6262V15.6662ZM85.6238 13.3302H91.4478V15.1062H85.6238V13.3302ZM85.3038 17.0422H91.6398V18.8662H85.3038V17.0422ZM87.6878 11.0262H89.5118V16.1302C89.5118 16.8769 89.4798 17.6715 89.4158 18.5142C89.3518 19.3569 89.2184 20.2102 89.0158 21.0742C88.8131 21.9382 88.5091 22.7702 88.1038 23.5702C87.7091 24.3702 87.1758 25.0955 86.5038 25.7462C86.4184 25.6182 86.2958 25.4689 86.1358 25.2982C85.9758 25.1275 85.8104 24.9622 85.6398 24.8022C85.4691 24.6422 85.3038 24.5142 85.1438 24.4182C85.7411 23.8849 86.2104 23.2715 86.5518 22.5782C86.9038 21.8742 87.1598 21.1435 87.3198 20.3862C87.4798 19.6289 87.5811 18.8875 87.6238 18.1622C87.6664 17.4262 87.6878 16.7489 87.6878 16.1302V11.0262ZM89.2398 19.0422C89.3464 19.1382 89.4958 19.2929 89.6878 19.5062C89.8798 19.7089 90.0824 19.9382 90.2958 20.1942C90.5198 20.4502 90.7438 20.7062 90.9678 20.9622C91.1918 21.2182 91.3891 21.4475 91.5598 21.6502C91.7304 21.8529 91.8584 22.0075 91.9438 22.1142L90.6318 23.4902C90.4824 23.2449 90.2958 22.9622 90.0718 22.6422C89.8584 22.3222 89.6238 21.9915 89.3678 21.6502C89.1224 21.3089 88.8824 20.9889 88.6478 20.6902C88.4238 20.3915 88.2264 20.1409 88.0558 19.9382L89.2398 19.0422ZM92.1678 11.5862H99.5918V20.1142H97.6878V13.2502H93.9918V20.1142H92.1678V11.5862ZM95.3998 19.6182H97.0798V23.5542C97.0798 23.7569 97.1171 23.8955 97.1918 23.9702C97.2664 24.0449 97.3784 24.0822 97.5278 24.0822H98.2638C98.4024 24.0822 98.5091 24.0235 98.5838 23.9062C98.6584 23.7782 98.7118 23.5382 98.7438 23.1862C98.7758 22.8342 98.8024 22.3329 98.8238 21.6822C99.0264 21.8422 99.2664 21.9862 99.5438 22.1142C99.8318 22.2315 100.088 22.3169 100.312 22.3702C100.258 23.1809 100.173 23.8209 100.056 24.2902C99.9384 24.7489 99.7464 25.0689 99.4798 25.2502C99.2131 25.4422 98.8131 25.5382 98.2798 25.5382H97.1758C96.5464 25.5382 96.0931 25.4155 95.8158 25.1702C95.5384 24.9249 95.3998 24.4555 95.3998 23.7622V19.6182ZM94.9678 14.2422H96.7438V16.7862C96.7438 17.5009 96.6744 18.2689 96.5358 19.0902C96.4078 19.9009 96.1624 20.7222 95.7998 21.5542C95.4371 22.3755 94.9198 23.1595 94.2478 23.9062C93.5758 24.6422 92.7011 25.2982 91.6238 25.8742C91.5491 25.7462 91.4371 25.5915 91.2878 25.4102C91.1491 25.2395 90.9998 25.0689 90.8398 24.8982C90.6798 24.7275 90.5358 24.5995 90.4078 24.5142C91.4424 23.9809 92.2638 23.3942 92.8718 22.7542C93.4798 22.1142 93.9331 21.4529 94.2318 20.7702C94.5304 20.0769 94.7278 19.3889 94.8238 18.7062C94.9198 18.0129 94.9678 17.3622 94.9678 16.7542V14.2422ZM105.656 22.8022L106.808 21.6182C107.128 21.8635 107.48 22.1462 107.864 22.4662C108.258 22.7862 108.632 23.1009 108.984 23.4102C109.346 23.7089 109.64 23.9809 109.864 24.2262L108.664 25.5862C108.45 25.3302 108.168 25.0369 107.816 24.7062C107.474 24.3862 107.112 24.0555 106.728 23.7142C106.344 23.3729 105.986 23.0689 105.656 22.8022ZM101.928 11.6182H109.4V21.4262H107.544V13.3302H103.704V21.5062H101.928V11.6182ZM113.656 11.0742H115.56V23.4742C115.56 24.0395 115.496 24.4662 115.368 24.7542C115.24 25.0529 115.01 25.2875 114.68 25.4582C114.338 25.6075 113.901 25.7035 113.368 25.7462C112.834 25.7995 112.2 25.8262 111.464 25.8262C111.442 25.6342 111.394 25.4155 111.32 25.1702C111.245 24.9355 111.165 24.7009 111.08 24.4662C110.994 24.2209 110.898 24.0075 110.792 23.8262C111.325 23.8475 111.821 23.8635 112.28 23.8742C112.749 23.8742 113.064 23.8742 113.224 23.8742C113.373 23.8635 113.48 23.8315 113.544 23.7782C113.618 23.7142 113.656 23.6075 113.656 23.4582V11.0742ZM110.664 12.3382H112.456V22.2102H110.664V12.3382ZM104.68 14.2582H106.488V18.9302C106.488 19.5382 106.434 20.1675 106.328 20.8182C106.232 21.4689 106.034 22.1089 105.736 22.7382C105.437 23.3675 105.01 23.9542 104.456 24.4982C103.901 25.0529 103.17 25.5275 102.264 25.9222C102.21 25.7835 102.114 25.6182 101.976 25.4262C101.837 25.2342 101.688 25.0475 101.528 24.8662C101.378 24.6955 101.245 24.5622 101.128 24.4662C101.938 24.1035 102.578 23.7035 103.048 23.2662C103.528 22.8289 103.88 22.3702 104.104 21.8902C104.338 21.4102 104.493 20.9142 104.568 20.4022C104.642 19.8902 104.68 19.3835 104.68 18.8822V14.2582Z" fill="black"/>
<defs>
<linearGradient id="paint0_linear_2654_5748" x1="-6.43788" y1="5.59854" x2="146.709" y2="56.1512" gradientUnits="userSpaceOnUse">
<stop stop-color="#F767C9"/>
<stop offset="1" stop-color="#E4FF1A"/>
</linearGradient>
</defs>
</svg>
