<svg width="216" height="36" viewBox="0 0 216 36" fill="none" xmlns="http://www.w3.org/2000/svg">
<path d="M0 12C0 5.37258 5.37258 0 12 0H205.499C208.699 0 210.603 3.57151 208.82 6.22891L190.03 34.2289C189.287 35.3359 188.042 36 186.709 36H0V12Z" fill="url(#paint0_linear_2701_2817)"/>
<rect x="210.027" y="15" width="6.93645" height="20.1479" rx="3.46823" transform="rotate(31.8702 210.027 15)" fill="#E4FF1A"/>
<path d="M21.6244 24.4662V12.8298H26.4313C27.3025 12.8298 28.0544 12.987 28.6869 13.3014C29.3233 13.612 29.8138 14.059 30.1585 14.6423C30.5032 15.2219 30.6756 15.9094 30.6756 16.7048C30.6756 17.5116 30.4994 18.1972 30.1472 18.7616C29.7949 19.3222 29.2949 19.7503 28.6472 20.0457C27.9994 20.3374 27.2324 20.4832 26.346 20.4832H23.3063V18.2673H25.8233C26.2476 18.2673 26.6017 18.2124 26.8858 18.1026C27.1737 17.9889 27.3915 17.8185 27.5392 17.5912C27.6869 17.3601 27.7608 17.0647 27.7608 16.7048C27.7608 16.345 27.6869 16.0476 27.5392 15.8128C27.3915 15.5741 27.1737 15.3961 26.8858 15.2787C26.5979 15.1575 26.2438 15.0969 25.8233 15.0969H24.4369V24.4662H21.6244ZM28.1756 19.148L31.0733 24.4662H28.0051L25.1642 19.148H28.1756ZM36.1259 24.631C35.213 24.631 34.4251 24.451 33.7622 24.0912C33.1031 23.7276 32.5956 23.2105 32.2395 22.5401C31.8872 21.8658 31.7111 21.0647 31.7111 20.1366C31.7111 19.2351 31.8891 18.4472 32.2452 17.773C32.6012 17.095 33.1031 16.5685 33.7509 16.1935C34.3986 15.8147 35.1619 15.6253 36.0406 15.6253C36.6619 15.6253 37.23 15.7219 37.7452 15.915C38.2603 16.1082 38.7054 16.3942 39.0804 16.773C39.4554 17.1518 39.7471 17.6196 39.9554 18.1764C40.1637 18.7294 40.2679 19.3639 40.2679 20.0798V20.773H32.6827V19.1594H37.6827C37.6789 18.8639 37.6088 18.6007 37.4725 18.3696C37.3361 18.1385 37.1486 17.9586 36.91 17.8298C36.6751 17.6972 36.4043 17.631 36.0975 17.631C35.7869 17.631 35.5084 17.701 35.2622 17.8412C35.016 17.9776 34.8209 18.1651 34.677 18.4037C34.5331 18.6385 34.4573 18.9056 34.4497 19.2048V20.8469C34.4497 21.2029 34.5198 21.5154 34.66 21.7844C34.8001 22.0495 34.999 22.256 35.2566 22.4037C35.5141 22.5514 35.8209 22.6253 36.177 22.6253C36.4232 22.6253 36.6467 22.5912 36.8475 22.523C37.0482 22.4548 37.2206 22.3544 37.3645 22.2219C37.5084 22.0893 37.6164 21.9264 37.6884 21.7332L40.2395 21.8071C40.1334 22.3791 39.9005 22.8772 39.5406 23.3014C39.1846 23.7219 38.7168 24.0495 38.1372 24.2844C37.5577 24.5154 36.8872 24.631 36.1259 24.631ZM43.2239 24.4662L40.9512 15.7389H43.7409L44.9171 21.3298H44.9909L46.2523 15.7389H48.9739L50.2693 21.2901H50.3432L51.4852 15.7389H54.275L51.9966 24.4662H49.025L47.6614 19.381H47.5648L46.2012 24.4662H43.2239ZM57.8503 24.6139C57.2935 24.6139 56.7992 24.5211 56.3673 24.3355C55.9393 24.1461 55.6003 23.862 55.3503 23.4832C55.1041 23.1007 54.981 22.6215 54.981 22.0457C54.981 21.5609 55.0662 21.1518 55.2367 20.8185C55.4071 20.4851 55.642 20.2143 55.9412 20.006C56.2405 19.7976 56.5851 19.6404 56.9753 19.5344C57.3655 19.4245 57.7821 19.3507 58.2253 19.3128C58.7215 19.2673 59.1211 19.22 59.4242 19.1707C59.7272 19.1177 59.9469 19.0438 60.0833 18.9491C60.2234 18.8507 60.2935 18.7124 60.2935 18.5344V18.506C60.2935 18.2143 60.1931 17.9889 59.9923 17.8298C59.7916 17.6707 59.5208 17.5912 59.1798 17.5912C58.8124 17.5912 58.517 17.6707 58.2935 17.8298C58.07 17.9889 57.928 18.2086 57.8673 18.4889L55.3048 18.398C55.3806 17.8677 55.5757 17.3942 55.8901 16.9776C56.2083 16.5571 56.6439 16.2276 57.1969 15.9889C57.7537 15.7465 58.4223 15.6253 59.2026 15.6253C59.7594 15.6253 60.2726 15.6916 60.7423 15.8241C61.212 15.9529 61.6211 16.1423 61.9696 16.3923C62.3181 16.6385 62.587 16.9416 62.7764 17.3014C62.9696 17.6613 63.0662 18.0722 63.0662 18.5344V24.4662H60.4526V23.2503H60.3844C60.2291 23.5457 60.0302 23.7957 59.7878 24.0003C59.5492 24.2048 59.267 24.3582 58.9412 24.4605C58.6192 24.5628 58.2556 24.6139 57.8503 24.6139ZM58.7083 22.7957C59.0075 22.7957 59.2764 22.7351 59.5151 22.6139C59.7575 22.4927 59.9507 22.326 60.0946 22.1139C60.2386 21.898 60.3105 21.648 60.3105 21.3639V20.5344C60.231 20.576 60.1344 20.6139 60.0208 20.648C59.9109 20.6821 59.7897 20.7143 59.6571 20.7446C59.5245 20.7749 59.3882 20.8014 59.248 20.8241C59.1079 20.8469 58.9734 20.8677 58.8446 20.8866C58.5833 20.9283 58.3598 20.9927 58.1742 21.0798C57.9923 21.1669 57.8522 21.2806 57.7537 21.4207C57.659 21.5571 57.6117 21.72 57.6117 21.9094C57.6117 22.1972 57.7139 22.4169 57.9185 22.5685C58.1268 22.72 58.3901 22.7957 58.7083 22.7957ZM64.7651 24.4662V15.7389H67.4639V17.3298H67.5548C67.7139 16.7541 67.9734 16.326 68.3333 16.0457C68.6931 15.7616 69.1117 15.6196 69.5889 15.6196C69.7177 15.6196 69.8503 15.6291 69.9867 15.648C70.123 15.6632 70.2499 15.6878 70.3673 15.7219V18.1366C70.2348 18.0912 70.0605 18.0552 69.8446 18.0287C69.6325 18.0022 69.4431 17.9889 69.2764 17.9889C68.9469 17.9889 68.6495 18.0628 68.3844 18.2105C68.123 18.3544 67.9166 18.5571 67.7651 18.8185C67.6173 19.076 67.5435 19.3791 67.5435 19.7276V24.4662H64.7651ZM74.2338 24.5912C73.5899 24.5912 73.0047 24.4245 72.4781 24.0912C71.9516 23.7579 71.5312 23.2579 71.2168 22.5912C70.9024 21.9245 70.7452 21.0969 70.7452 20.1082C70.7452 19.0817 70.9081 18.237 71.2338 17.5741C71.5596 16.9113 71.9857 16.4207 72.5122 16.1025C73.0425 15.7844 73.6126 15.6253 74.2225 15.6253C74.6808 15.6253 75.0728 15.7048 75.3986 15.8639C75.7244 16.0192 75.9933 16.22 76.2054 16.4662C76.4175 16.7124 76.5785 16.9681 76.6884 17.2332H76.7452V12.8298H79.5236V24.4662H76.7736V23.0514H76.6884C76.5709 23.3204 76.4043 23.5722 76.1884 23.8071C75.9725 24.0419 75.7016 24.2313 75.3759 24.3753C75.0539 24.5192 74.6732 24.5912 74.2338 24.5912ZM75.1997 22.4264C75.5369 22.4264 75.8247 22.3317 76.0634 22.1423C76.302 21.9491 76.4857 21.6783 76.6145 21.3298C76.7433 20.9813 76.8077 20.5722 76.8077 20.1026C76.8077 19.6253 76.7433 19.2143 76.6145 18.8696C76.4895 18.5249 76.3058 18.2597 76.0634 18.0741C75.8247 17.8885 75.5369 17.7957 75.1997 17.7957C74.855 17.7957 74.5634 17.8904 74.3247 18.0798C74.0861 18.2692 73.9043 18.5363 73.7793 18.881C73.6581 19.2257 73.5975 19.6329 73.5975 20.1026C73.5975 20.5722 73.66 20.9813 73.785 21.3298C73.91 21.6783 74.0899 21.9491 74.3247 22.1423C74.5634 22.3317 74.855 22.4264 75.1997 22.4264ZM89.0193 24.4662H84.7182V12.8298H89.0137C90.1993 12.8298 91.2201 13.0628 92.0762 13.5287C92.936 13.9908 93.5989 14.6575 94.0648 15.5287C94.5307 16.3961 94.7637 17.434 94.7637 18.6423C94.7637 19.8544 94.5307 20.8961 94.0648 21.7673C93.6027 22.6385 92.9417 23.3071 92.0818 23.773C91.222 24.2351 90.2012 24.4662 89.0193 24.4662ZM87.5307 22.0685H88.9114C89.5629 22.0685 90.114 21.9586 90.5648 21.7389C91.0193 21.5154 91.3621 21.1537 91.5932 20.6537C91.828 20.1499 91.9455 19.4794 91.9455 18.6423C91.9455 17.8052 91.828 17.1385 91.5932 16.6423C91.3584 16.1423 91.0118 15.7825 90.5534 15.5628C90.0989 15.3393 89.5383 15.2275 88.8716 15.2275H87.5307V22.0685ZM96.4057 24.4662V15.7389H99.1841V24.4662H96.4057ZM97.7977 14.7219C97.4076 14.7219 97.0724 14.5931 96.7921 14.3355C96.5118 14.0741 96.3716 13.7597 96.3716 13.3923C96.3716 13.0287 96.5118 12.7181 96.7921 12.4605C97.0724 12.1991 97.4076 12.0685 97.7977 12.0685C98.1917 12.0685 98.5269 12.1991 98.8034 12.4605C99.0837 12.7181 99.2239 13.0287 99.2239 13.3923C99.2239 13.7597 99.0837 14.0741 98.8034 14.3355C98.5269 14.5931 98.1917 14.7219 97.7977 14.7219ZM108.572 18.4037L106.021 18.4719C105.994 18.2901 105.922 18.1291 105.805 17.9889C105.687 17.845 105.534 17.7332 105.345 17.6537C105.159 17.5704 104.943 17.5287 104.697 17.5287C104.375 17.5287 104.1 17.5931 103.873 17.7219C103.65 17.8507 103.54 18.0249 103.543 18.2446C103.54 18.415 103.608 18.5628 103.748 18.6878C103.892 18.8128 104.148 18.9132 104.515 18.9889L106.197 19.3071C107.068 19.4738 107.716 19.7503 108.14 20.1366C108.568 20.523 108.784 21.0344 108.788 21.6707C108.784 22.2692 108.606 22.7901 108.254 23.2332C107.905 23.6764 107.428 24.0211 106.822 24.2673C106.216 24.5097 105.523 24.631 104.742 24.631C103.496 24.631 102.513 24.3753 101.793 23.8639C101.078 23.3488 100.668 22.6594 100.566 21.7957L103.311 21.7276C103.371 22.0457 103.528 22.2882 103.782 22.4548C104.036 22.6215 104.36 22.7048 104.754 22.7048C105.11 22.7048 105.4 22.6385 105.623 22.506C105.847 22.3734 105.96 22.1972 105.964 21.9776C105.96 21.7806 105.873 21.6234 105.703 21.506C105.532 21.3847 105.265 21.2901 104.901 21.2219L103.379 20.9321C102.504 20.773 101.852 20.4794 101.424 20.0514C100.996 19.6196 100.784 19.0704 100.788 18.4037C100.784 17.8204 100.939 17.3222 101.254 16.9094C101.568 16.4927 102.015 16.1745 102.595 15.9548C103.174 15.7351 103.858 15.6253 104.646 15.6253C105.828 15.6253 106.759 15.8734 107.441 16.3696C108.123 16.862 108.5 17.54 108.572 18.4037ZM115.082 15.7389V17.7844H109.576V15.7389H115.082ZM110.73 13.648H113.508V21.7219C113.508 21.8923 113.534 22.0306 113.588 22.1366C113.644 22.2389 113.726 22.3128 113.832 22.3582C113.938 22.3999 114.065 22.4207 114.213 22.4207C114.319 22.4207 114.43 22.4113 114.548 22.3923C114.669 22.3696 114.76 22.3507 114.82 22.3355L115.241 24.3412C115.108 24.3791 114.921 24.4264 114.678 24.4832C114.44 24.5401 114.154 24.576 113.82 24.5912C113.169 24.6215 112.61 24.5457 112.144 24.3639C111.682 24.1783 111.328 23.8904 111.082 23.5003C110.839 23.1101 110.722 22.6196 110.73 22.0287V13.648ZM116.499 24.4662V15.7389H119.198V17.3298H119.289C119.448 16.7541 119.708 16.326 120.068 16.0457C120.427 15.7616 120.846 15.6196 121.323 15.6196C121.452 15.6196 121.585 15.6291 121.721 15.648C121.857 15.6632 121.984 15.6878 122.102 15.7219V18.1366C121.969 18.0912 121.795 18.0552 121.579 18.0287C121.367 18.0022 121.177 17.9889 121.011 17.9889C120.681 17.9889 120.384 18.0628 120.119 18.2105C119.857 18.3544 119.651 18.5571 119.499 18.8185C119.352 19.076 119.278 19.3791 119.278 19.7276V24.4662H116.499ZM123.234 24.4662V15.7389H126.012V24.4662H123.234ZM124.626 14.7219C124.236 14.7219 123.9 14.5931 123.62 14.3355C123.34 14.0741 123.2 13.7597 123.2 13.3923C123.2 13.0287 123.34 12.7181 123.62 12.4605C123.9 12.1991 124.236 12.0685 124.626 12.0685C125.02 12.0685 125.355 12.1991 125.632 12.4605C125.912 12.7181 126.052 13.0287 126.052 13.3923C126.052 13.7597 125.912 14.0741 125.632 14.3355C125.355 14.5931 125.02 14.7219 124.626 14.7219ZM127.781 24.4662V12.8298H130.559V17.2332H130.616C130.73 16.9681 130.891 16.7124 131.099 16.4662C131.311 16.22 131.58 16.0192 131.906 15.8639C132.235 15.7048 132.629 15.6253 133.088 15.6253C133.694 15.6253 134.26 15.7844 134.786 16.1025C135.317 16.4207 135.745 16.9113 136.07 17.5741C136.396 18.237 136.559 19.0817 136.559 20.1082C136.559 21.0969 136.402 21.9245 136.088 22.5912C135.777 23.2579 135.356 23.7579 134.826 24.0912C134.3 24.4245 133.714 24.5912 133.07 24.5912C132.631 24.5912 132.25 24.5192 131.928 24.3753C131.606 24.2313 131.336 24.0419 131.116 23.8071C130.9 23.5722 130.733 23.3204 130.616 23.0514H130.531V24.4662H127.781ZM130.502 20.1026C130.502 20.5722 130.565 20.9813 130.69 21.3298C130.819 21.6783 131.002 21.9491 131.241 22.1423C131.483 22.3317 131.773 22.4264 132.11 22.4264C132.451 22.4264 132.741 22.3317 132.98 22.1423C133.218 21.9491 133.398 21.6783 133.519 21.3298C133.644 20.9813 133.707 20.5722 133.707 20.1026C133.707 19.6329 133.644 19.2257 133.519 18.881C133.398 18.5363 133.218 18.2692 132.98 18.0798C132.745 17.8904 132.455 17.7957 132.11 17.7957C131.769 17.7957 131.48 17.8885 131.241 18.0741C131.002 18.2597 130.819 18.5249 130.69 18.8696C130.565 19.2143 130.502 19.6253 130.502 20.1026ZM143.646 20.6991V15.7389H146.418V24.4662H143.771V22.8412H143.68C143.487 23.3753 143.157 23.7995 142.691 24.1139C142.229 24.4245 141.67 24.5798 141.015 24.5798C140.42 24.5798 139.898 24.4435 139.447 24.1707C138.996 23.898 138.646 23.5173 138.396 23.0287C138.146 22.5363 138.019 21.9605 138.015 21.3014V15.7389H140.793V20.756C140.797 21.2294 140.922 21.6026 141.168 21.8753C141.415 22.148 141.75 22.2844 142.174 22.2844C142.451 22.2844 142.699 22.2238 142.918 22.1026C143.142 21.9776 143.318 21.7976 143.447 21.5628C143.579 21.3241 143.646 21.0363 143.646 20.6991ZM153.113 15.7389V17.7844H147.607V15.7389H153.113ZM148.761 13.648H151.539V21.7219C151.539 21.8923 151.566 22.0306 151.619 22.1366C151.676 22.2389 151.757 22.3128 151.863 22.3582C151.969 22.3999 152.096 22.4207 152.244 22.4207C152.35 22.4207 152.462 22.4113 152.579 22.3923C152.7 22.3696 152.791 22.3507 152.852 22.3355L153.272 24.3412C153.14 24.3791 152.952 24.4264 152.71 24.4832C152.471 24.5401 152.185 24.576 151.852 24.5912C151.2 24.6215 150.641 24.5457 150.176 24.3639C149.713 24.1783 149.359 23.8904 149.113 23.5003C148.871 23.1101 148.753 22.6196 148.761 22.0287V13.648ZM154.531 24.4662V15.7389H157.309V24.4662H154.531ZM155.923 14.7219C155.533 14.7219 155.197 14.5931 154.917 14.3355C154.637 14.0741 154.497 13.7597 154.497 13.3923C154.497 13.0287 154.637 12.7181 154.917 12.4605C155.197 12.1991 155.533 12.0685 155.923 12.0685C156.317 12.0685 156.652 12.1991 156.928 12.4605C157.209 12.7181 157.349 13.0287 157.349 13.3923C157.349 13.7597 157.209 14.0741 156.928 14.3355C156.652 14.5931 156.317 14.7219 155.923 14.7219ZM163.151 24.631C162.235 24.631 161.447 24.4435 160.788 24.0685C160.132 23.6897 159.627 23.1632 159.271 22.4889C158.918 21.8109 158.742 21.0249 158.742 20.131C158.742 19.2332 158.918 18.4472 159.271 17.773C159.627 17.095 160.132 16.5685 160.788 16.1935C161.447 15.8147 162.235 15.6253 163.151 15.6253C164.068 15.6253 164.854 15.8147 165.509 16.1935C166.168 16.5685 166.674 17.095 167.026 17.773C167.382 18.4472 167.561 19.2332 167.561 20.131C167.561 21.0249 167.382 21.8109 167.026 22.4889C166.674 23.1632 166.168 23.6897 165.509 24.0685C164.854 24.4435 164.068 24.631 163.151 24.631ZM163.168 22.5344C163.502 22.5344 163.784 22.4321 164.015 22.2276C164.246 22.023 164.422 21.7389 164.543 21.3753C164.668 21.0116 164.731 20.5912 164.731 20.1139C164.731 19.6291 164.668 19.2048 164.543 18.8412C164.422 18.4776 164.246 18.1935 164.015 17.9889C163.784 17.7844 163.502 17.6821 163.168 17.6821C162.824 17.6821 162.532 17.7844 162.293 17.9889C162.059 18.1935 161.879 18.4776 161.754 18.8412C161.632 19.2048 161.572 19.6291 161.572 20.1139C161.572 20.5912 161.632 21.0116 161.754 21.3753C161.879 21.7389 162.059 22.023 162.293 22.2276C162.532 22.4321 162.824 22.5344 163.168 22.5344ZM171.762 19.4889V24.4662H168.984V15.7389H171.626V17.3412H171.722C171.916 16.8071 172.245 16.3885 172.711 16.0855C173.177 15.7787 173.732 15.6253 174.376 15.6253C174.99 15.6253 175.522 15.7635 175.972 16.04C176.427 16.3128 176.779 16.6954 177.029 17.1878C177.283 17.6764 177.408 18.2484 177.404 18.9037V24.4662H174.626V19.4491C174.63 18.9643 174.507 18.5855 174.257 18.3128C174.01 18.0401 173.668 17.9037 173.228 17.9037C172.936 17.9037 172.679 17.9681 172.455 18.0969C172.236 18.2219 172.065 18.4018 171.944 18.6366C171.827 18.8715 171.766 19.1556 171.762 19.4889Z" fill="black"/>
<defs>
<linearGradient id="paint0_linear_2701_2817" x1="-8.84689" y1="5.59854" x2="184.711" y2="93.3985" gradientUnits="userSpaceOnUse">
<stop stop-color="#F767C9"/>
<stop offset="1" stop-color="#E4FF1A"/>
</linearGradient>
</defs>
</svg>
