<svg width="122" height="37" viewBox="0 0 122 37" fill="none" xmlns="http://www.w3.org/2000/svg">
<path d="M0 12C0 5.37258 5.37258 0 12 0H108.313C111.082 0 113.014 2.74593 112.078 5.35209L102.021 33.3521C101.451 34.9406 99.9445 36 98.2566 36H0V12Z" fill="url(#paint0_linear_2701_2739)"/>
<path d="M26.1998 10.8663L28.3438 11.4103C27.9598 11.9543 27.5544 12.5036 27.1278 13.0583C26.7118 13.6023 26.3278 14.0663 25.9758 14.4503L24.4078 13.9063C24.6318 13.629 24.8558 13.3143 25.0798 12.9623C25.3038 12.6103 25.5118 12.253 25.7038 11.8903C25.9064 11.517 26.0718 11.1756 26.1998 10.8663ZM30.2158 12.2903L31.7358 11.4263C32.1731 11.7463 32.6371 12.109 33.1278 12.5143C33.6184 12.909 34.0824 13.309 34.5198 13.7143C34.9678 14.1196 35.3304 14.493 35.6078 14.8343L33.9438 15.8263C33.6984 15.485 33.3678 15.1116 32.9518 14.7063C32.5358 14.2903 32.0878 13.869 31.6078 13.4423C31.1278 13.0156 30.6638 12.6316 30.2158 12.2903ZM22.0398 13.4583C22.7651 13.437 23.5811 13.4156 24.4878 13.3943C25.4051 13.373 26.3704 13.3516 27.3838 13.3303C28.4078 13.2983 29.4531 13.2663 30.5198 13.2343C31.5864 13.2023 32.6424 13.1703 33.6878 13.1383L33.6078 14.7223C32.2638 14.7756 30.9038 14.8343 29.5278 14.8983C28.1518 14.9516 26.8398 14.9996 25.5918 15.0423C24.3438 15.085 23.2291 15.117 22.2478 15.1383L22.0398 13.4583ZM21.4958 16.0343H36.0718V17.6503H21.4958V16.0343ZM28.9998 18.1463L30.4878 18.8663C30.0718 19.1543 29.5971 19.421 29.0638 19.6663C28.5304 19.901 27.9758 20.109 27.3998 20.2903C26.8344 20.4716 26.2904 20.621 25.7678 20.7383C25.6504 20.5676 25.4904 20.3756 25.2878 20.1623C25.0958 19.949 24.9038 19.7676 24.7118 19.6183C25.1918 19.5223 25.7038 19.3996 26.2478 19.2503C26.7918 19.101 27.3038 18.9303 27.7838 18.7383C28.2744 18.5463 28.6798 18.349 28.9998 18.1463ZM30.4718 19.9063L31.9918 20.6423C31.4691 21.0583 30.8558 21.4316 30.1518 21.7623C29.4584 22.093 28.7171 22.381 27.9278 22.6263C27.1491 22.8716 26.3651 23.0796 25.5758 23.2503C25.4691 23.0476 25.3198 22.8183 25.1278 22.5623C24.9464 22.2956 24.7598 22.0716 24.5678 21.8903C25.2718 21.773 25.9971 21.6183 26.7438 21.4263C27.5011 21.2343 28.2051 21.0103 28.8558 20.7543C29.5064 20.4983 30.0451 20.2156 30.4718 19.9063ZM32.3918 21.6023L34.0718 22.3703C33.3891 23.0743 32.5464 23.661 31.5438 24.1303C30.5518 24.5996 29.4478 24.9783 28.2318 25.2663C27.0158 25.5543 25.7251 25.7783 24.3598 25.9383C24.2744 25.693 24.1518 25.421 23.9918 25.1223C23.8318 24.8343 23.6611 24.5836 23.4798 24.3703C24.7278 24.2636 25.9224 24.0983 27.0638 23.8743C28.2051 23.6503 29.2344 23.357 30.1518 22.9943C31.0798 22.621 31.8264 22.157 32.3918 21.6023ZM26.6958 14.3703L28.5998 14.8343C27.9918 16.4556 27.1438 17.8583 26.0558 19.0423C24.9784 20.2156 23.7358 21.1596 22.3278 21.8743C22.2424 21.7463 22.1144 21.5863 21.9438 21.3943C21.7731 21.2023 21.5971 21.0156 21.4158 20.8343C21.2344 20.653 21.0691 20.5036 20.9198 20.3863C22.3064 19.8103 23.4958 19.0156 24.4878 18.0023C25.4798 16.9783 26.2158 15.7676 26.6958 14.3703ZM31.6238 16.4343C31.9438 16.957 32.3544 17.4636 32.8558 17.9543C33.3571 18.4343 33.9171 18.8716 34.5358 19.2663C35.1544 19.661 35.7784 19.9863 36.4078 20.2423C36.2798 20.349 36.1358 20.493 35.9758 20.6743C35.8158 20.8556 35.6611 21.0423 35.5118 21.2343C35.3731 21.4263 35.2558 21.597 35.1598 21.7463C34.4878 21.4156 33.8318 21.0103 33.1918 20.5303C32.5518 20.0503 31.9598 19.5116 31.4158 18.9143C30.8824 18.3063 30.4184 17.677 30.0238 17.0263L31.6238 16.4343ZM37.7838 11.8423H51.7518V14.5783H49.9278V13.2823H39.5278V14.5783H37.7838V11.8423ZM41.5438 13.5543H43.3198V18.0183H41.5438V13.5543ZM46.1838 13.5543H47.9758V18.0183H46.1838V13.5543ZM39.4158 14.1303H50.1358V15.1703H39.4158V14.1303ZM39.5918 15.8103H50.0238V16.7863H39.5918V15.8103ZM37.6878 17.4103H51.8638V18.7223H37.6878V17.4103ZM41.8478 17.7303L43.2398 18.2903C42.8664 18.7703 42.4131 19.229 41.8798 19.6663C41.3464 20.093 40.7651 20.477 40.1358 20.8183C39.5171 21.1596 38.8878 21.437 38.2478 21.6503C38.1304 21.437 37.9598 21.1916 37.7358 20.9143C37.5118 20.637 37.3038 20.413 37.1118 20.2423C37.7304 20.093 38.3384 19.8956 38.9358 19.6503C39.5438 19.3943 40.0984 19.101 40.5998 18.7703C41.1118 18.4396 41.5278 18.093 41.8478 17.7303ZM47.8478 17.6503C48.1678 17.9916 48.5678 18.317 49.0478 18.6263C49.5278 18.925 50.0558 19.1916 50.6318 19.4263C51.2078 19.6503 51.7944 19.8316 52.3918 19.9703C52.1998 20.141 51.9864 20.3756 51.7518 20.6743C51.5171 20.9623 51.3358 21.2183 51.2078 21.4423C50.5998 21.2503 49.9971 20.989 49.3998 20.6583C48.8131 20.3276 48.2691 19.949 47.7678 19.5223C47.2664 19.0956 46.8344 18.653 46.4718 18.1943L47.8478 17.6503ZM43.6078 11.1543L45.5278 10.6583C45.6664 10.8823 45.7998 11.1436 45.9278 11.4423C46.0664 11.7303 46.1571 11.981 46.1998 12.1943L44.1838 12.7543C44.1518 12.5516 44.0771 12.301 43.9598 12.0023C43.8531 11.693 43.7358 11.4103 43.6078 11.1543ZM40.0878 19.6183H49.7038V23.2823H47.8958V20.9943H41.8318V23.4263H40.0878V19.6183ZM43.9918 21.3463H45.8798C45.7198 22.0183 45.4798 22.605 45.1598 23.1063C44.8398 23.6076 44.3971 24.0343 43.8318 24.3863C43.2664 24.7383 42.5304 25.0316 41.6238 25.2663C40.7171 25.501 39.5811 25.693 38.2158 25.8423C38.1624 25.629 38.0611 25.3783 37.9118 25.0903C37.7731 24.813 37.6291 24.5836 37.4798 24.4023C38.6958 24.3063 39.6984 24.1836 40.4878 24.0343C41.2771 23.8743 41.9064 23.6716 42.3758 23.4263C42.8451 23.181 43.1971 22.893 43.4318 22.5623C43.6771 22.221 43.8638 21.8156 43.9918 21.3463ZM45.0158 23.8103L45.9758 22.6263C46.4558 22.7436 46.9784 22.8823 47.5438 23.0423C48.1091 23.1916 48.6744 23.357 49.2398 23.5383C49.8158 23.709 50.3544 23.885 50.8558 24.0663C51.3678 24.237 51.8051 24.4023 52.1678 24.5623L51.1278 25.9223C50.7864 25.7623 50.3704 25.5863 49.8798 25.3943C49.3891 25.2023 48.8664 25.0103 48.3118 24.8183C47.7571 24.6263 47.1918 24.445 46.6158 24.2743C46.0504 24.093 45.5171 23.9383 45.0158 23.8103ZM53.4958 13.4423H68.0078V15.2663H53.4958V13.4423ZM58.8398 17.3623H64.9678V19.1703H58.8398V17.3623ZM64.2478 17.3623H66.2318C66.2318 17.3623 66.2264 17.4156 66.2158 17.5223C66.2158 17.6183 66.2158 17.7303 66.2158 17.8583C66.2158 17.9863 66.2051 18.0983 66.1838 18.1943C66.0878 19.6556 65.9811 20.8503 65.8638 21.7783C65.7464 22.7063 65.6131 23.4316 65.4638 23.9543C65.3144 24.4663 65.1331 24.8396 64.9198 25.0743C64.6744 25.341 64.4184 25.5223 64.1518 25.6183C63.8851 25.7143 63.5651 25.7836 63.1918 25.8263C62.8824 25.8583 62.4771 25.869 61.9758 25.8583C61.4744 25.8583 60.9571 25.8476 60.4238 25.8263C60.4131 25.549 60.3438 25.229 60.2158 24.8663C60.0878 24.5143 59.9278 24.205 59.7358 23.9383C60.2904 23.9916 60.8238 24.0236 61.3358 24.0343C61.8478 24.045 62.2158 24.0503 62.4398 24.0503C62.6211 24.0503 62.7704 24.0396 62.8878 24.0183C63.0158 23.9863 63.1278 23.9276 63.2238 23.8423C63.3944 23.7036 63.5384 23.3996 63.6558 22.9303C63.7838 22.461 63.8958 21.7943 63.9918 20.9303C64.0878 20.0663 64.1731 18.973 64.2478 17.6503V17.3623ZM58.1198 14.5303H60.2638C60.2211 15.3836 60.1518 16.2476 60.0558 17.1223C59.9704 17.9863 59.8211 18.845 59.6078 19.6983C59.3944 20.541 59.0851 21.3463 58.6798 22.1143C58.2744 22.8823 57.7411 23.597 57.0798 24.2583C56.4184 24.9196 55.5811 25.5063 54.5678 26.0183C54.4291 25.7516 54.2264 25.4636 53.9598 25.1543C53.7038 24.845 53.4531 24.589 53.2078 24.3863C54.1358 23.9596 54.8931 23.4636 55.4798 22.8983C56.0771 22.3223 56.5464 21.7036 56.8878 21.0423C57.2291 20.3703 57.4798 19.6716 57.6398 18.9463C57.8104 18.221 57.9224 17.485 57.9758 16.7383C58.0398 15.9916 58.0878 15.2556 58.1198 14.5303ZM59.6558 10.8023H61.6558V14.1623H59.6558V10.8023ZM80.1678 11.9223L81.4318 10.8663C81.6771 11.0263 81.9331 11.213 82.1998 11.4263C82.4771 11.6396 82.7331 11.853 82.9678 12.0663C83.2131 12.2796 83.4104 12.4716 83.5598 12.6423L82.1998 13.8103C82.0718 13.6183 81.8904 13.4156 81.6558 13.2023C81.4318 12.9783 81.1864 12.7543 80.9198 12.5303C80.6638 12.3063 80.4131 12.1036 80.1678 11.9223ZM69.5598 13.6023H83.9598V15.4743H69.5598V13.6023ZM70.1678 17.2983H77.0958V19.1543H70.1678V17.2983ZM72.5838 18.3543H74.5038V23.7783H72.5838V18.3543ZM69.5598 23.5223C70.1998 23.4156 70.9518 23.293 71.8158 23.1543C72.6904 23.005 73.6131 22.845 74.5838 22.6743C75.5651 22.5036 76.5411 22.3276 77.5118 22.1463L77.6398 23.8583C76.7651 24.0503 75.8798 24.2423 74.9838 24.4343C74.0878 24.6156 73.2238 24.7916 72.3918 24.9623C71.5598 25.1436 70.7918 25.309 70.0878 25.4583L69.5598 23.5223ZM77.4318 10.9303H79.4958C79.4638 12.253 79.4798 13.5436 79.5438 14.8023C79.6184 16.061 79.7358 17.2396 79.8958 18.3383C80.0558 19.437 80.2478 20.4023 80.4718 21.2343C80.6958 22.0663 80.9411 22.717 81.2078 23.1863C81.4851 23.6556 81.7784 23.8903 82.0878 23.8903C82.2691 23.8903 82.4024 23.661 82.4878 23.2023C82.5838 22.7436 82.6531 22.0076 82.6958 20.9943C82.9198 21.2183 83.1864 21.437 83.4958 21.6503C83.8158 21.8636 84.1091 22.0183 84.3758 22.1143C84.2904 23.1276 84.1464 23.9116 83.9438 24.4663C83.7518 25.0103 83.4904 25.3836 83.1598 25.5863C82.8398 25.7996 82.4238 25.9063 81.9118 25.9063C81.3358 25.9063 80.8238 25.709 80.3758 25.3143C79.9278 24.9196 79.5384 24.3756 79.2078 23.6823C78.8771 22.9783 78.5998 22.1516 78.3758 21.2023C78.1518 20.253 77.9704 19.2236 77.8318 18.1143C77.6931 16.9943 77.5918 15.8263 77.5278 14.6103C77.4638 13.3943 77.4318 12.1676 77.4318 10.9303Z" fill="black"/>
<rect x="114.688" y="15" width="6.93645" height="20.1479" rx="3.46823" transform="rotate(19.1848 114.688 15)" fill="#E4FF1A"/>
<defs>
<linearGradient id="paint0_linear_2701_2739" x1="-4.73496" y1="5.59854" x2="113.223" y2="34.236" gradientUnits="userSpaceOnUse">
<stop stop-color="#F767C9"/>
<stop offset="1" stop-color="#E4FF1A"/>
</linearGradient>
</defs>
</svg>
