<svg width="224" height="36" viewBox="0 0 224 36" fill="none" xmlns="http://www.w3.org/2000/svg">
<path d="M0 12C0 5.37258 5.37258 0 12 0H215.301C218.54 0 220.436 3.64902 218.574 6.2995L198.902 34.2995C198.153 35.3655 196.932 36 195.629 36H0V12Z" fill="url(#paint0_linear_2701_2999)"/>
<path d="M21.6245 24.4663V12.8299H26.4313C27.3025 12.8299 28.0544 13.0004 28.687 13.3413C29.3233 13.6784 29.8139 14.15 30.1585 14.7561C30.5032 15.3584 30.6756 16.0591 30.6756 16.8584C30.6756 17.6614 30.4995 18.364 30.1472 18.9663C29.7987 19.5648 29.3006 20.0288 28.6529 20.3584C28.0051 20.6879 27.2362 20.8527 26.346 20.8527H23.3801V18.6368H25.8233C26.2476 18.6368 26.6017 18.5629 26.8858 18.4152C27.1737 18.2674 27.3915 18.061 27.5392 17.7959C27.687 17.5269 27.7608 17.2144 27.7608 16.8584C27.7608 16.4985 27.687 16.1879 27.5392 15.9265C27.3915 15.6614 27.1737 15.4568 26.8858 15.3129C26.5979 15.169 26.2438 15.097 25.8233 15.097H24.437V24.4663H21.6245ZM34.2097 24.614C33.6529 24.614 33.1585 24.5212 32.7267 24.3356C32.2987 24.1462 31.9597 23.8621 31.7097 23.4834C31.4635 23.1008 31.3404 22.6216 31.3404 22.0459C31.3404 21.561 31.4256 21.1519 31.596 20.8186C31.7665 20.4852 32.0014 20.2144 32.3006 20.0061C32.5998 19.7977 32.9445 19.6406 33.3347 19.5345C33.7248 19.4246 34.1415 19.3508 34.5847 19.3129C35.0809 19.2674 35.4805 19.2201 35.7835 19.1709C36.0866 19.1178 36.3063 19.044 36.4426 18.9493C36.5828 18.8508 36.6529 18.7125 36.6529 18.5345V18.5061C36.6529 18.2144 36.5525 17.989 36.3517 17.8299C36.151 17.6709 35.8801 17.5913 35.5392 17.5913C35.1718 17.5913 34.8764 17.6709 34.6529 17.8299C34.4294 17.989 34.2873 18.2087 34.2267 18.489L31.6642 18.3981C31.74 17.8678 31.9351 17.3943 32.2495 16.9777C32.5676 16.5572 33.0032 16.2277 33.5563 15.989C34.1131 15.7466 34.7817 15.6254 35.562 15.6254C36.1188 15.6254 36.632 15.6917 37.1017 15.8243C37.5714 15.9531 37.9805 16.1424 38.329 16.3924C38.6775 16.6387 38.9464 16.9417 39.1358 17.3015C39.329 17.6614 39.4256 18.0724 39.4256 18.5345V24.4663H36.812V23.2504H36.7438C36.5885 23.5459 36.3896 23.7959 36.1472 24.0004C35.9085 24.2049 35.6264 24.3584 35.3006 24.4606C34.9786 24.5629 34.615 24.614 34.2097 24.614ZM35.0676 22.7959C35.3669 22.7959 35.6358 22.7352 35.8745 22.614C36.1169 22.4928 36.3101 22.3262 36.454 22.114C36.5979 21.8981 36.6699 21.6481 36.6699 21.364V20.5345C36.5904 20.5762 36.4938 20.614 36.3801 20.6481C36.2703 20.6822 36.1491 20.7144 36.0165 20.7447C35.8839 20.775 35.7476 20.8015 35.6074 20.8243C35.4673 20.847 35.3328 20.8678 35.204 20.8868C34.9426 20.9284 34.7192 20.9928 34.5335 21.0799C34.3517 21.1671 34.2116 21.2807 34.1131 21.4209C34.0184 21.5572 33.971 21.7201 33.971 21.9095C33.971 22.1974 34.0733 22.4171 34.2779 22.5686C34.4862 22.7201 34.7495 22.7959 35.0676 22.7959ZM41.1245 24.4663V15.739H43.8233V17.3299H43.9142C44.0733 16.7542 44.3328 16.3262 44.6926 16.0459C45.0525 15.7618 45.471 15.6197 45.9483 15.6197C46.0771 15.6197 46.2097 15.6292 46.346 15.6481C46.4824 15.6633 46.6093 15.6879 46.7267 15.722V18.1368C46.5942 18.0913 46.4199 18.0553 46.204 18.0288C45.9919 18.0023 45.8025 17.989 45.6358 17.989C45.3063 17.989 45.0089 18.0629 44.7438 18.2106C44.4824 18.3546 44.276 18.5572 44.1245 18.8186C43.9767 19.0762 43.9029 19.3792 43.9029 19.7277V24.4663H41.1245ZM53.1912 15.739V17.7845H47.6855V15.739H53.1912ZM48.8389 13.6481H51.6174V21.722C51.6174 21.8924 51.6439 22.0307 51.6969 22.1368C51.7537 22.239 51.8352 22.3129 51.9412 22.3584C52.0473 22.4 52.1742 22.4209 52.3219 22.4209C52.428 22.4209 52.5397 22.4114 52.6571 22.3924C52.7783 22.3697 52.8692 22.3508 52.9299 22.3356L53.3503 24.3413C53.2177 24.3792 53.0302 24.4265 52.7878 24.4834C52.5492 24.5402 52.2632 24.5762 51.9299 24.5913C51.2783 24.6216 50.7196 24.5459 50.2537 24.364C49.7916 24.1784 49.4374 23.8906 49.1912 23.5004C48.9488 23.1102 48.8314 22.6197 48.8389 22.0288V13.6481ZM54.6088 24.4663V15.739H57.3872V24.4663H54.6088ZM56.0009 14.722C55.6107 14.722 55.2755 14.5932 54.9952 14.3356C54.7149 14.0743 54.5747 13.7599 54.5747 13.3924C54.5747 13.0288 54.7149 12.7182 54.9952 12.4606C55.2755 12.1993 55.6107 12.0686 56.0009 12.0686C56.3948 12.0686 56.73 12.1993 57.0066 12.4606C57.2869 12.7182 57.427 13.0288 57.427 13.3924C57.427 13.7599 57.2869 14.0743 57.0066 14.3356C56.73 14.5932 56.3948 14.722 56.0009 14.722ZM63.2296 24.6311C62.3091 24.6311 61.5193 24.4417 60.8603 24.0629C60.2049 23.6841 59.7012 23.1576 59.3489 22.4834C58.9966 21.8053 58.8205 21.0212 58.8205 20.1311C58.8205 19.2371 58.9966 18.4531 59.3489 17.7788C59.7049 17.1008 60.2106 16.5724 60.8659 16.1936C61.525 15.8148 62.311 15.6254 63.2239 15.6254C64.0307 15.6254 64.7334 15.7712 65.3318 16.0629C65.9341 16.3546 66.4038 16.7674 66.7409 17.3015C67.0818 17.8318 67.2618 18.4549 67.2807 19.1709H64.6841C64.6311 18.7239 64.4796 18.3735 64.2296 18.1197C63.9834 17.8659 63.6614 17.739 63.2637 17.739C62.9417 17.739 62.6595 17.8299 62.4171 18.0118C62.1746 18.1898 61.9853 18.4549 61.8489 18.8072C61.7163 19.1557 61.65 19.5875 61.65 20.1027C61.65 20.6178 61.7163 21.0534 61.8489 21.4095C61.9853 21.7618 62.1746 22.0288 62.4171 22.2106C62.6595 22.3887 62.9417 22.4777 63.2637 22.4777C63.5212 22.4777 63.7485 22.4227 63.9455 22.3129C64.1462 22.2031 64.311 22.0421 64.4398 21.8299C64.5686 21.614 64.65 21.3527 64.6841 21.0459H67.2807C67.2542 21.7656 67.0743 22.3943 66.7409 22.9322C66.4114 23.4701 65.9474 23.8887 65.3489 24.1879C64.7542 24.4834 64.0478 24.6311 63.2296 24.6311ZM68.7026 24.4663V15.739H71.481V24.4663H68.7026ZM70.0946 14.722C69.7045 14.722 69.3692 14.5932 69.0889 14.3356C68.8086 14.0743 68.6685 13.7599 68.6685 13.3924C68.6685 13.0288 68.8086 12.7182 69.0889 12.4606C69.3692 12.1993 69.7045 12.0686 70.0946 12.0686C70.4886 12.0686 70.8238 12.1993 71.1003 12.4606C71.3806 12.7182 71.5208 13.0288 71.5208 13.3924C71.5208 13.7599 71.3806 14.0743 71.1003 14.3356C70.8238 14.5932 70.4886 14.722 70.0946 14.722ZM73.2495 27.739V15.739H75.9995V17.2334H76.0847C76.1983 16.9682 76.3593 16.7125 76.5676 16.4663C76.7798 16.2201 77.0487 16.0193 77.3745 15.864C77.704 15.7049 78.0979 15.6254 78.5563 15.6254C79.1623 15.6254 79.7286 15.7845 80.2551 16.1027C80.7854 16.4209 81.2135 16.9114 81.5392 17.5743C81.865 18.2371 82.0279 19.0818 82.0279 20.1084C82.0279 21.097 81.8707 21.9246 81.5563 22.5913C81.2457 23.258 80.8252 23.758 80.2949 24.0913C79.7684 24.4246 79.1832 24.5913 78.5392 24.5913C78.0998 24.5913 77.7192 24.5193 77.3972 24.3754C77.0752 24.2315 76.8044 24.0421 76.5847 23.8072C76.3688 23.5724 76.2021 23.3205 76.0847 23.0515H76.0279V27.739H73.2495ZM75.971 20.1027C75.971 20.5724 76.0335 20.9815 76.1585 21.3299C76.2873 21.6784 76.471 21.9493 76.7097 22.1424C76.9521 22.3318 77.2419 22.4265 77.579 22.4265C77.9199 22.4265 78.2097 22.3318 78.4483 22.1424C78.687 21.9493 78.8669 21.6784 78.9881 21.3299C79.1131 20.9815 79.1756 20.5724 79.1756 20.1027C79.1756 19.633 79.1131 19.2258 78.9881 18.8811C78.8669 18.5364 78.687 18.2693 78.4483 18.0799C78.2135 17.8906 77.9237 17.7959 77.579 17.7959C77.2381 17.7959 76.9483 17.8887 76.7097 18.0743C76.471 18.2599 76.2873 18.525 76.1585 18.8697C76.0335 19.2144 75.971 19.6254 75.971 20.1027ZM85.9441 24.614C85.3872 24.614 84.8929 24.5212 84.4611 24.3356C84.0331 24.1462 83.6941 23.8621 83.4441 23.4834C83.1978 23.1008 83.0747 22.6216 83.0747 22.0459C83.0747 21.561 83.16 21.1519 83.3304 20.8186C83.5009 20.4852 83.7357 20.2144 84.035 20.0061C84.3342 19.7977 84.6789 19.6406 85.0691 19.5345C85.4592 19.4246 85.8759 19.3508 86.3191 19.3129C86.8153 19.2674 87.2149 19.2201 87.5179 19.1709C87.821 19.1178 88.0406 19.044 88.177 18.9493C88.3172 18.8508 88.3872 18.7125 88.3872 18.5345V18.5061C88.3872 18.2144 88.2869 17.989 88.0861 17.8299C87.8853 17.6709 87.6145 17.5913 87.2736 17.5913C86.9062 17.5913 86.6107 17.6709 86.3872 17.8299C86.1638 17.989 86.0217 18.2087 85.9611 18.489L83.3986 18.3981C83.4744 17.8678 83.6694 17.3943 83.9838 16.9777C84.302 16.5572 84.7376 16.2277 85.2906 15.989C85.8475 15.7466 86.516 15.6254 87.2963 15.6254C87.8531 15.6254 88.3664 15.6917 88.8361 15.8243C89.3058 15.9531 89.7149 16.1424 90.0634 16.3924C90.4119 16.6387 90.6808 16.9417 90.8702 17.3015C91.0634 17.6614 91.16 18.0724 91.16 18.5345V24.4663H88.5463V23.2504H88.4781C88.3228 23.5459 88.124 23.7959 87.8816 24.0004C87.6429 24.2049 87.3607 24.3584 87.035 24.4606C86.713 24.5629 86.3494 24.614 85.9441 24.614ZM86.802 22.7959C87.1013 22.7959 87.3702 22.7352 87.6088 22.614C87.8513 22.4928 88.0444 22.3262 88.1884 22.114C88.3323 21.8981 88.4043 21.6481 88.4043 21.364V20.5345C88.3247 20.5762 88.2281 20.614 88.1145 20.6481C88.0047 20.6822 87.8835 20.7144 87.7509 20.7447C87.6183 20.775 87.4819 20.8015 87.3418 20.8243C87.2016 20.847 87.0672 20.8678 86.9384 20.8868C86.677 20.9284 86.4535 20.9928 86.2679 21.0799C86.0861 21.1671 85.946 21.2807 85.8475 21.4209C85.7528 21.5572 85.7054 21.7201 85.7054 21.9095C85.7054 22.1974 85.8077 22.4171 86.0122 22.5686C86.2206 22.7201 86.4838 22.7959 86.802 22.7959ZM97.785 15.739V17.7845H92.2793V15.739H97.785ZM93.4327 13.6481H96.2111V21.722C96.2111 21.8924 96.2376 22.0307 96.2906 22.1368C96.3475 22.239 96.4289 22.3129 96.535 22.3584C96.641 22.4 96.7679 22.4209 96.9156 22.4209C97.0217 22.4209 97.1335 22.4114 97.2509 22.3924C97.3721 22.3697 97.463 22.3508 97.5236 22.3356L97.9441 24.3413C97.8115 24.3792 97.624 24.4265 97.3816 24.4834C97.1429 24.5402 96.8569 24.5762 96.5236 24.5913C95.8721 24.6216 95.3134 24.5459 94.8475 24.364C94.3853 24.1784 94.0312 23.8906 93.785 23.5004C93.5425 23.1102 93.4251 22.6197 93.4327 22.0288V13.6481ZM99.2026 24.4663V15.739H101.981V24.4663H99.2026ZM100.595 14.722C100.204 14.722 99.8692 14.5932 99.5889 14.3356C99.3086 14.0743 99.1685 13.7599 99.1685 13.3924C99.1685 13.0288 99.3086 12.7182 99.5889 12.4606C99.8692 12.1993 100.204 12.0686 100.595 12.0686C100.989 12.0686 101.324 12.1993 101.6 12.4606C101.881 12.7182 102.021 13.0288 102.021 13.3924C102.021 13.7599 101.881 14.0743 101.6 14.3356C101.324 14.5932 100.989 14.722 100.595 14.722ZM107.823 24.6311C106.907 24.6311 106.119 24.4436 105.46 24.0686C104.804 23.6898 104.299 23.1633 103.943 22.489C103.59 21.811 103.414 21.025 103.414 20.1311C103.414 19.2334 103.59 18.4474 103.943 17.7731C104.299 17.0951 104.804 16.5686 105.46 16.1936C106.119 15.8148 106.907 15.6254 107.823 15.6254C108.74 15.6254 109.526 15.8148 110.181 16.1936C110.84 16.5686 111.346 17.0951 111.698 17.7731C112.054 18.4474 112.232 19.2334 112.232 20.1311C112.232 21.025 112.054 21.811 111.698 22.489C111.346 23.1633 110.84 23.6898 110.181 24.0686C109.526 24.4436 108.74 24.6311 107.823 24.6311ZM107.84 22.5345C108.174 22.5345 108.456 22.4322 108.687 22.2277C108.918 22.0231 109.094 21.739 109.215 21.3754C109.34 21.0118 109.403 20.5913 109.403 20.114C109.403 19.6292 109.34 19.2049 109.215 18.8413C109.094 18.4777 108.918 18.1936 108.687 17.989C108.456 17.7845 108.174 17.6822 107.84 17.6822C107.496 17.6822 107.204 17.7845 106.965 17.989C106.731 18.1936 106.551 18.4777 106.426 18.8413C106.304 19.2049 106.244 19.6292 106.244 20.114C106.244 20.5913 106.304 21.0118 106.426 21.3754C106.551 21.739 106.731 22.0231 106.965 22.2277C107.204 22.4322 107.496 22.5345 107.84 22.5345ZM116.434 19.489V24.4663H113.656V15.739H116.298V17.3413H116.394C116.588 16.8072 116.917 16.3887 117.383 16.0856C117.849 15.7788 118.404 15.6254 119.048 15.6254C119.661 15.6254 120.194 15.7637 120.644 16.0402C121.099 16.3129 121.451 16.6955 121.701 17.1879C121.955 17.6765 122.08 18.2485 122.076 18.9038V24.4663H119.298V19.4493C119.302 18.9644 119.178 18.5856 118.928 18.3129C118.682 18.0402 118.339 17.9038 117.9 17.9038C117.608 17.9038 117.351 17.9682 117.127 18.097C116.908 18.222 116.737 18.4019 116.616 18.6368C116.499 18.8716 116.438 19.1557 116.434 19.489ZM127.234 12.8299H130.717L133.671 20.0345H133.808L136.762 12.8299H140.245V24.4663H137.507V17.3186H137.41L134.615 24.3924H132.865L130.069 17.2788H129.972V24.4663H127.234V12.8299ZM146.079 24.6311C145.166 24.6311 144.378 24.4512 143.715 24.0913C143.056 23.7277 142.549 23.2106 142.193 22.5402C141.84 21.8659 141.664 21.0648 141.664 20.1368C141.664 19.2352 141.842 18.4474 142.198 17.7731C142.554 17.0951 143.056 16.5686 143.704 16.1936C144.352 15.8148 145.115 15.6254 145.994 15.6254C146.615 15.6254 147.183 15.722 147.698 15.9152C148.213 16.1084 148.659 16.3943 149.034 16.7731C149.409 17.1519 149.7 17.6197 149.909 18.1765C150.117 18.7296 150.221 19.364 150.221 20.0799V20.7731H142.636V19.1595H147.636C147.632 18.864 147.562 18.6008 147.426 18.3697C147.289 18.1387 147.102 17.9587 146.863 17.8299C146.628 17.6974 146.357 17.6311 146.051 17.6311C145.74 17.6311 145.462 17.7012 145.215 17.8413C144.969 17.9777 144.774 18.1652 144.63 18.4038C144.486 18.6387 144.41 18.9057 144.403 19.2049V20.847C144.403 21.2031 144.473 21.5156 144.613 21.7845C144.753 22.0496 144.952 22.2561 145.21 22.4038C145.467 22.5515 145.774 22.6254 146.13 22.6254C146.376 22.6254 146.6 22.5913 146.801 22.5231C147.001 22.4549 147.174 22.3546 147.318 22.222C147.462 22.0894 147.57 21.9265 147.642 21.7334L150.193 21.8072C150.087 22.3792 149.854 22.8773 149.494 23.3015C149.138 23.722 148.67 24.0496 148.09 24.2845C147.511 24.5156 146.84 24.6311 146.079 24.6311ZM156.566 15.739V17.7845H151.061V15.739H156.566ZM152.214 13.6481H154.992V21.722C154.992 21.8924 155.019 22.0307 155.072 22.1368C155.129 22.239 155.21 22.3129 155.316 22.3584C155.422 22.4 155.549 22.4209 155.697 22.4209C155.803 22.4209 155.915 22.4114 156.032 22.3924C156.153 22.3697 156.244 22.3508 156.305 22.3356L156.725 24.3413C156.593 24.3792 156.405 24.4265 156.163 24.4834C155.924 24.5402 155.638 24.5762 155.305 24.5913C154.653 24.6216 154.095 24.5459 153.629 24.364C153.167 24.1784 152.812 23.8906 152.566 23.5004C152.324 23.1102 152.206 22.6197 152.214 22.0288V13.6481ZM160.95 19.489V24.4663H158.171V12.8299H160.859V17.3413H160.955C161.152 16.8034 161.474 16.383 161.921 16.0799C162.372 15.7769 162.923 15.6254 163.575 15.6254C164.188 15.6254 164.722 15.7618 165.177 16.0345C165.632 16.3034 165.984 16.6841 166.234 17.1765C166.488 17.669 166.613 18.2447 166.609 18.9038V24.4663H163.83V19.4493C163.834 18.9644 163.713 18.5856 163.467 18.3129C163.221 18.0402 162.874 17.9038 162.427 17.9038C162.135 17.9038 161.878 17.9682 161.654 18.097C161.435 18.222 161.262 18.4019 161.137 18.6368C161.016 18.8716 160.954 19.1557 160.95 19.489ZM172.417 24.6311C171.5 24.6311 170.713 24.4436 170.053 24.0686C169.398 23.6898 168.892 23.1633 168.536 22.489C168.184 21.811 168.008 21.025 168.008 20.1311C168.008 19.2334 168.184 18.4474 168.536 17.7731C168.892 17.0951 169.398 16.5686 170.053 16.1936C170.713 15.8148 171.5 15.6254 172.417 15.6254C173.334 15.6254 174.12 15.8148 174.775 16.1936C175.434 16.5686 175.94 17.0951 176.292 17.7731C176.648 18.4474 176.826 19.2334 176.826 20.1311C176.826 21.025 176.648 21.811 176.292 22.489C175.94 23.1633 175.434 23.6898 174.775 24.0686C174.12 24.4436 173.334 24.6311 172.417 24.6311ZM172.434 22.5345C172.767 22.5345 173.05 22.4322 173.281 22.2277C173.512 22.0231 173.688 21.739 173.809 21.3754C173.934 21.0118 173.997 20.5913 173.997 20.114C173.997 19.6292 173.934 19.2049 173.809 18.8413C173.688 18.4777 173.512 18.1936 173.281 17.989C173.05 17.7845 172.767 17.6822 172.434 17.6822C172.089 17.6822 171.798 17.7845 171.559 17.989C171.324 18.1936 171.144 18.4777 171.019 18.8413C170.898 19.2049 170.838 19.6292 170.838 20.114C170.838 20.5913 170.898 21.0118 171.019 21.3754C171.144 21.739 171.324 22.0231 171.559 22.2277C171.798 22.4322 172.089 22.5345 172.434 22.5345ZM181.437 24.5913C180.793 24.5913 180.208 24.4246 179.681 24.0913C179.155 23.758 178.734 23.258 178.42 22.5913C178.106 21.9246 177.948 21.097 177.948 20.1084C177.948 19.0818 178.111 18.2371 178.437 17.5743C178.763 16.9114 179.189 16.4209 179.715 16.1027C180.246 15.7845 180.816 15.6254 181.426 15.6254C181.884 15.6254 182.276 15.7049 182.602 15.864C182.927 16.0193 183.196 16.2201 183.409 16.4663C183.621 16.7125 183.782 16.9682 183.892 17.2334H183.948V12.8299H186.727V24.4663H183.977V23.0515H183.892C183.774 23.3205 183.607 23.5724 183.392 23.8072C183.176 24.0421 182.905 24.2315 182.579 24.3754C182.257 24.5193 181.876 24.5913 181.437 24.5913ZM182.403 22.4265C182.74 22.4265 183.028 22.3318 183.267 22.1424C183.505 21.9493 183.689 21.6784 183.818 21.3299C183.946 20.9815 184.011 20.5724 184.011 20.1027C184.011 19.6254 183.946 19.2144 183.818 18.8697C183.693 18.525 183.509 18.2599 183.267 18.0743C183.028 17.8887 182.74 17.7959 182.403 17.7959C182.058 17.7959 181.767 17.8906 181.528 18.0799C181.289 18.2693 181.107 18.5364 180.982 18.8811C180.861 19.2258 180.801 19.633 180.801 20.1027C180.801 20.5724 180.863 20.9815 180.988 21.3299C181.113 21.6784 181.293 21.9493 181.528 22.1424C181.767 22.3318 182.058 22.4265 182.403 22.4265Z" fill="black"/>
<rect x="218.072" y="15" width="6.93645" height="20.1479" rx="3.46823" transform="rotate(32.1204 218.072 15)" fill="#E4FF1A"/>
<defs>
<linearGradient id="paint0_linear_2701_2999" x1="-9.26224" y1="5.59854" x2="190.113" y2="100.283" gradientUnits="userSpaceOnUse">
<stop stop-color="#F767C9"/>
<stop offset="1" stop-color="#E4FF1A"/>
</linearGradient>
</defs>
</svg>
