<svg width="122" height="37" viewBox="0 0 122 37" fill="none" xmlns="http://www.w3.org/2000/svg">
<path d="M0 12C0 5.37258 5.37258 0 12 0H108.313C111.082 0 113.014 2.74593 112.078 5.35209L102.021 33.3521C101.451 34.9406 99.9445 36 98.2566 36H0V12Z" fill="url(#paint0_linear_2701_2740)"/>
<path d="M26.1998 10.8663L28.3438 11.4103C27.9598 11.9543 27.5544 12.5036 27.1278 13.0583C26.7118 13.6023 26.3278 14.0663 25.9758 14.4503L24.4078 13.9063C24.6318 13.629 24.8558 13.3143 25.0798 12.9623C25.3038 12.6103 25.5118 12.253 25.7038 11.8903C25.9064 11.517 26.0718 11.1756 26.1998 10.8663ZM30.2158 12.2903L31.7358 11.4263C32.1731 11.7463 32.6371 12.109 33.1278 12.5143C33.6184 12.909 34.0824 13.309 34.5198 13.7143C34.9678 14.1196 35.3304 14.493 35.6078 14.8343L33.9438 15.8263C33.6984 15.485 33.3678 15.1116 32.9518 14.7063C32.5358 14.2903 32.0878 13.869 31.6078 13.4423C31.1278 13.0156 30.6638 12.6316 30.2158 12.2903ZM22.0398 13.4583C22.7651 13.437 23.5811 13.4156 24.4878 13.3943C25.4051 13.373 26.3704 13.3516 27.3838 13.3303C28.4078 13.2983 29.4531 13.2663 30.5198 13.2343C31.5864 13.2023 32.6424 13.1703 33.6878 13.1383L33.6078 14.7223C32.2638 14.7756 30.9038 14.8343 29.5278 14.8983C28.1518 14.9516 26.8398 14.9996 25.5918 15.0423C24.3438 15.085 23.2291 15.117 22.2478 15.1383L22.0398 13.4583ZM21.4958 16.0343H36.0718V17.6503H21.4958V16.0343ZM28.9998 18.1463L30.4878 18.8663C30.0718 19.1543 29.5971 19.421 29.0638 19.6663C28.5304 19.901 27.9758 20.109 27.3998 20.2903C26.8344 20.4716 26.2904 20.621 25.7678 20.7383C25.6504 20.5676 25.4904 20.3756 25.2878 20.1623C25.0958 19.949 24.9038 19.7676 24.7118 19.6183C25.1918 19.5223 25.7038 19.3996 26.2478 19.2503C26.7918 19.101 27.3038 18.9303 27.7838 18.7383C28.2744 18.5463 28.6798 18.349 28.9998 18.1463ZM30.4718 19.9063L31.9918 20.6423C31.4691 21.0583 30.8558 21.4316 30.1518 21.7623C29.4584 22.093 28.7171 22.381 27.9278 22.6263C27.1491 22.8716 26.3651 23.0796 25.5758 23.2503C25.4691 23.0476 25.3198 22.8183 25.1278 22.5623C24.9464 22.2956 24.7598 22.0716 24.5678 21.8903C25.2718 21.773 25.9971 21.6183 26.7438 21.4263C27.5011 21.2343 28.2051 21.0103 28.8558 20.7543C29.5064 20.4983 30.0451 20.2156 30.4718 19.9063ZM32.3918 21.6023L34.0718 22.3703C33.3891 23.0743 32.5464 23.661 31.5438 24.1303C30.5518 24.5996 29.4478 24.9783 28.2318 25.2663C27.0158 25.5543 25.7251 25.7783 24.3598 25.9383C24.2744 25.693 24.1518 25.421 23.9918 25.1223C23.8318 24.8343 23.6611 24.5836 23.4798 24.3703C24.7278 24.2636 25.9224 24.0983 27.0638 23.8743C28.2051 23.6503 29.2344 23.357 30.1518 22.9943C31.0798 22.621 31.8264 22.157 32.3918 21.6023ZM26.6958 14.3703L28.5998 14.8343C27.9918 16.4556 27.1438 17.8583 26.0558 19.0423C24.9784 20.2156 23.7358 21.1596 22.3278 21.8743C22.2424 21.7463 22.1144 21.5863 21.9438 21.3943C21.7731 21.2023 21.5971 21.0156 21.4158 20.8343C21.2344 20.653 21.0691 20.5036 20.9198 20.3863C22.3064 19.8103 23.4958 19.0156 24.4878 18.0023C25.4798 16.9783 26.2158 15.7676 26.6958 14.3703ZM31.6238 16.4343C31.9438 16.957 32.3544 17.4636 32.8558 17.9543C33.3571 18.4343 33.9171 18.8716 34.5358 19.2663C35.1544 19.661 35.7784 19.9863 36.4078 20.2423C36.2798 20.349 36.1358 20.493 35.9758 20.6743C35.8158 20.8556 35.6611 21.0423 35.5118 21.2343C35.3731 21.4263 35.2558 21.597 35.1598 21.7463C34.4878 21.4156 33.8318 21.0103 33.1918 20.5303C32.5518 20.0503 31.9598 19.5116 31.4158 18.9143C30.8824 18.3063 30.4184 17.677 30.0238 17.0263L31.6238 16.4343ZM37.7838 11.8423H51.7518V14.5783H49.9278V13.2823H39.5278V14.5783H37.7838V11.8423ZM41.5438 13.5543H43.3198V18.0183H41.5438V13.5543ZM46.1838 13.5543H47.9758V18.0183H46.1838V13.5543ZM39.4158 14.1303H50.1358V15.1703H39.4158V14.1303ZM39.5918 15.8103H50.0238V16.7863H39.5918V15.8103ZM37.6878 17.4103H51.8638V18.7223H37.6878V17.4103ZM41.8478 17.7303L43.2398 18.2903C42.8664 18.7703 42.4131 19.229 41.8798 19.6663C41.3464 20.093 40.7651 20.477 40.1358 20.8183C39.5171 21.1596 38.8878 21.437 38.2478 21.6503C38.1304 21.437 37.9598 21.1916 37.7358 20.9143C37.5118 20.637 37.3038 20.413 37.1118 20.2423C37.7304 20.093 38.3384 19.8956 38.9358 19.6503C39.5438 19.3943 40.0984 19.101 40.5998 18.7703C41.1118 18.4396 41.5278 18.093 41.8478 17.7303ZM47.8478 17.6503C48.1678 17.9916 48.5678 18.317 49.0478 18.6263C49.5278 18.925 50.0558 19.1916 50.6318 19.4263C51.2078 19.6503 51.7944 19.8316 52.3918 19.9703C52.1998 20.141 51.9864 20.3756 51.7518 20.6743C51.5171 20.9623 51.3358 21.2183 51.2078 21.4423C50.5998 21.2503 49.9971 20.989 49.3998 20.6583C48.8131 20.3276 48.2691 19.949 47.7678 19.5223C47.2664 19.0956 46.8344 18.653 46.4718 18.1943L47.8478 17.6503ZM43.6078 11.1543L45.5278 10.6583C45.6664 10.8823 45.7998 11.1436 45.9278 11.4423C46.0664 11.7303 46.1571 11.981 46.1998 12.1943L44.1838 12.7543C44.1518 12.5516 44.0771 12.301 43.9598 12.0023C43.8531 11.693 43.7358 11.4103 43.6078 11.1543ZM40.0878 19.6183H49.7038V23.2823H47.8958V20.9943H41.8318V23.4263H40.0878V19.6183ZM43.9918 21.3463H45.8798C45.7198 22.0183 45.4798 22.605 45.1598 23.1063C44.8398 23.6076 44.3971 24.0343 43.8318 24.3863C43.2664 24.7383 42.5304 25.0316 41.6238 25.2663C40.7171 25.501 39.5811 25.693 38.2158 25.8423C38.1624 25.629 38.0611 25.3783 37.9118 25.0903C37.7731 24.813 37.6291 24.5836 37.4798 24.4023C38.6958 24.3063 39.6984 24.1836 40.4878 24.0343C41.2771 23.8743 41.9064 23.6716 42.3758 23.4263C42.8451 23.181 43.1971 22.893 43.4318 22.5623C43.6771 22.221 43.8638 21.8156 43.9918 21.3463ZM45.0158 23.8103L45.9758 22.6263C46.4558 22.7436 46.9784 22.8823 47.5438 23.0423C48.1091 23.1916 48.6744 23.357 49.2398 23.5383C49.8158 23.709 50.3544 23.885 50.8558 24.0663C51.3678 24.237 51.8051 24.4023 52.1678 24.5623L51.1278 25.9223C50.7864 25.7623 50.3704 25.5863 49.8798 25.3943C49.3891 25.2023 48.8664 25.0103 48.3118 24.8183C47.7571 24.6263 47.1918 24.445 46.6158 24.2743C46.0504 24.093 45.5171 23.9383 45.0158 23.8103ZM53.6238 13.3303H59.4478V15.1063H53.6238V13.3303ZM53.3038 17.0423H59.6398V18.8663H53.3038V17.0423ZM55.6878 11.0263H57.5118V16.1303C57.5118 16.877 57.4798 17.6716 57.4158 18.5143C57.3518 19.357 57.2184 20.2103 57.0158 21.0743C56.8131 21.9383 56.5091 22.7703 56.1038 23.5703C55.7091 24.3703 55.1758 25.0956 54.5038 25.7463C54.4184 25.6183 54.2958 25.469 54.1358 25.2983C53.9758 25.1276 53.8104 24.9623 53.6398 24.8023C53.4691 24.6423 53.3038 24.5143 53.1438 24.4183C53.7411 23.885 54.2104 23.2716 54.5518 22.5783C54.9038 21.8743 55.1598 21.1436 55.3198 20.3863C55.4798 19.629 55.5811 18.8876 55.6238 18.1623C55.6664 17.4263 55.6878 16.749 55.6878 16.1303V11.0263ZM57.2398 19.0423C57.3464 19.1383 57.4958 19.293 57.6878 19.5063C57.8798 19.709 58.0824 19.9383 58.2958 20.1943C58.5198 20.4503 58.7438 20.7063 58.9678 20.9623C59.1918 21.2183 59.3891 21.4476 59.5598 21.6503C59.7304 21.853 59.8584 22.0076 59.9438 22.1143L58.6318 23.4903C58.4824 23.245 58.2958 22.9623 58.0718 22.6423C57.8584 22.3223 57.6238 21.9916 57.3678 21.6503C57.1224 21.309 56.8824 20.989 56.6478 20.6903C56.4238 20.3916 56.2264 20.141 56.0558 19.9383L57.2398 19.0423ZM60.1678 11.5863H67.5918V20.1143H65.6878V13.2503H61.9918V20.1143H60.1678V11.5863ZM63.3998 19.6183H65.0798V23.5543C65.0798 23.757 65.1171 23.8956 65.1918 23.9703C65.2664 24.045 65.3784 24.0823 65.5278 24.0823H66.2638C66.4024 24.0823 66.5091 24.0236 66.5838 23.9063C66.6584 23.7783 66.7118 23.5383 66.7438 23.1863C66.7758 22.8343 66.8024 22.333 66.8238 21.6823C67.0264 21.8423 67.2664 21.9863 67.5438 22.1143C67.8318 22.2316 68.0878 22.317 68.3118 22.3703C68.2584 23.181 68.1731 23.821 68.0558 24.2903C67.9384 24.749 67.7464 25.069 67.4798 25.2503C67.2131 25.4423 66.8131 25.5383 66.2798 25.5383H65.1758C64.5464 25.5383 64.0931 25.4156 63.8158 25.1703C63.5384 24.925 63.3998 24.4556 63.3998 23.7623V19.6183ZM62.9678 14.2423H64.7438V16.7863C64.7438 17.501 64.6744 18.269 64.5358 19.0903C64.4078 19.901 64.1624 20.7223 63.7998 21.5543C63.4371 22.3756 62.9198 23.1596 62.2478 23.9063C61.5758 24.6423 60.7011 25.2983 59.6238 25.8743C59.5491 25.7463 59.4371 25.5916 59.2878 25.4103C59.1491 25.2396 58.9998 25.069 58.8398 24.8983C58.6798 24.7276 58.5358 24.5996 58.4078 24.5143C59.4424 23.981 60.2638 23.3943 60.8718 22.7543C61.4798 22.1143 61.9331 21.453 62.2318 20.7703C62.5304 20.077 62.7278 19.389 62.8238 18.7063C62.9198 18.013 62.9678 17.3623 62.9678 16.7543V14.2423ZM73.6558 22.8023L74.8078 21.6183C75.1278 21.8636 75.4798 22.1463 75.8638 22.4663C76.2584 22.7863 76.6318 23.101 76.9838 23.4103C77.3464 23.709 77.6398 23.981 77.8638 24.2263L76.6638 25.5863C76.4504 25.3303 76.1678 25.037 75.8158 24.7063C75.4744 24.3863 75.1118 24.0556 74.7278 23.7143C74.3438 23.373 73.9864 23.069 73.6558 22.8023ZM69.9278 11.6183H77.3998V21.4263H75.5438V13.3303H71.7038V21.5063H69.9278V11.6183ZM81.6558 11.0743H83.5598V23.4743C83.5598 24.0396 83.4958 24.4663 83.3678 24.7543C83.2398 25.053 83.0104 25.2876 82.6798 25.4583C82.3384 25.6076 81.9011 25.7036 81.3678 25.7463C80.8344 25.7996 80.1998 25.8263 79.4638 25.8263C79.4424 25.6343 79.3944 25.4156 79.3198 25.1703C79.2451 24.9356 79.1651 24.701 79.0798 24.4663C78.9944 24.221 78.8984 24.0076 78.7918 23.8263C79.3251 23.8476 79.8211 23.8636 80.2798 23.8743C80.7491 23.8743 81.0638 23.8743 81.2238 23.8743C81.3731 23.8636 81.4798 23.8316 81.5438 23.7783C81.6184 23.7143 81.6558 23.6076 81.6558 23.4583V11.0743ZM78.6638 12.3383H80.4558V22.2103H78.6638V12.3383ZM72.6798 14.2583H74.4878V18.9303C74.4878 19.5383 74.4344 20.1676 74.3278 20.8183C74.2318 21.469 74.0344 22.109 73.7358 22.7383C73.4371 23.3676 73.0104 23.9543 72.4558 24.4983C71.9011 25.053 71.1704 25.5276 70.2638 25.9223C70.2104 25.7836 70.1144 25.6183 69.9758 25.4263C69.8371 25.2343 69.6878 25.0476 69.5278 24.8663C69.3784 24.6956 69.2451 24.5623 69.1278 24.4663C69.9384 24.1036 70.5784 23.7036 71.0478 23.2663C71.5278 22.829 71.8798 22.3703 72.1038 21.8903C72.3384 21.4103 72.4931 20.9143 72.5678 20.4023C72.6424 19.8903 72.6798 19.3836 72.6798 18.8823V14.2583Z" fill="black"/>
<rect x="114.688" y="15" width="6.93645" height="20.1479" rx="3.46823" transform="rotate(19.1848 114.688 15)" fill="#E4FF1A"/>
<defs>
<linearGradient id="paint0_linear_2701_2740" x1="-4.73496" y1="5.59854" x2="113.223" y2="34.236" gradientUnits="userSpaceOnUse">
<stop stop-color="#F767C9"/>
<stop offset="1" stop-color="#E4FF1A"/>
</linearGradient>
</defs>
</svg>
