<svg width="206" height="36" viewBox="0 0 206 36" fill="none" xmlns="http://www.w3.org/2000/svg">
<path d="M0 12C0 5.37258 5.37258 0 12 0H195.694C198.854 0 200.766 3.49268 199.063 6.15517L181.156 34.1552C180.421 35.3046 179.15 36 177.786 36H0V12Z" fill="url(#paint0_linear_2701_3006)"/>
<path d="M32.187 17.0459H29.346C29.3082 16.7542 29.2305 16.4909 29.1131 16.2561C28.9957 16.0212 28.8404 15.8205 28.6472 15.6538C28.454 15.4871 28.2248 15.3602 27.9597 15.2731C27.6983 15.1822 27.4085 15.1368 27.0904 15.1368C26.526 15.1368 26.0392 15.275 25.6301 15.5515C25.2248 15.8281 24.9123 16.2277 24.6926 16.7504C24.4767 17.2731 24.3688 17.9057 24.3688 18.6481C24.3688 19.4209 24.4786 20.0686 24.6983 20.5913C24.9218 21.1102 25.2343 21.5023 25.6358 21.7674C26.0411 22.0288 26.5203 22.1595 27.0733 22.1595C27.3839 22.1595 27.6661 22.1197 27.9199 22.0402C28.1775 21.9606 28.4029 21.8451 28.596 21.6936C28.793 21.5383 28.954 21.3508 29.079 21.1311C29.2078 20.9076 29.2968 20.6557 29.346 20.3754L32.187 20.3924C32.1377 20.9076 31.9881 21.4152 31.7381 21.9152C31.4919 22.4152 31.1529 22.8716 30.721 23.2845C30.2892 23.6936 29.7627 24.0193 29.1415 24.2618C28.5241 24.5042 27.8157 24.6254 27.0165 24.6254C25.9635 24.6254 25.0203 24.3943 24.187 23.9322C23.3574 23.4663 22.7021 22.7883 22.221 21.8981C21.74 21.008 21.4995 19.9246 21.4995 18.6481C21.4995 17.3678 21.7438 16.2826 22.2324 15.3924C22.721 14.5023 23.382 13.8262 24.2154 13.364C25.0487 12.9019 25.9824 12.6709 27.0165 12.6709C27.721 12.6709 28.3726 12.7693 28.971 12.9663C29.5695 13.1595 30.096 13.4436 30.5506 13.8186C31.0051 14.1898 31.3745 14.6462 31.6585 15.1879C31.9426 15.7296 32.1188 16.3489 32.187 17.0459ZM37.8702 24.6311C36.9535 24.6311 36.1656 24.4436 35.5066 24.0686C34.8513 23.6898 34.3456 23.1633 33.9895 22.489C33.6372 21.811 33.4611 21.025 33.4611 20.1311C33.4611 19.2334 33.6372 18.4474 33.9895 17.7731C34.3456 17.0951 34.8513 16.5686 35.5066 16.1936C36.1656 15.8148 36.9535 15.6254 37.8702 15.6254C38.7869 15.6254 39.5728 15.8148 40.2281 16.1936C40.8872 16.5686 41.3929 17.0951 41.7452 17.7731C42.1013 18.4474 42.2793 19.2334 42.2793 20.1311C42.2793 21.025 42.1013 21.811 41.7452 22.489C41.3929 23.1633 40.8872 23.6898 40.2281 24.0686C39.5728 24.4436 38.7869 24.6311 37.8702 24.6311ZM37.8872 22.5345C38.2206 22.5345 38.5028 22.4322 38.7338 22.2277C38.9649 22.0231 39.141 21.739 39.2622 21.3754C39.3872 21.0118 39.4497 20.5913 39.4497 20.114C39.4497 19.6292 39.3872 19.2049 39.2622 18.8413C39.141 18.4777 38.9649 18.1936 38.7338 17.989C38.5028 17.7845 38.2206 17.6822 37.8872 17.6822C37.5425 17.6822 37.2509 17.7845 37.0122 17.989C36.7774 18.1936 36.5975 18.4777 36.4725 18.8413C36.3513 19.2049 36.2906 19.6292 36.2906 20.114C36.2906 20.5913 36.3513 21.0118 36.4725 21.3754C36.5975 21.739 36.7774 22.0231 37.0122 22.2277C37.2509 22.4322 37.5425 22.5345 37.8872 22.5345ZM43.7026 24.4663V15.739H46.3446V17.3413H46.4412C46.623 16.811 46.9299 16.3924 47.3617 16.0856C47.7935 15.7788 48.3086 15.6254 48.9071 15.6254C49.5132 15.6254 50.0321 15.7807 50.4639 16.0913C50.8958 16.4019 51.1704 16.8186 51.2878 17.3413H51.3787C51.5416 16.8224 51.8598 16.4076 52.3333 16.097C52.8067 15.7826 53.3655 15.6254 54.0094 15.6254C54.8352 15.6254 55.5056 15.8906 56.0208 16.4209C56.5359 16.9474 56.7935 17.6709 56.7935 18.5913V24.4663H54.0151V19.2277C54.0151 18.7921 53.9033 18.4606 53.6799 18.2334C53.4564 18.0023 53.1666 17.8868 52.8105 17.8868C52.428 17.8868 52.1268 18.0118 51.9071 18.2618C51.6912 18.508 51.5833 18.8394 51.5833 19.2561V24.4663H48.9128V19.1993C48.9128 18.794 48.803 18.4739 48.5833 18.239C48.3636 18.0042 48.0738 17.8868 47.7139 17.8868C47.4715 17.8868 47.2575 17.9455 47.0719 18.0629C46.8863 18.1765 46.7405 18.3394 46.6344 18.5515C46.5321 18.7637 46.481 19.0137 46.481 19.3015V24.4663H43.7026ZM58.5151 27.739V15.739H61.2651V17.2334H61.3503C61.4639 16.9682 61.6249 16.7125 61.8333 16.4663C62.0454 16.2201 62.3143 16.0193 62.6401 15.864C62.9696 15.7049 63.3636 15.6254 63.8219 15.6254C64.428 15.6254 64.9942 15.7845 65.5208 16.1027C66.0511 16.4209 66.4791 16.9114 66.8049 17.5743C67.1306 18.2371 67.2935 19.0818 67.2935 20.1084C67.2935 21.097 67.1363 21.9246 66.8219 22.5913C66.5113 23.258 66.0908 23.758 65.5605 24.0913C65.034 24.4246 64.4488 24.5913 63.8049 24.5913C63.3655 24.5913 62.9848 24.5193 62.6628 24.3754C62.3408 24.2315 62.07 24.0421 61.8503 23.8072C61.6344 23.5724 61.4677 23.3205 61.3503 23.0515H61.2935V27.739H58.5151ZM61.2367 20.1027C61.2367 20.5724 61.2992 20.9815 61.4242 21.3299C61.553 21.6784 61.7367 21.9493 61.9753 22.1424C62.2177 22.3318 62.5075 22.4265 62.8446 22.4265C63.1855 22.4265 63.4753 22.3318 63.7139 22.1424C63.9526 21.9493 64.1325 21.6784 64.2537 21.3299C64.3787 20.9815 64.4412 20.5724 64.4412 20.1027C64.4412 19.633 64.3787 19.2258 64.2537 18.8811C64.1325 18.5364 63.9526 18.2693 63.7139 18.0799C63.4791 17.8906 63.1893 17.7959 62.8446 17.7959C62.5037 17.7959 62.2139 17.8887 61.9753 18.0743C61.7367 18.2599 61.553 18.525 61.4242 18.8697C61.2992 19.2144 61.2367 19.6254 61.2367 20.1027ZM72.829 24.6311C71.9161 24.6311 71.1282 24.4512 70.4654 24.0913C69.8063 23.7277 69.2987 23.2106 68.9426 22.5402C68.5904 21.8659 68.4142 21.0648 68.4142 20.1368C68.4142 19.2352 68.5923 18.4474 68.9483 17.7731C69.3044 17.0951 69.8063 16.5686 70.454 16.1936C71.1017 15.8148 71.865 15.6254 72.7438 15.6254C73.365 15.6254 73.9332 15.722 74.4483 15.9152C74.9635 16.1084 75.4085 16.3943 75.7835 16.7731C76.1585 17.1519 76.4502 17.6197 76.6585 18.1765C76.8669 18.7296 76.971 19.364 76.971 20.0799V20.7731H69.3858V19.1595H74.3858C74.382 18.864 74.312 18.6008 74.1756 18.3697C74.0392 18.1387 73.8517 17.9587 73.6131 17.8299C73.3782 17.6974 73.1074 17.6311 72.8006 17.6311C72.49 17.6311 72.2116 17.7012 71.9654 17.8413C71.7192 17.9777 71.5241 18.1652 71.3801 18.4038C71.2362 18.6387 71.1604 18.9057 71.1529 19.2049V20.847C71.1529 21.2031 71.2229 21.5156 71.3631 21.7845C71.5032 22.0496 71.7021 22.2561 71.9597 22.4038C72.2173 22.5515 72.5241 22.6254 72.8801 22.6254C73.1264 22.6254 73.3498 22.5913 73.5506 22.5231C73.7514 22.4549 73.9237 22.3546 74.0676 22.222C74.2116 22.0894 74.3195 21.9265 74.3915 21.7334L76.9426 21.8072C76.8366 22.3792 76.6036 22.8773 76.2438 23.3015C75.8877 23.722 75.4199 24.0496 74.8404 24.2845C74.2608 24.5156 73.5904 24.6311 72.829 24.6311ZM83.3162 15.739V17.7845H77.8105V15.739H83.3162ZM78.9639 13.6481H81.7424V21.722C81.7424 21.8924 81.7689 22.0307 81.8219 22.1368C81.8787 22.239 81.9602 22.3129 82.0662 22.3584C82.1723 22.4 82.2992 22.4209 82.4469 22.4209C82.553 22.4209 82.6647 22.4114 82.7821 22.3924C82.9033 22.3697 82.9942 22.3508 83.0549 22.3356L83.4753 24.3413C83.3427 24.3792 83.1552 24.4265 82.9128 24.4834C82.6742 24.5402 82.3882 24.5762 82.0549 24.5913C81.4033 24.6216 80.8446 24.5459 80.3787 24.364C79.9166 24.1784 79.5624 23.8906 79.3162 23.5004C79.0738 23.1102 78.9564 22.6197 78.9639 22.0288V13.6481ZM84.7338 24.4663V15.739H87.5122V24.4663H84.7338ZM86.1259 14.722C85.7357 14.722 85.4005 14.5932 85.1202 14.3356C84.8399 14.0743 84.6997 13.7599 84.6997 13.3924C84.6997 13.0288 84.8399 12.7182 85.1202 12.4606C85.4005 12.1993 85.7357 12.0686 86.1259 12.0686C86.5198 12.0686 86.855 12.1993 87.1316 12.4606C87.4119 12.7182 87.552 13.0288 87.552 13.3924C87.552 13.7599 87.4119 14.0743 87.1316 14.3356C86.855 14.5932 86.5198 14.722 86.1259 14.722ZM94.2068 15.739V17.7845H88.7012V15.739H94.2068ZM89.8546 13.6481H92.633V21.722C92.633 21.8924 92.6595 22.0307 92.7125 22.1368C92.7693 22.239 92.8508 22.3129 92.9568 22.3584C93.0629 22.4 93.1898 22.4209 93.3375 22.4209C93.4436 22.4209 93.5553 22.4114 93.6728 22.3924C93.794 22.3697 93.8849 22.3508 93.9455 22.3356L94.3659 24.3413C94.2334 24.3792 94.0459 24.4265 93.8034 24.4834C93.5648 24.5402 93.2788 24.5762 92.9455 24.5913C92.294 24.6216 91.7353 24.5459 91.2693 24.364C90.8072 24.1784 90.4531 23.8906 90.2068 23.5004C89.9644 23.1102 89.847 22.6197 89.8546 22.0288V13.6481ZM95.6245 24.4663V15.739H98.4029V24.4663H95.6245ZM97.0165 14.722C96.6264 14.722 96.2911 14.5932 96.0108 14.3356C95.7305 14.0743 95.5904 13.7599 95.5904 13.3924C95.5904 13.0288 95.7305 12.7182 96.0108 12.4606C96.2911 12.1993 96.6264 12.0686 97.0165 12.0686C97.4104 12.0686 97.7457 12.1993 98.0222 12.4606C98.3025 12.7182 98.4426 13.0288 98.4426 13.3924C98.4426 13.7599 98.3025 14.0743 98.0222 14.3356C97.7457 14.5932 97.4104 14.722 97.0165 14.722ZM104.245 24.6311C103.329 24.6311 102.541 24.4436 101.882 24.0686C101.226 23.6898 100.721 23.1633 100.365 22.489C100.012 21.811 99.8361 21.025 99.8361 20.1311C99.8361 19.2334 100.012 18.4474 100.365 17.7731C100.721 17.0951 101.226 16.5686 101.882 16.1936C102.541 15.8148 103.329 15.6254 104.245 15.6254C105.162 15.6254 105.948 15.8148 106.603 16.1936C107.262 16.5686 107.768 17.0951 108.12 17.7731C108.476 18.4474 108.654 19.2334 108.654 20.1311C108.654 21.025 108.476 21.811 108.12 22.489C107.768 23.1633 107.262 23.6898 106.603 24.0686C105.948 24.4436 105.162 24.6311 104.245 24.6311ZM104.262 22.5345C104.596 22.5345 104.878 22.4322 105.109 22.2277C105.34 22.0231 105.516 21.739 105.637 21.3754C105.762 21.0118 105.825 20.5913 105.825 20.114C105.825 19.6292 105.762 19.2049 105.637 18.8413C105.516 18.4777 105.34 18.1936 105.109 17.989C104.878 17.7845 104.596 17.6822 104.262 17.6822C103.918 17.6822 103.626 17.7845 103.387 17.989C103.152 18.1936 102.972 18.4777 102.847 18.8413C102.726 19.2049 102.666 19.6292 102.666 20.114C102.666 20.5913 102.726 21.0118 102.847 21.3754C102.972 21.739 103.152 22.0231 103.387 22.2277C103.626 22.4322 103.918 22.5345 104.262 22.5345ZM112.856 19.489V24.4663H110.078V15.739H112.72V17.3413H112.816C113.009 16.8072 113.339 16.3887 113.805 16.0856C114.271 15.7788 114.826 15.6254 115.47 15.6254C116.083 15.6254 116.615 15.7637 117.066 16.0402C117.521 16.3129 117.873 16.6955 118.123 17.1879C118.377 17.6765 118.502 18.2485 118.498 18.9038V24.4663H115.72V19.4493C115.723 18.9644 115.6 18.5856 115.35 18.3129C115.104 18.0402 114.761 17.9038 114.322 17.9038C114.03 17.9038 113.773 17.9682 113.549 18.097C113.329 18.222 113.159 18.4019 113.038 18.6368C112.92 18.8716 112.86 19.1557 112.856 19.489ZM123.656 24.4663V12.8299H128.463C129.334 12.8299 130.086 12.9871 130.718 13.3015C131.355 13.6121 131.845 14.0591 132.19 14.6424C132.534 15.222 132.707 15.9095 132.707 16.7049C132.707 17.5118 132.531 18.1974 132.178 18.7618C131.826 19.3224 131.326 19.7504 130.678 20.0459C130.031 20.3375 129.264 20.4834 128.377 20.4834H125.338V18.2674H127.855C128.279 18.2674 128.633 18.2125 128.917 18.1027C129.205 17.989 129.423 17.8186 129.57 17.5913C129.718 17.3602 129.792 17.0648 129.792 16.7049C129.792 16.3451 129.718 16.0477 129.57 15.8129C129.423 15.5743 129.205 15.3962 128.917 15.2788C128.629 15.1576 128.275 15.097 127.855 15.097H126.468V24.4663H123.656ZM130.207 19.1481L133.105 24.4663H130.036L127.195 19.1481H130.207ZM139.88 20.6993V15.739H142.653V24.4663H140.005V22.8413H139.914C139.721 23.3754 139.392 23.7996 138.926 24.114C138.463 24.4246 137.905 24.5799 137.249 24.5799C136.655 24.5799 136.132 24.4436 135.681 24.1709C135.231 23.8981 134.88 23.5174 134.63 23.0288C134.38 22.5364 134.253 21.9606 134.249 21.3015V15.739H137.028V20.7561C137.032 21.2296 137.157 21.6027 137.403 21.8754C137.649 22.1481 137.984 22.2845 138.409 22.2845C138.685 22.2845 138.933 22.2239 139.153 22.1027C139.376 21.9777 139.552 21.7977 139.681 21.5629C139.814 21.3243 139.88 21.0364 139.88 20.6993ZM147.2 12.8299V24.4663H144.421V12.8299H147.2ZM153.048 24.6311C152.135 24.6311 151.347 24.4512 150.684 24.0913C150.025 23.7277 149.517 23.2106 149.161 22.5402C148.809 21.8659 148.633 21.0648 148.633 20.1368C148.633 19.2352 148.811 18.4474 149.167 17.7731C149.523 17.0951 150.025 16.5686 150.673 16.1936C151.32 15.8148 152.084 15.6254 152.963 15.6254C153.584 15.6254 154.152 15.722 154.667 15.9152C155.182 16.1084 155.627 16.3943 156.002 16.7731C156.377 17.1519 156.669 17.6197 156.877 18.1765C157.086 18.7296 157.19 19.364 157.19 20.0799V20.7731H149.605V19.1595H154.605C154.601 18.864 154.531 18.6008 154.394 18.3697C154.258 18.1387 154.07 17.9587 153.832 17.8299C153.597 17.6974 153.326 17.6311 153.019 17.6311C152.709 17.6311 152.43 17.7012 152.184 17.8413C151.938 17.9777 151.743 18.1652 151.599 18.4038C151.455 18.6387 151.379 18.9057 151.372 19.2049V20.847C151.372 21.2031 151.442 21.5156 151.582 21.7845C151.722 22.0496 151.921 22.2561 152.178 22.4038C152.436 22.5515 152.743 22.6254 153.099 22.6254C153.345 22.6254 153.569 22.5913 153.769 22.5231C153.97 22.4549 154.142 22.3546 154.286 22.222C154.43 22.0894 154.538 21.9265 154.61 21.7334L157.161 21.8072C157.055 22.3792 156.822 22.8773 156.463 23.3015C156.106 23.722 155.639 24.0496 155.059 24.2845C154.48 24.5156 153.809 24.6311 153.048 24.6311ZM166.228 18.4038L163.677 18.472C163.65 18.2902 163.579 18.1292 163.461 17.989C163.344 17.8451 163.19 17.7334 163.001 17.6538C162.815 17.5705 162.599 17.5288 162.353 17.5288C162.031 17.5288 161.757 17.5932 161.529 17.722C161.306 17.8508 161.196 18.025 161.2 18.2447C161.196 18.4152 161.264 18.5629 161.404 18.6879C161.548 18.8129 161.804 18.9133 162.171 18.989L163.853 19.3072C164.724 19.4739 165.372 19.7504 165.796 20.1368C166.224 20.5231 166.44 21.0345 166.444 21.6709C166.44 22.2693 166.262 22.7902 165.91 23.2334C165.561 23.6765 165.084 24.0212 164.478 24.2674C163.872 24.5099 163.179 24.6311 162.399 24.6311C161.152 24.6311 160.169 24.3754 159.45 23.864C158.734 23.3489 158.325 22.6595 158.222 21.7959L160.967 21.7277C161.027 22.0459 161.185 22.2883 161.438 22.4549C161.692 22.6216 162.016 22.7049 162.41 22.7049C162.766 22.7049 163.056 22.6387 163.279 22.5061C163.503 22.3735 163.616 22.1974 163.62 21.9777C163.616 21.7807 163.529 21.6235 163.359 21.5061C163.188 21.3849 162.921 21.2902 162.558 21.222L161.035 20.9322C160.16 20.7731 159.508 20.4796 159.08 20.0515C158.652 19.6197 158.44 19.0705 158.444 18.4038C158.44 17.8205 158.596 17.3224 158.91 16.9095C159.224 16.4928 159.671 16.1746 160.251 15.9549C160.83 15.7352 161.514 15.6254 162.302 15.6254C163.484 15.6254 164.416 15.8735 165.097 16.3697C165.779 16.8621 166.156 17.5402 166.228 18.4038Z" fill="black"/>
<rect x="199.891" y="15" width="6.93645" height="20.1479" rx="3.46823" transform="rotate(31.1197 199.891 15)" fill="#E4FF1A"/>
<defs>
<linearGradient id="paint0_linear_2701_3006" x1="-8.43154" y1="5.59854" x2="178.971" y2="86.6156" gradientUnits="userSpaceOnUse">
<stop stop-color="#F767C9"/>
<stop offset="1" stop-color="#E4FF1A"/>
</linearGradient>
</defs>
</svg>
