<svg width="122" height="37" viewBox="0 0 122 37" fill="none" xmlns="http://www.w3.org/2000/svg">
<path d="M0 12C0 5.37258 5.37258 0 12 0H108.313C111.082 0 113.014 2.74593 112.078 5.35209L102.021 33.3521C101.451 34.9406 99.9445 36 98.2566 36H0V12Z" fill="url(#paint0_linear_2701_2741)"/>
<path d="M28.8238 10.8663H30.5358V17.6503C30.5358 18.4503 30.4984 19.2396 30.4238 20.0183C30.3598 20.7863 30.2211 21.5276 30.0078 22.2423C29.7944 22.9463 29.4798 23.6076 29.0638 24.2263C28.6478 24.845 28.0878 25.405 27.3838 25.9063C27.2878 25.7783 27.1544 25.6343 26.9838 25.4743C26.8238 25.3143 26.6584 25.1543 26.4878 24.9943C26.3171 24.845 26.1571 24.7223 26.0078 24.6263C26.6371 24.1996 27.1384 23.725 27.5118 23.2023C27.8851 22.6796 28.1624 22.1196 28.3438 21.5223C28.5358 20.925 28.6638 20.301 28.7278 19.6503C28.7918 18.9996 28.8238 18.333 28.8238 17.6503V10.8663ZM31.6558 10.8663H33.4638V25.8903H31.6558V10.8663ZM26.4558 13.4903H29.5598V15.2183H26.4558V13.4903ZM32.5998 13.4903H35.9918V15.2183H32.5998V13.4903ZM32.7278 16.8663H35.7998V18.5463H32.7278V16.8663ZM32.5838 20.3063H36.2478V22.0503H32.5838V20.3063ZM26.5838 16.8663H29.6238V18.5463H26.5838V16.8663ZM25.6078 20.9943C26.0558 20.877 26.5838 20.7276 27.1918 20.5463C27.7998 20.3543 28.4238 20.157 29.0638 19.9543L29.3518 21.4583C28.8398 21.661 28.3224 21.869 27.7998 22.0823C27.2878 22.285 26.7971 22.477 26.3278 22.6583L25.6078 20.9943ZM21.0798 18.9143C21.7198 18.7756 22.4824 18.589 23.3678 18.3543C24.2638 18.1196 25.1651 17.8743 26.0718 17.6183L26.3118 19.3463C25.4904 19.5916 24.6584 19.837 23.8158 20.0823C22.9838 20.3276 22.2104 20.5516 21.4958 20.7543L21.0798 18.9143ZM21.3358 13.9063H26.2318V15.6663H21.3358V13.9063ZM23.0158 10.8823H24.7758V23.8743C24.7758 24.3116 24.7278 24.6583 24.6318 24.9143C24.5464 25.181 24.3811 25.389 24.1358 25.5383C23.9011 25.6876 23.6024 25.789 23.2398 25.8423C22.8878 25.8956 22.4451 25.917 21.9118 25.9063C21.8904 25.6716 21.8318 25.3783 21.7358 25.0263C21.6398 24.685 21.5331 24.3863 21.4158 24.1303C21.7144 24.141 21.9864 24.1516 22.2318 24.1623C22.4878 24.1623 22.6638 24.157 22.7598 24.1463C22.8558 24.1463 22.9198 24.1303 22.9518 24.0983C22.9944 24.0556 23.0158 23.981 23.0158 23.8743V10.8823ZM42.8558 23.5223H50.0078V25.2663H42.8558V23.5223ZM42.0398 12.4503H47.7198V14.1463H42.0398V12.4503ZM42.4718 10.7863L44.6318 11.2023C44.1731 11.981 43.6451 12.7383 43.0478 13.4743C42.4611 14.1996 41.7891 14.8983 41.0318 15.5703C40.2851 16.2316 39.4318 16.845 38.4718 17.4103C38.3758 17.2503 38.2478 17.0796 38.0878 16.8983C37.9278 16.7063 37.7624 16.5196 37.5918 16.3383C37.4211 16.157 37.2611 16.013 37.1118 15.9063C37.9971 15.437 38.7811 14.9196 39.4638 14.3543C40.1571 13.789 40.7544 13.2023 41.2558 12.5943C41.7571 11.9756 42.1624 11.373 42.4718 10.7863ZM47.1118 12.4503H47.4638L47.7838 12.3543L49.1118 13.0423C48.6424 14.2903 48.0344 15.4316 47.2878 16.4663C46.5518 17.4903 45.7038 18.413 44.7438 19.2343C43.7944 20.0556 42.7651 20.7703 41.6558 21.3783C40.5464 21.9863 39.3944 22.493 38.1998 22.8983C38.1251 22.717 38.0238 22.5196 37.8958 22.3063C37.7678 22.093 37.6344 21.885 37.4958 21.6823C37.3571 21.4796 37.2184 21.309 37.0798 21.1703C38.1891 20.861 39.2611 20.4396 40.2958 19.9063C41.3411 19.3623 42.3064 18.7276 43.1918 18.0023C44.0878 17.277 44.8718 16.477 45.5438 15.6023C46.2158 14.717 46.7384 13.773 47.1118 12.7703V12.4503ZM39.9438 15.9543L41.3838 14.7223C41.7571 14.9783 42.1464 15.2663 42.5518 15.5863C42.9678 15.9063 43.3571 16.2316 43.7198 16.5623C44.0931 16.8823 44.3971 17.1863 44.6318 17.4743L43.0798 18.8503C42.8771 18.573 42.5998 18.2636 42.2478 17.9223C41.8958 17.5703 41.5171 17.2236 41.1118 16.8823C40.7064 16.541 40.3171 16.2316 39.9438 15.9543ZM49.1278 18.6583H51.1118V25.9063H49.1278V18.6583ZM43.6718 18.6583H50.0878V20.3863H43.6718V25.8903H41.7358V20.0663L43.2078 18.6583H43.6718ZM53.6238 13.3303H59.4478V15.1063H53.6238V13.3303ZM53.3038 17.0423H59.6398V18.8663H53.3038V17.0423ZM55.6878 11.0263H57.5118V16.1303C57.5118 16.877 57.4798 17.6716 57.4158 18.5143C57.3518 19.357 57.2184 20.2103 57.0158 21.0743C56.8131 21.9383 56.5091 22.7703 56.1038 23.5703C55.7091 24.3703 55.1758 25.0956 54.5038 25.7463C54.4184 25.6183 54.2958 25.469 54.1358 25.2983C53.9758 25.1276 53.8104 24.9623 53.6398 24.8023C53.4691 24.6423 53.3038 24.5143 53.1438 24.4183C53.7411 23.885 54.2104 23.2716 54.5518 22.5783C54.9038 21.8743 55.1598 21.1436 55.3198 20.3863C55.4798 19.629 55.5811 18.8876 55.6238 18.1623C55.6664 17.4263 55.6878 16.749 55.6878 16.1303V11.0263ZM57.2398 19.0423C57.3464 19.1383 57.4958 19.293 57.6878 19.5063C57.8798 19.709 58.0824 19.9383 58.2958 20.1943C58.5198 20.4503 58.7438 20.7063 58.9678 20.9623C59.1918 21.2183 59.3891 21.4476 59.5598 21.6503C59.7304 21.853 59.8584 22.0076 59.9438 22.1143L58.6318 23.4903C58.4824 23.245 58.2958 22.9623 58.0718 22.6423C57.8584 22.3223 57.6238 21.9916 57.3678 21.6503C57.1224 21.309 56.8824 20.989 56.6478 20.6903C56.4238 20.3916 56.2264 20.141 56.0558 19.9383L57.2398 19.0423ZM60.1678 11.5863H67.5918V20.1143H65.6878V13.2503H61.9918V20.1143H60.1678V11.5863ZM63.3998 19.6183H65.0798V23.5543C65.0798 23.757 65.1171 23.8956 65.1918 23.9703C65.2664 24.045 65.3784 24.0823 65.5278 24.0823H66.2638C66.4024 24.0823 66.5091 24.0236 66.5838 23.9063C66.6584 23.7783 66.7118 23.5383 66.7438 23.1863C66.7758 22.8343 66.8024 22.333 66.8238 21.6823C67.0264 21.8423 67.2664 21.9863 67.5438 22.1143C67.8318 22.2316 68.0878 22.317 68.3118 22.3703C68.2584 23.181 68.1731 23.821 68.0558 24.2903C67.9384 24.749 67.7464 25.069 67.4798 25.2503C67.2131 25.4423 66.8131 25.5383 66.2798 25.5383H65.1758C64.5464 25.5383 64.0931 25.4156 63.8158 25.1703C63.5384 24.925 63.3998 24.4556 63.3998 23.7623V19.6183ZM62.9678 14.2423H64.7438V16.7863C64.7438 17.501 64.6744 18.269 64.5358 19.0903C64.4078 19.901 64.1624 20.7223 63.7998 21.5543C63.4371 22.3756 62.9198 23.1596 62.2478 23.9063C61.5758 24.6423 60.7011 25.2983 59.6238 25.8743C59.5491 25.7463 59.4371 25.5916 59.2878 25.4103C59.1491 25.2396 58.9998 25.069 58.8398 24.8983C58.6798 24.7276 58.5358 24.5996 58.4078 24.5143C59.4424 23.981 60.2638 23.3943 60.8718 22.7543C61.4798 22.1143 61.9331 21.453 62.2318 20.7703C62.5304 20.077 62.7278 19.389 62.8238 18.7063C62.9198 18.013 62.9678 17.3623 62.9678 16.7543V14.2423ZM73.6558 22.8023L74.8078 21.6183C75.1278 21.8636 75.4798 22.1463 75.8638 22.4663C76.2584 22.7863 76.6318 23.101 76.9838 23.4103C77.3464 23.709 77.6398 23.981 77.8638 24.2263L76.6638 25.5863C76.4504 25.3303 76.1678 25.037 75.8158 24.7063C75.4744 24.3863 75.1118 24.0556 74.7278 23.7143C74.3438 23.373 73.9864 23.069 73.6558 22.8023ZM69.9278 11.6183H77.3998V21.4263H75.5438V13.3303H71.7038V21.5063H69.9278V11.6183ZM81.6558 11.0743H83.5598V23.4743C83.5598 24.0396 83.4958 24.4663 83.3678 24.7543C83.2398 25.053 83.0104 25.2876 82.6798 25.4583C82.3384 25.6076 81.9011 25.7036 81.3678 25.7463C80.8344 25.7996 80.1998 25.8263 79.4638 25.8263C79.4424 25.6343 79.3944 25.4156 79.3198 25.1703C79.2451 24.9356 79.1651 24.701 79.0798 24.4663C78.9944 24.221 78.8984 24.0076 78.7918 23.8263C79.3251 23.8476 79.8211 23.8636 80.2798 23.8743C80.7491 23.8743 81.0638 23.8743 81.2238 23.8743C81.3731 23.8636 81.4798 23.8316 81.5438 23.7783C81.6184 23.7143 81.6558 23.6076 81.6558 23.4583V11.0743ZM78.6638 12.3383H80.4558V22.2103H78.6638V12.3383ZM72.6798 14.2583H74.4878V18.9303C74.4878 19.5383 74.4344 20.1676 74.3278 20.8183C74.2318 21.469 74.0344 22.109 73.7358 22.7383C73.4371 23.3676 73.0104 23.9543 72.4558 24.4983C71.9011 25.053 71.1704 25.5276 70.2638 25.9223C70.2104 25.7836 70.1144 25.6183 69.9758 25.4263C69.8371 25.2343 69.6878 25.0476 69.5278 24.8663C69.3784 24.6956 69.2451 24.5623 69.1278 24.4663C69.9384 24.1036 70.5784 23.7036 71.0478 23.2663C71.5278 22.829 71.8798 22.3703 72.1038 21.8903C72.3384 21.4103 72.4931 20.9143 72.5678 20.4023C72.6424 19.8903 72.6798 19.3836 72.6798 18.8823V14.2583Z" fill="black"/>
<rect x="114.688" y="15" width="6.93645" height="20.1479" rx="3.46823" transform="rotate(19.1848 114.688 15)" fill="#E4FF1A"/>
<defs>
<linearGradient id="paint0_linear_2701_2741" x1="-4.73496" y1="5.59854" x2="113.223" y2="34.236" gradientUnits="userSpaceOnUse">
<stop stop-color="#F767C9"/>
<stop offset="1" stop-color="#E4FF1A"/>
</linearGradient>
</defs>
</svg>
