<svg width="171" height="37" viewBox="0 0 171 37" fill="none" xmlns="http://www.w3.org/2000/svg">
<path d="M0 12C0 5.37258 5.37258 0 12 0H157.431C160.428 0 162.36 3.17378 160.985 5.83615L146.517 33.8361C145.83 35.1652 144.46 36 142.964 36H0V12Z" fill="url(#paint0_linear_2701_3013)"/>
<path d="M21.6245 24.4663V12.8299H26.4313C27.3025 12.8299 28.0544 12.9871 28.687 13.3015C29.3233 13.6121 29.8139 14.0591 30.1585 14.6424C30.5032 15.222 30.6756 15.9095 30.6756 16.7049C30.6756 17.5118 30.4995 18.1974 30.1472 18.7618C29.7949 19.3224 29.2949 19.7504 28.6472 20.0459C27.9995 20.3375 27.2324 20.4834 26.346 20.4834H23.3063V18.2674H25.8233C26.2476 18.2674 26.6017 18.2125 26.8858 18.1027C27.1737 17.989 27.3915 17.8186 27.5392 17.5913C27.687 17.3602 27.7608 17.0648 27.7608 16.7049C27.7608 16.3451 27.687 16.0477 27.5392 15.8129C27.3915 15.5743 27.1737 15.3962 26.8858 15.2788C26.5979 15.1576 26.2438 15.097 25.8233 15.097H24.437V24.4663H21.6245ZM28.1756 19.1481L31.0733 24.4663H28.0051L25.1642 19.1481H28.1756ZM34.6784 24.614C34.1216 24.614 33.6273 24.5212 33.1955 24.3356C32.7674 24.1462 32.4284 23.8621 32.1784 23.4834C31.9322 23.1008 31.8091 22.6216 31.8091 22.0459C31.8091 21.561 31.8943 21.1519 32.0648 20.8186C32.2353 20.4852 32.4701 20.2144 32.7693 20.0061C33.0686 19.7977 33.4133 19.6406 33.8034 19.5345C34.1936 19.4246 34.6103 19.3508 35.0534 19.3129C35.5496 19.2674 35.9493 19.2201 36.2523 19.1709C36.5553 19.1178 36.775 19.044 36.9114 18.9493C37.0515 18.8508 37.1216 18.7125 37.1216 18.5345V18.5061C37.1216 18.2144 37.0212 17.989 36.8205 17.8299C36.6197 17.6709 36.3489 17.5913 36.008 17.5913C35.6406 17.5913 35.3451 17.6709 35.1216 17.8299C34.8981 17.989 34.7561 18.2087 34.6955 18.489L32.133 18.3981C32.2087 17.8678 32.4038 17.3943 32.7182 16.9777C33.0364 16.5572 33.472 16.2277 34.025 15.989C34.5818 15.7466 35.2504 15.6254 36.0307 15.6254C36.5875 15.6254 37.1008 15.6917 37.5705 15.8243C38.0402 15.9531 38.4493 16.1424 38.7978 16.3924C39.1462 16.6387 39.4152 16.9417 39.6046 17.3015C39.7978 17.6614 39.8943 18.0724 39.8943 18.5345V24.4663H37.2807V23.2504H37.2125C37.0572 23.5459 36.8584 23.7959 36.6159 24.0004C36.3773 24.2049 36.0951 24.3584 35.7693 24.4606C35.4474 24.5629 35.0837 24.614 34.6784 24.614ZM35.5364 22.7959C35.8356 22.7959 36.1046 22.7352 36.3432 22.614C36.5856 22.4928 36.7788 22.3262 36.9228 22.114C37.0667 21.8981 37.1387 21.6481 37.1387 21.364V20.5345C37.0591 20.5762 36.9625 20.614 36.8489 20.6481C36.739 20.6822 36.6178 20.7144 36.4853 20.7447C36.3527 20.775 36.2163 20.8015 36.0762 20.8243C35.936 20.847 35.8015 20.8678 35.6728 20.8868C35.4114 20.9284 35.1879 20.9928 35.0023 21.0799C34.8205 21.1671 34.6803 21.2807 34.5818 21.4209C34.4871 21.5572 34.4398 21.7201 34.4398 21.9095C34.4398 22.1974 34.5421 22.4171 34.7466 22.5686C34.9549 22.7201 35.2182 22.7959 35.5364 22.7959ZM44.3716 19.489V24.4663H41.5932V15.739H44.2353V17.3413H44.3318C44.525 16.8072 44.8546 16.3887 45.3205 16.0856C45.7864 15.7788 46.3413 15.6254 46.9853 15.6254C47.5989 15.6254 48.1311 15.7637 48.5818 16.0402C49.0364 16.3129 49.3887 16.6955 49.6387 17.1879C49.8924 17.6765 50.0174 18.2485 50.0137 18.9038V24.4663H47.2353V19.4493C47.239 18.9644 47.1159 18.5856 46.8659 18.3129C46.6197 18.0402 46.2769 17.9038 45.8375 17.9038C45.5459 17.9038 45.2883 17.9682 45.0648 18.097C44.8451 18.222 44.6746 18.4019 44.5534 18.6368C44.436 18.8716 44.3754 19.1557 44.3716 19.489ZM54.2395 22.1765L54.2509 18.864H54.6372L57.0918 15.739H60.2395L56.5918 20.2163H55.8588L54.2395 22.1765ZM51.7338 24.4663V12.8299H54.5122V24.4663H51.7338ZM57.1543 24.4663L54.8702 20.8413L56.6997 18.8697L60.3645 24.4663H57.1543ZM61.2338 24.4663V15.739H64.0122V24.4663H61.2338ZM62.6259 14.722C62.2357 14.722 61.9005 14.5932 61.6202 14.3356C61.3399 14.0743 61.1997 13.7599 61.1997 13.3924C61.1997 13.0288 61.3399 12.7182 61.6202 12.4606C61.9005 12.1993 62.2357 12.0686 62.6259 12.0686C63.0198 12.0686 63.355 12.1993 63.6316 12.4606C63.9119 12.7182 64.052 13.0288 64.052 13.3924C64.052 13.7599 63.9119 14.0743 63.6316 14.3356C63.355 14.5932 63.0198 14.722 62.6259 14.722ZM68.5591 19.489V24.4663H65.7807V15.739H68.4228V17.3413H68.5193C68.7125 16.8072 69.0421 16.3887 69.508 16.0856C69.9739 15.7788 70.5288 15.6254 71.1728 15.6254C71.7864 15.6254 72.3186 15.7637 72.7693 16.0402C73.2239 16.3129 73.5762 16.6955 73.8262 17.1879C74.0799 17.6765 74.2049 18.2485 74.2012 18.9038V24.4663H71.4228V19.4493C71.4265 18.9644 71.3034 18.5856 71.0534 18.3129C70.8072 18.0402 70.4644 17.9038 70.025 17.9038C69.7334 17.9038 69.4758 17.9682 69.2523 18.097C69.0326 18.222 68.8621 18.4019 68.7409 18.6368C68.6235 18.8716 68.5629 19.1557 68.5591 19.489ZM79.9895 27.9209C79.16 27.9209 78.4497 27.8053 77.8588 27.5743C77.2679 27.3432 76.8039 27.0269 76.4668 26.6254C76.1297 26.2239 75.927 25.7693 75.8588 25.2618L78.4895 25.114C78.5388 25.2921 78.6297 25.4474 78.7622 25.5799C78.8986 25.7125 79.0747 25.8148 79.2906 25.8868C79.5103 25.9587 79.7679 25.9947 80.0634 25.9947C80.5293 25.9947 80.9138 25.8811 81.2168 25.6538C81.5236 25.4303 81.677 25.0383 81.677 24.4777V22.9436H81.5804C81.4706 23.2125 81.3039 23.4531 81.0804 23.6652C80.8569 23.8773 80.5785 24.044 80.2452 24.1652C79.9156 24.2864 79.5369 24.347 79.1088 24.347C78.4725 24.347 77.8891 24.1993 77.3588 23.9038C76.8323 23.6046 76.41 23.1424 76.0918 22.5174C75.7774 21.8887 75.6202 21.0799 75.6202 20.0913C75.6202 19.0724 75.7831 18.2334 76.1088 17.5743C76.4346 16.9114 76.8607 16.4209 77.3872 16.1027C77.9175 15.7845 78.4876 15.6254 79.0975 15.6254C79.5558 15.6254 79.9478 15.7049 80.2736 15.864C80.6031 16.0193 80.874 16.2201 81.0861 16.4663C81.2982 16.7125 81.4592 16.9682 81.5691 17.2334H81.6486V15.739H84.4156V24.5004C84.4156 25.239 84.23 25.8621 83.8588 26.3697C83.4876 26.8773 82.9687 27.2618 82.302 27.5231C81.6353 27.7883 80.8645 27.9209 79.9895 27.9209ZM80.0747 22.3243C80.4119 22.3243 80.6997 22.2352 80.9384 22.0572C81.177 21.8792 81.3607 21.6235 81.4895 21.2902C81.6183 20.9568 81.6827 20.5572 81.6827 20.0913C81.6827 19.6178 81.6183 19.2106 81.4895 18.8697C81.3645 18.525 81.1808 18.2599 80.9384 18.0743C80.6997 17.8887 80.4119 17.7959 80.0747 17.7959C79.73 17.7959 79.4384 17.8906 79.1997 18.0799C78.9611 18.2693 78.7793 18.5364 78.6543 18.8811C78.5331 19.222 78.4725 19.6254 78.4725 20.0913C78.4725 20.5572 78.535 20.9568 78.66 21.2902C78.785 21.6235 78.9649 21.8792 79.1997 22.0572C79.4384 22.2352 79.73 22.3243 80.0747 22.3243ZM89.6245 24.4663V12.8299H94.4313C95.3025 12.8299 96.0544 12.9871 96.687 13.3015C97.3233 13.6121 97.8139 14.0591 98.1585 14.6424C98.5032 15.222 98.6756 15.9095 98.6756 16.7049C98.6756 17.5118 98.4995 18.1974 98.1472 18.7618C97.7949 19.3224 97.2949 19.7504 96.6472 20.0459C95.9995 20.3375 95.2324 20.4834 94.346 20.4834H91.3063V18.2674H93.8233C94.2476 18.2674 94.6017 18.2125 94.8858 18.1027C95.1737 17.989 95.3915 17.8186 95.5392 17.5913C95.687 17.3602 95.7608 17.0648 95.7608 16.7049C95.7608 16.3451 95.687 16.0477 95.5392 15.8129C95.3915 15.5743 95.1737 15.3962 94.8858 15.2788C94.5979 15.1576 94.2438 15.097 93.8233 15.097H92.437V24.4663H89.6245ZM96.1756 19.1481L99.0733 24.4663H96.0051L93.1642 19.1481H96.1756ZM105.849 20.6993V15.739H108.622V24.4663H105.974V22.8413H105.883C105.69 23.3754 105.36 23.7996 104.894 24.114C104.432 24.4246 103.874 24.5799 103.218 24.5799C102.624 24.5799 102.101 24.4436 101.65 24.1709C101.199 23.8981 100.849 23.5174 100.599 23.0288C100.349 22.5364 100.222 21.9606 100.218 21.3015V15.739H102.997V20.7561C103 21.2296 103.125 21.6027 103.372 21.8754C103.618 22.1481 103.953 22.2845 104.377 22.2845C104.654 22.2845 104.902 22.2239 105.122 22.1027C105.345 21.9777 105.521 21.7977 105.65 21.5629C105.783 21.3243 105.849 21.0364 105.849 20.6993ZM113.168 12.8299V24.4663H110.39V12.8299H113.168ZM119.017 24.6311C118.104 24.6311 117.316 24.4512 116.653 24.0913C115.994 23.7277 115.486 23.2106 115.13 22.5402C114.778 21.8659 114.602 21.0648 114.602 20.1368C114.602 19.2352 114.78 18.4474 115.136 17.7731C115.492 17.0951 115.994 16.5686 116.642 16.1936C117.289 15.8148 118.052 15.6254 118.931 15.6254C119.552 15.6254 120.121 15.722 120.636 15.9152C121.151 16.1084 121.596 16.3943 121.971 16.7731C122.346 17.1519 122.638 17.6197 122.846 18.1765C123.054 18.7296 123.159 19.364 123.159 20.0799V20.7731H115.573V19.1595H120.573C120.57 18.864 120.499 18.6008 120.363 18.3697C120.227 18.1387 120.039 17.9587 119.801 17.8299C119.566 17.6974 119.295 17.6311 118.988 17.6311C118.677 17.6311 118.399 17.7012 118.153 17.8413C117.907 17.9777 117.712 18.1652 117.568 18.4038C117.424 18.6387 117.348 18.9057 117.34 19.2049V20.847C117.34 21.2031 117.41 21.5156 117.551 21.7845C117.691 22.0496 117.89 22.2561 118.147 22.4038C118.405 22.5515 118.712 22.6254 119.068 22.6254C119.314 22.6254 119.537 22.5913 119.738 22.5231C119.939 22.4549 120.111 22.3546 120.255 22.222C120.399 22.0894 120.507 21.9265 120.579 21.7334L123.13 21.8072C123.024 22.3792 122.791 22.8773 122.431 23.3015C122.075 23.722 121.607 24.0496 121.028 24.2845C120.448 24.5156 119.778 24.6311 119.017 24.6311ZM132.197 18.4038L129.646 18.472C129.619 18.2902 129.547 18.1292 129.43 17.989C129.312 17.8451 129.159 17.7334 128.97 17.6538C128.784 17.5705 128.568 17.5288 128.322 17.5288C128 17.5288 127.725 17.5932 127.498 17.722C127.275 17.8508 127.165 18.025 127.168 18.2447C127.165 18.4152 127.233 18.5629 127.373 18.6879C127.517 18.8129 127.773 18.9133 128.14 18.989L129.822 19.3072C130.693 19.4739 131.341 19.7504 131.765 20.1368C132.193 20.5231 132.409 21.0345 132.413 21.6709C132.409 22.2693 132.231 22.7902 131.879 23.2334C131.53 23.6765 131.053 24.0212 130.447 24.2674C129.841 24.5099 129.148 24.6311 128.367 24.6311C127.121 24.6311 126.138 24.3754 125.418 23.864C124.703 23.3489 124.293 22.6595 124.191 21.7959L126.936 21.7277C126.996 22.0459 127.153 22.2883 127.407 22.4549C127.661 22.6216 127.985 22.7049 128.379 22.7049C128.735 22.7049 129.025 22.6387 129.248 22.5061C129.472 22.3735 129.585 22.1974 129.589 21.9777C129.585 21.7807 129.498 21.6235 129.328 21.5061C129.157 21.3849 128.89 21.2902 128.526 21.222L127.004 20.9322C126.129 20.7731 125.477 20.4796 125.049 20.0515C124.621 19.6197 124.409 19.0705 124.413 18.4038C124.409 17.8205 124.564 17.3224 124.879 16.9095C125.193 16.4928 125.64 16.1746 126.22 15.9549C126.799 15.7352 127.483 15.6254 128.271 15.6254C129.453 15.6254 130.384 15.8735 131.066 16.3697C131.748 16.8621 132.125 17.5402 132.197 18.4038Z" fill="black"/>
<rect x="163.766" y="15" width="6.93645" height="20.1479" rx="3.46823" transform="rotate(24.9934 163.766 15)" fill="#E4FF1A"/>
<defs>
<linearGradient id="paint0_linear_2701_3013" x1="-6.81169" y1="5.59854" x2="153.347" y2="61.5355" gradientUnits="userSpaceOnUse">
<stop stop-color="#F767C9"/>
<stop offset="1" stop-color="#E4FF1A"/>
</linearGradient>
</defs>
</svg>
