<svg width="122" height="37" viewBox="0 0 122 37" fill="none" xmlns="http://www.w3.org/2000/svg">
<path d="M0 12C0 5.37258 5.37258 0 12 0H108.313C111.082 0 113.014 2.74593 112.078 5.35209L102.021 33.3521C101.451 34.9406 99.9445 36 98.2566 36H0V12Z" fill="url(#paint0_linear_2701_2742)"/>
<path d="M28.1038 12.3223L29.3518 10.8343C29.7891 11.037 30.2478 11.277 30.7278 11.5543C31.2184 11.8316 31.6771 12.1143 32.1038 12.4023C32.5411 12.6903 32.8984 12.9676 33.1758 13.2343L31.7838 14.8983C31.5384 14.621 31.2078 14.3276 30.7918 14.0183C30.3864 13.709 29.9438 13.405 29.4638 13.1063C28.9944 12.8076 28.5411 12.5463 28.1038 12.3223ZM27.0318 18.8183H35.3518V20.6423H27.0318V18.8183ZM25.8958 23.5543H36.2798V25.3783H25.8958V23.5543ZM26.4718 14.3543H35.9438V16.1783H26.4718V14.3543ZM30.1198 14.9623H32.1198V24.3703H30.1198V14.9623ZM22.2478 12.3543L23.2878 10.9463C23.6398 11.0636 24.0078 11.2183 24.3918 11.4103C24.7758 11.5916 25.1438 11.789 25.4958 12.0023C25.8478 12.205 26.1358 12.4023 26.3598 12.5943L25.2238 14.1623C25.0211 13.9596 24.7491 13.7516 24.4078 13.5383C24.0771 13.3143 23.7198 13.101 23.3358 12.8983C22.9624 12.685 22.5998 12.5036 22.2478 12.3543ZM21.1758 16.7223L22.1678 15.2663C22.5198 15.3836 22.8931 15.5276 23.2878 15.6983C23.6824 15.8583 24.0558 16.0396 24.4078 16.2423C24.7704 16.4343 25.0691 16.6156 25.3038 16.7863L24.2318 18.4023C24.0291 18.2103 23.7518 18.013 23.3998 17.8103C23.0478 17.6076 22.6798 17.4103 22.2958 17.2183C21.9118 17.0156 21.5384 16.8503 21.1758 16.7223ZM21.8638 24.4183C22.1518 24.013 22.4718 23.5383 22.8238 22.9943C23.1758 22.4396 23.5331 21.853 23.8958 21.2343C24.2584 20.605 24.5944 19.981 24.9038 19.3623L26.3118 20.6423C26.0344 21.197 25.7358 21.7676 25.4158 22.3543C25.1064 22.941 24.7864 23.517 24.4558 24.0823C24.1358 24.6476 23.8158 25.1916 23.4958 25.7143L21.8638 24.4183ZM41.3198 20.1303H48.2638V19.4263H41.3198V20.1303ZM41.3198 18.3063H48.2638V17.6183H41.3198V18.3063ZM50.1678 16.4503V21.3143H39.4958V16.4503H50.1678ZM48.8558 13.2343C48.6851 13.5436 48.5251 13.8263 48.3758 14.0823C48.2264 14.3276 48.0931 14.541 47.9758 14.7223L46.2798 14.3543C46.3864 14.1303 46.4931 13.885 46.5998 13.6183C46.7064 13.341 46.7918 13.0956 46.8558 12.8823L48.8558 13.2343ZM42.5998 12.8823C42.7278 13.1063 42.8398 13.357 42.9358 13.6343C43.0424 13.901 43.1224 14.1356 43.1758 14.3383L41.3518 14.7543C41.3091 14.541 41.2398 14.2903 41.1438 14.0023C41.0584 13.7143 40.9624 13.4583 40.8558 13.2343L42.5998 12.8823ZM45.6878 10.8663V12.8023H43.7678V10.8663H45.6878ZM51.7198 14.3703V15.8583H37.8158V14.3703H51.7198ZM50.8718 11.7303V13.2183H38.5838V11.7303H50.8718ZM40.9038 22.4183C40.6798 23.0263 40.3918 23.613 40.0398 24.1783C39.6984 24.733 39.2451 25.2023 38.6798 25.5863L37.1758 24.5623C37.6771 24.253 38.1091 23.853 38.4718 23.3623C38.8344 22.8716 39.1064 22.365 39.2878 21.8423L40.9038 22.4183ZM49.6718 21.6503C50.0024 21.917 50.3384 22.221 50.6798 22.5623C51.0211 22.9036 51.3358 23.245 51.6238 23.5863C51.9118 23.9276 52.1358 24.253 52.2958 24.5623L50.7118 25.4903C50.5624 25.2023 50.3491 24.877 50.0718 24.5143C49.8051 24.1623 49.5064 23.8103 49.1758 23.4583C48.8451 23.0956 48.5144 22.7703 48.1838 22.4823L49.6718 21.6503ZM44.1038 20.9463C44.4131 21.0743 44.7331 21.2236 45.0638 21.3943C45.4051 21.565 45.7251 21.741 46.0238 21.9223C46.3331 22.093 46.5838 22.2636 46.7758 22.4343L45.6718 23.5543C45.4904 23.3836 45.2504 23.2076 44.9518 23.0263C44.6638 22.8343 44.3544 22.6476 44.0238 22.4663C43.6931 22.2743 43.3784 22.109 43.0798 21.9703L44.1038 20.9463ZM43.1758 23.7143C43.1758 23.9276 43.2291 24.061 43.3358 24.1143C43.4531 24.157 43.6931 24.1783 44.0558 24.1783C44.1411 24.1783 44.2798 24.1783 44.4718 24.1783C44.6638 24.1783 44.8771 24.1783 45.1118 24.1783C45.3464 24.1783 45.5651 24.1783 45.7678 24.1783C45.9811 24.1783 46.1411 24.1783 46.2478 24.1783C46.4504 24.1783 46.5998 24.1516 46.6958 24.0983C46.7918 24.0343 46.8611 23.9116 46.9038 23.7303C46.9571 23.5383 46.9944 23.2556 47.0158 22.8823C47.2078 23.0103 47.4638 23.133 47.7838 23.2503C48.1144 23.357 48.4024 23.4316 48.6478 23.4743C48.5838 24.0823 48.4718 24.5463 48.3118 24.8663C48.1518 25.197 47.9224 25.421 47.6238 25.5383C47.3358 25.6663 46.9358 25.7303 46.4238 25.7303C46.3384 25.7303 46.2051 25.7303 46.0238 25.7303C45.8531 25.7303 45.6611 25.7303 45.4478 25.7303C45.2344 25.7303 45.0211 25.7303 44.8078 25.7303C44.5944 25.7303 44.3971 25.7303 44.2158 25.7303C44.0451 25.7303 43.9171 25.7303 43.8318 25.7303C43.1598 25.7303 42.6424 25.6716 42.2798 25.5543C41.9171 25.437 41.6664 25.229 41.5278 24.9303C41.3891 24.6423 41.3198 24.2476 41.3198 23.7463V22.0503H43.1758V23.7143ZM59.7038 10.8663H61.6558V24.0663C61.6558 24.5356 61.5918 24.8876 61.4638 25.1223C61.3358 25.357 61.1171 25.5436 60.8078 25.6823C60.4984 25.7996 60.1144 25.8743 59.6558 25.9063C59.2078 25.9383 58.6424 25.9543 57.9598 25.9543C57.9171 25.7303 57.8318 25.469 57.7038 25.1703C57.5758 24.8823 57.4478 24.637 57.3198 24.4343C57.5864 24.445 57.8531 24.4556 58.1198 24.4663C58.3864 24.4663 58.6264 24.4663 58.8398 24.4663C59.0638 24.4663 59.2184 24.4663 59.3038 24.4663C59.4531 24.4556 59.5544 24.4236 59.6078 24.3703C59.6718 24.317 59.7038 24.2156 59.7038 24.0663V10.8663ZM53.7198 11.9223H67.7998V13.4263H53.7198V11.9223ZM57.1918 15.2983V16.0503H64.2478V15.2983H57.1918ZM55.3518 14.0823H66.2158V17.2663H55.3518V14.0823ZM54.9678 17.9863H66.4878V24.2423H64.5358V19.2823H54.9678V17.9863ZM53.3518 19.9703H68.1678V21.4263H53.3518V19.9703ZM54.8398 22.1623H65.5918V23.5543H54.8398V22.1623ZM69.3198 12.5943H74.6638V14.4183H69.3198V12.5943ZM71.1758 13.3623H73.0798V21.3783H71.1758V13.3623ZM69.0478 21.1223C69.5064 21.0156 70.0398 20.8823 70.6478 20.7223C71.2558 20.5623 71.9118 20.3916 72.6158 20.2103C73.3198 20.029 74.0238 19.8423 74.7278 19.6503L74.9678 21.2503C74.0184 21.5916 73.0691 21.9276 72.1198 22.2583C71.1704 22.5783 70.3011 22.877 69.5118 23.1543L69.0478 21.1223ZM74.8718 11.4903H84.1518V13.2023H74.8718V11.4903ZM78.2958 12.2743L80.5998 12.5783C80.3544 13.0796 80.1038 13.5703 79.8478 14.0503C79.5918 14.5303 79.3678 14.941 79.1758 15.2823L77.4318 14.9143C77.6131 14.5196 77.7784 14.0823 77.9278 13.6023C78.0878 13.1116 78.2104 12.669 78.2958 12.2743ZM78.3438 16.7383H80.2798V20.0343C80.2798 20.589 80.1998 21.1436 80.0398 21.6983C79.8798 22.253 79.5971 22.7863 79.1918 23.2983C78.7971 23.8103 78.2371 24.2903 77.5118 24.7383C76.7864 25.1863 75.8638 25.5863 74.7438 25.9383C74.6691 25.7996 74.5571 25.6396 74.4078 25.4583C74.2691 25.277 74.1198 25.0956 73.9598 24.9143C73.8104 24.733 73.6611 24.5836 73.5118 24.4663C74.5891 24.1996 75.4478 23.8956 76.0878 23.5543C76.7278 23.2023 77.2078 22.829 77.5278 22.4343C77.8584 22.029 78.0771 21.6236 78.1838 21.2183C78.2904 20.8023 78.3438 20.397 78.3438 20.0023V16.7383ZM79.7198 23.3143L80.9038 22.1623C81.2878 22.3756 81.6931 22.6263 82.1198 22.9143C82.5571 23.1916 82.9731 23.4743 83.3678 23.7623C83.7731 24.0396 84.1038 24.2956 84.3598 24.5303L83.0798 25.8263C82.8451 25.5916 82.5358 25.3196 82.1518 25.0103C81.7784 24.7116 81.3731 24.413 80.9358 24.1143C80.5091 23.8156 80.1038 23.549 79.7198 23.3143ZM75.3198 14.4503H83.3518V21.9543H81.3838V16.1303H77.1918V22.0023H75.3198V14.4503Z" fill="black"/>
<rect x="114.688" y="15" width="6.93645" height="20.1479" rx="3.46823" transform="rotate(19.1848 114.688 15)" fill="#E4FF1A"/>
<defs>
<linearGradient id="paint0_linear_2701_2742" x1="-4.73496" y1="5.59854" x2="113.223" y2="34.236" gradientUnits="userSpaceOnUse">
<stop stop-color="#F767C9"/>
<stop offset="1" stop-color="#E4FF1A"/>
</linearGradient>
</defs>
</svg>
