<svg width="191" height="36" viewBox="0 0 191 36" fill="none" xmlns="http://www.w3.org/2000/svg">
<path d="M0 12C0 5.37258 5.37258 0 12 0H177.058C180.14 0 182.064 3.33944 180.518 6.0061L164.287 34.0061C163.571 35.2403 162.253 36 160.826 36H0V12Z" fill="url(#paint0_linear_2701_3020)"/>
<path d="M24.437 12.8299V24.4663H21.6245V12.8299H24.437ZM26.2026 24.4663V15.739H28.8446V17.3413H28.9412C29.123 16.811 29.4299 16.3924 29.8617 16.0856C30.2935 15.7788 30.8086 15.6254 31.4071 15.6254C32.0132 15.6254 32.5321 15.7807 32.9639 16.0913C33.3958 16.4019 33.6704 16.8186 33.7878 17.3413H33.8787C34.0416 16.8224 34.3598 16.4076 34.8333 16.097C35.3067 15.7826 35.8655 15.6254 36.5094 15.6254C37.3352 15.6254 38.0056 15.8906 38.5208 16.4209C39.0359 16.9474 39.2935 17.6709 39.2935 18.5913V24.4663H36.5151V19.2277C36.5151 18.7921 36.4033 18.4606 36.1799 18.2334C35.9564 18.0023 35.6666 17.8868 35.3105 17.8868C34.928 17.8868 34.6268 18.0118 34.4071 18.2618C34.1912 18.508 34.0833 18.8394 34.0833 19.2561V24.4663H31.4128V19.1993C31.4128 18.794 31.303 18.4739 31.0833 18.239C30.8636 18.0042 30.5738 17.8868 30.2139 17.8868C29.9715 17.8868 29.7575 17.9455 29.5719 18.0629C29.3863 18.1765 29.2405 18.3394 29.1344 18.5515C29.0321 18.7637 28.981 19.0137 28.981 19.3015V24.4663H26.2026ZM41.0151 27.739V15.739H43.7651V17.2334H43.8503C43.9639 16.9682 44.1249 16.7125 44.3333 16.4663C44.5454 16.2201 44.8143 16.0193 45.1401 15.864C45.4696 15.7049 45.8636 15.6254 46.3219 15.6254C46.928 15.6254 47.4942 15.7845 48.0208 16.1027C48.5511 16.4209 48.9791 16.9114 49.3049 17.5743C49.6306 18.2371 49.7935 19.0818 49.7935 20.1084C49.7935 21.097 49.6363 21.9246 49.3219 22.5913C49.0113 23.258 48.5908 23.758 48.0605 24.0913C47.534 24.4246 46.9488 24.5913 46.3049 24.5913C45.8655 24.5913 45.4848 24.5193 45.1628 24.3754C44.8408 24.2315 44.57 24.0421 44.3503 23.8072C44.1344 23.5724 43.9677 23.3205 43.8503 23.0515H43.7935V27.739H41.0151ZM43.7367 20.1027C43.7367 20.5724 43.7992 20.9815 43.9242 21.3299C44.053 21.6784 44.2367 21.9493 44.4753 22.1424C44.7177 22.3318 45.0075 22.4265 45.3446 22.4265C45.6855 22.4265 45.9753 22.3318 46.2139 22.1424C46.4526 21.9493 46.6325 21.6784 46.7537 21.3299C46.8787 20.9815 46.9412 20.5724 46.9412 20.1027C46.9412 19.633 46.8787 19.2258 46.7537 18.8811C46.6325 18.5364 46.4526 18.2693 46.2139 18.0799C45.9791 17.8906 45.6893 17.7959 45.3446 17.7959C45.0037 17.7959 44.7139 17.8887 44.4753 18.0743C44.2367 18.2599 44.053 18.525 43.9242 18.8697C43.7992 19.2144 43.7367 19.6254 43.7367 20.1027ZM55.3233 24.6311C54.4067 24.6311 53.6188 24.4436 52.9597 24.0686C52.3044 23.6898 51.7987 23.1633 51.4426 22.489C51.0904 21.811 50.9142 21.025 50.9142 20.1311C50.9142 19.2334 51.0904 18.4474 51.4426 17.7731C51.7987 17.0951 52.3044 16.5686 52.9597 16.1936C53.6188 15.8148 54.4067 15.6254 55.3233 15.6254C56.24 15.6254 57.026 15.8148 57.6813 16.1936C58.3404 16.5686 58.846 17.0951 59.1983 17.7731C59.5544 18.4474 59.7324 19.2334 59.7324 20.1311C59.7324 21.025 59.5544 21.811 59.1983 22.489C58.846 23.1633 58.3404 23.6898 57.6813 24.0686C57.026 24.4436 56.24 24.6311 55.3233 24.6311ZM55.3404 22.5345C55.6737 22.5345 55.9559 22.4322 56.187 22.2277C56.418 22.0231 56.5942 21.739 56.7154 21.3754C56.8404 21.0118 56.9029 20.5913 56.9029 20.114C56.9029 19.6292 56.8404 19.2049 56.7154 18.8413C56.5942 18.4777 56.418 18.1936 56.187 17.989C55.9559 17.7845 55.6737 17.6822 55.3404 17.6822C54.9957 17.6822 54.704 17.7845 54.4654 17.989C54.2305 18.1936 54.0506 18.4777 53.9256 18.8413C53.8044 19.2049 53.7438 19.6292 53.7438 20.114C53.7438 20.5913 53.8044 21.0118 53.9256 21.3754C54.0506 21.739 54.2305 22.0231 54.4654 22.2277C54.704 22.4322 54.9957 22.5345 55.3404 22.5345ZM61.1557 24.4663V15.739H63.8546V17.3299H63.9455C64.1046 16.7542 64.364 16.3262 64.7239 16.0459C65.0837 15.7618 65.5023 15.6197 65.9796 15.6197C66.1084 15.6197 66.2409 15.6292 66.3773 15.6481C66.5137 15.6633 66.6406 15.6879 66.758 15.722V18.1368C66.6254 18.0913 66.4512 18.0553 66.2353 18.0288C66.0231 18.0023 65.8337 17.989 65.6671 17.989C65.3375 17.989 65.0402 18.0629 64.775 18.2106C64.5137 18.3546 64.3072 18.5572 64.1557 18.8186C64.008 19.0762 63.9341 19.3792 63.9341 19.7277V24.4663H61.1557ZM73.2225 15.739V17.7845H67.7168V15.739H73.2225ZM68.8702 13.6481H71.6486V21.722C71.6486 21.8924 71.6751 22.0307 71.7281 22.1368C71.785 22.239 71.8664 22.3129 71.9725 22.3584C72.0785 22.4 72.2054 22.4209 72.3531 22.4209C72.4592 22.4209 72.571 22.4114 72.6884 22.3924C72.8096 22.3697 72.9005 22.3508 72.9611 22.3356L73.3816 24.3413C73.249 24.3792 73.0615 24.4265 72.8191 24.4834C72.5804 24.5402 72.2944 24.5762 71.9611 24.5913C71.3096 24.6216 70.7509 24.5459 70.285 24.364C69.8228 24.1784 69.4687 23.8906 69.2225 23.5004C68.98 23.1102 68.8626 22.6197 68.8702 22.0288V13.6481ZM77.1003 24.614C76.5435 24.614 76.0492 24.5212 75.6174 24.3356C75.1893 24.1462 74.8503 23.8621 74.6003 23.4834C74.3541 23.1008 74.231 22.6216 74.231 22.0459C74.231 21.561 74.3162 21.1519 74.4867 20.8186C74.6571 20.4852 74.892 20.2144 75.1912 20.0061C75.4905 19.7977 75.8352 19.6406 76.2253 19.5345C76.6155 19.4246 77.0321 19.3508 77.4753 19.3129C77.9715 19.2674 78.3711 19.2201 78.6742 19.1709C78.9772 19.1178 79.1969 19.044 79.3333 18.9493C79.4734 18.8508 79.5435 18.7125 79.5435 18.5345V18.5061C79.5435 18.2144 79.4431 17.989 79.2424 17.8299C79.0416 17.6709 78.7708 17.5913 78.4299 17.5913C78.0624 17.5913 77.767 17.6709 77.5435 17.8299C77.32 17.989 77.178 18.2087 77.1174 18.489L74.5549 18.3981C74.6306 17.8678 74.8257 17.3943 75.1401 16.9777C75.4583 16.5572 75.8939 16.2277 76.4469 15.989C77.0037 15.7466 77.6723 15.6254 78.4526 15.6254C79.0094 15.6254 79.5227 15.6917 79.9924 15.8243C80.4621 15.9531 80.8711 16.1424 81.2196 16.3924C81.5681 16.6387 81.8371 16.9417 82.0264 17.3015C82.2196 17.6614 82.3162 18.0724 82.3162 18.5345V24.4663H79.7026V23.2504H79.6344C79.4791 23.5459 79.2802 23.7959 79.0378 24.0004C78.7992 24.2049 78.517 24.3584 78.1912 24.4606C77.8692 24.5629 77.5056 24.614 77.1003 24.614ZM77.9583 22.7959C78.2575 22.7959 78.5264 22.7352 78.7651 22.614C79.0075 22.4928 79.2007 22.3262 79.3446 22.114C79.4886 21.8981 79.5605 21.6481 79.5605 21.364V20.5345C79.481 20.5762 79.3844 20.614 79.2708 20.6481C79.1609 20.6822 79.0397 20.7144 78.9071 20.7447C78.7746 20.775 78.6382 20.8015 78.498 20.8243C78.3579 20.847 78.2234 20.8678 78.0946 20.8868C77.8333 20.9284 77.6098 20.9928 77.4242 21.0799C77.2424 21.1671 77.1022 21.2807 77.0037 21.4209C76.909 21.5572 76.8617 21.7201 76.8617 21.9095C76.8617 22.1974 76.9639 22.4171 77.1685 22.5686C77.3768 22.7201 77.6401 22.7959 77.9583 22.7959ZM86.7935 19.489V24.4663H84.0151V15.739H86.6571V17.3413H86.7537C86.9469 16.8072 87.2764 16.3887 87.7424 16.0856C88.2083 15.7788 88.7632 15.6254 89.4071 15.6254C90.0208 15.6254 90.553 15.7637 91.0037 16.0402C91.4583 16.3129 91.8105 16.6955 92.0605 17.1879C92.3143 17.6765 92.4393 18.2485 92.4355 18.9038V24.4663H89.6571V19.4493C89.6609 18.9644 89.5378 18.5856 89.2878 18.3129C89.0416 18.0402 88.6988 17.9038 88.2594 17.9038C87.9677 17.9038 87.7102 17.9682 87.4867 18.097C87.267 18.222 87.0965 18.4019 86.9753 18.6368C86.8579 18.8716 86.7973 19.1557 86.7935 19.489ZM99.0818 15.739V17.7845H93.5762V15.739H99.0818ZM94.7296 13.6481H97.508V21.722C97.508 21.8924 97.5345 22.0307 97.5875 22.1368C97.6443 22.239 97.7258 22.3129 97.8318 22.3584C97.9379 22.4 98.0648 22.4209 98.2125 22.4209C98.3186 22.4209 98.4303 22.4114 98.5478 22.3924C98.669 22.3697 98.7599 22.3508 98.8205 22.3356L99.2409 24.3413C99.1084 24.3792 98.9209 24.4265 98.6784 24.4834C98.4398 24.5402 98.1538 24.5762 97.8205 24.5913C97.169 24.6216 96.6103 24.5459 96.1443 24.364C95.6822 24.1784 95.3281 23.8906 95.0818 23.5004C94.8394 23.1102 94.722 22.6197 94.7296 22.0288V13.6481ZM113.84 12.8299V24.4663H111.454L106.823 17.7504H106.749V24.4663H103.937V12.8299H106.357L110.937 19.5345H111.034V12.8299H113.84ZM119.683 24.6311C118.766 24.6311 117.978 24.4436 117.319 24.0686C116.664 23.6898 116.158 23.1633 115.802 22.489C115.45 21.811 115.274 21.025 115.274 20.1311C115.274 19.2334 115.45 18.4474 115.802 17.7731C116.158 17.0951 116.664 16.5686 117.319 16.1936C117.978 15.8148 118.766 15.6254 119.683 15.6254C120.599 15.6254 121.385 15.8148 122.041 16.1936C122.7 16.5686 123.205 17.0951 123.558 17.7731C123.914 18.4474 124.092 19.2334 124.092 20.1311C124.092 21.025 123.914 21.811 123.558 22.489C123.205 23.1633 122.7 23.6898 122.041 24.0686C121.385 24.4436 120.599 24.6311 119.683 24.6311ZM119.7 22.5345C120.033 22.5345 120.315 22.4322 120.546 22.2277C120.777 22.0231 120.954 21.739 121.075 21.3754C121.2 21.0118 121.262 20.5913 121.262 20.114C121.262 19.6292 121.2 19.2049 121.075 18.8413C120.954 18.4777 120.777 18.1936 120.546 17.989C120.315 17.7845 120.033 17.6822 119.7 17.6822C119.355 17.6822 119.063 17.7845 118.825 17.989C118.59 18.1936 118.41 18.4777 118.285 18.8413C118.164 19.2049 118.103 19.6292 118.103 20.114C118.103 20.5913 118.164 21.0118 118.285 21.3754C118.41 21.739 118.59 22.0231 118.825 22.2277C119.063 22.4322 119.355 22.5345 119.7 22.5345ZM130.441 15.739V17.7845H124.936V15.739H130.441ZM126.089 13.6481H128.867V21.722C128.867 21.8924 128.894 22.0307 128.947 22.1368C129.004 22.239 129.085 22.3129 129.191 22.3584C129.297 22.4 129.424 22.4209 129.572 22.4209C129.678 22.4209 129.79 22.4114 129.907 22.3924C130.028 22.3697 130.119 22.3508 130.18 22.3356L130.6 24.3413C130.468 24.3792 130.28 24.4265 130.038 24.4834C129.799 24.5402 129.513 24.5762 129.18 24.5913C128.528 24.6216 127.97 24.5459 127.504 24.364C127.042 24.1784 126.687 23.8906 126.441 23.5004C126.199 23.1102 126.081 22.6197 126.089 22.0288V13.6481ZM135.845 24.6311C134.932 24.6311 134.144 24.4512 133.481 24.0913C132.822 23.7277 132.314 23.2106 131.958 22.5402C131.606 21.8659 131.43 21.0648 131.43 20.1368C131.43 19.2352 131.608 18.4474 131.964 17.7731C132.32 17.0951 132.822 16.5686 133.47 16.1936C134.117 15.8148 134.881 15.6254 135.759 15.6254C136.381 15.6254 136.949 15.722 137.464 15.9152C137.979 16.1084 138.424 16.3943 138.799 16.7731C139.174 17.1519 139.466 17.6197 139.674 18.1765C139.883 18.7296 139.987 19.364 139.987 20.0799V20.7731H132.401V19.1595H137.401C137.398 18.864 137.328 18.6008 137.191 18.3697C137.055 18.1387 136.867 17.9587 136.629 17.8299C136.394 17.6974 136.123 17.6311 135.816 17.6311C135.506 17.6311 135.227 17.7012 134.981 17.8413C134.735 17.9777 134.54 18.1652 134.396 18.4038C134.252 18.6387 134.176 18.9057 134.168 19.2049V20.847C134.168 21.2031 134.239 21.5156 134.379 21.7845C134.519 22.0496 134.718 22.2561 134.975 22.4038C135.233 22.5515 135.54 22.6254 135.896 22.6254C136.142 22.6254 136.365 22.5913 136.566 22.5231C136.767 22.4549 136.939 22.3546 137.083 22.222C137.227 22.0894 137.335 21.9265 137.407 21.7334L139.958 21.8072C139.852 22.3792 139.619 22.8773 139.259 23.3015C138.903 23.722 138.436 24.0496 137.856 24.2845C137.276 24.5156 136.606 24.6311 135.845 24.6311ZM149.025 18.4038L146.474 18.472C146.447 18.2902 146.375 18.1292 146.258 17.989C146.141 17.8451 145.987 17.7334 145.798 17.6538C145.612 17.5705 145.396 17.5288 145.15 17.5288C144.828 17.5288 144.553 17.5932 144.326 17.722C144.103 17.8508 143.993 18.025 143.997 18.2447C143.993 18.4152 144.061 18.5629 144.201 18.6879C144.345 18.8129 144.601 18.9133 144.968 18.989L146.65 19.3072C147.521 19.4739 148.169 19.7504 148.593 20.1368C149.021 20.5231 149.237 21.0345 149.241 21.6709C149.237 22.2693 149.059 22.7902 148.707 23.2334C148.358 23.6765 147.881 24.0212 147.275 24.2674C146.669 24.5099 145.976 24.6311 145.195 24.6311C143.949 24.6311 142.966 24.3754 142.247 23.864C141.531 23.3489 141.122 22.6595 141.019 21.7959L143.764 21.7277C143.824 22.0459 143.981 22.2883 144.235 22.4549C144.489 22.6216 144.813 22.7049 145.207 22.7049C145.563 22.7049 145.853 22.6387 146.076 22.5061C146.3 22.3735 146.413 22.1974 146.417 21.9777C146.413 21.7807 146.326 21.6235 146.156 21.5061C145.985 21.3849 145.718 21.2902 145.355 21.222L143.832 20.9322C142.957 20.7731 142.305 20.4796 141.877 20.0515C141.449 19.6197 141.237 19.0705 141.241 18.4038C141.237 17.8205 141.392 17.3224 141.707 16.9095C142.021 16.4928 142.468 16.1746 143.048 15.9549C143.627 15.7352 144.311 15.6254 145.099 15.6254C146.281 15.6254 147.213 15.8735 147.894 16.3697C148.576 16.8621 148.953 17.5402 149.025 18.4038Z" fill="black"/>
<rect x="184.433" y="15" width="6.93645" height="20.1479" rx="3.46823" transform="rotate(28.6142 184.433 15)" fill="#E4FF1A"/>
<defs>
<linearGradient id="paint0_linear_2701_3020" x1="-7.64239" y1="5.59854" x2="167.131" y2="74.0838" gradientUnits="userSpaceOnUse">
<stop stop-color="#F767C9"/>
<stop offset="1" stop-color="#E4FF1A"/>
</linearGradient>
</defs>
</svg>
