<svg width="122" height="37" viewBox="0 0 122 37" fill="none" xmlns="http://www.w3.org/2000/svg">
<path d="M0 12C0 5.37258 5.37258 0 12 0H108.313C111.082 0 113.014 2.74593 112.078 5.35209L102.021 33.3521C101.451 34.9406 99.9445 36 98.2566 36H0V12Z" fill="url(#paint0_linear_2701_2743)"/>
<path d="M28.0878 14.1783H35.7038V15.9223H28.0878V14.1783ZM27.7838 18.1623H36.1678V19.8903H27.7838V18.1623ZM30.7278 15.6663H32.6798V18.0183C32.6798 18.5943 32.6318 19.2236 32.5358 19.9063C32.4398 20.589 32.2478 21.293 31.9598 22.0183C31.6824 22.733 31.2611 23.437 30.6958 24.1303C30.1411 24.8236 29.3998 25.4743 28.4718 26.0823C28.3224 25.8796 28.1091 25.645 27.8318 25.3783C27.5544 25.1116 27.2931 24.893 27.0478 24.7223C27.9118 24.221 28.5891 23.6716 29.0798 23.0743C29.5811 22.477 29.9491 21.8743 30.1838 21.2663C30.4184 20.6583 30.5678 20.077 30.6318 19.5223C30.6958 18.957 30.7278 18.445 30.7278 17.9863V15.6663ZM32.5038 19.7623C32.8344 20.7863 33.3251 21.6983 33.9758 22.4983C34.6264 23.2983 35.4424 23.8956 36.4238 24.2903C36.2744 24.4076 36.1198 24.557 35.9598 24.7383C35.7998 24.9303 35.6504 25.1276 35.5118 25.3303C35.3731 25.533 35.2558 25.7196 35.1598 25.8903C34.0718 25.357 33.1811 24.5943 32.4878 23.6023C31.8051 22.5996 31.2718 21.437 30.8878 20.1143L32.5038 19.7623ZM33.3518 11.1543L35.2878 11.6503C34.9998 12.2263 34.6958 12.7916 34.3758 13.3463C34.0558 13.901 33.7518 14.3756 33.4638 14.7703L31.9118 14.2903C32.0824 14.0023 32.2584 13.677 32.4398 13.3143C32.6211 12.9516 32.7918 12.5836 32.9518 12.2103C33.1118 11.8263 33.2451 11.4743 33.3518 11.1543ZM28.3438 11.8583L29.8798 11.1223C30.1998 11.4743 30.5091 11.869 30.8078 12.3063C31.1064 12.7436 31.3251 13.133 31.4638 13.4743L29.8638 14.3383C29.7251 13.9863 29.5118 13.581 29.2238 13.1223C28.9464 12.653 28.6531 12.2316 28.3438 11.8583ZM21.3998 11.4743H27.6398V13.1863H21.3998V11.4743ZM23.1278 14.8823H26.0078V16.4503H23.1278V14.8823ZM23.1278 18.1463H26.0078V19.7143H23.1278V18.1463ZM22.0878 12.3863H23.7678V22.4343H22.0878V12.3863ZM25.4318 12.3863H27.0478V25.9063H25.4318V12.3863ZM21.1918 22.0343C21.7891 21.9596 22.4664 21.869 23.2238 21.7623C23.9918 21.645 24.7971 21.517 25.6398 21.3783C26.4931 21.2396 27.3358 21.1063 28.1678 20.9783L28.2958 22.6263C27.1224 22.8396 25.9384 23.053 24.7438 23.2663C23.5598 23.469 22.5038 23.6503 21.5758 23.8103L21.1918 22.0343ZM40.6798 21.5543L42.6798 22.3063C42.3384 22.7116 41.9491 23.1276 41.5118 23.5543C41.0851 23.9703 40.6424 24.3596 40.1838 24.7223C39.7251 25.0956 39.2878 25.4156 38.8718 25.6823C38.7438 25.5543 38.5731 25.405 38.3598 25.2343C38.1571 25.0743 37.9438 24.909 37.7198 24.7383C37.4958 24.5783 37.3038 24.4503 37.1438 24.3543C37.5811 24.1303 38.0184 23.869 38.4558 23.5703C38.8931 23.261 39.3038 22.9356 39.6878 22.5943C40.0718 22.2423 40.4024 21.8956 40.6798 21.5543ZM46.6478 22.5623L48.2478 21.4743C48.6744 21.741 49.1278 22.0503 49.6078 22.4023C50.0984 22.7436 50.5624 23.0903 50.9998 23.4423C51.4371 23.7943 51.7944 24.1196 52.0718 24.4183L50.3438 25.6503C50.0984 25.3516 49.7678 25.021 49.3518 24.6583C48.9358 24.2956 48.4878 23.933 48.0078 23.5703C47.5384 23.197 47.0851 22.861 46.6478 22.5623ZM38.6638 15.9543L39.9918 14.7223C40.4398 14.9783 40.9091 15.2716 41.3998 15.6023C41.9011 15.933 42.3811 16.269 42.8398 16.6103C43.2984 16.9516 43.6664 17.2716 43.9438 17.5703L42.5198 18.9623C42.2638 18.6636 41.9171 18.3383 41.4798 17.9863C41.0424 17.6236 40.5731 17.2663 40.0718 16.9143C39.5811 16.5516 39.1118 16.2316 38.6638 15.9543ZM46.9678 17.9543L48.5518 16.9463C48.9891 17.309 49.4478 17.7143 49.9278 18.1623C50.4184 18.6103 50.8771 19.0583 51.3038 19.5063C51.7304 19.9436 52.0718 20.349 52.3278 20.7223L50.6158 21.8743C50.3811 21.5116 50.0611 21.101 49.6558 20.6423C49.2504 20.1836 48.8131 19.7196 48.3438 19.2503C47.8744 18.7703 47.4158 18.3383 46.9678 17.9543ZM43.6718 20.1143H45.7358V25.9063H43.6718V20.1143ZM37.4798 19.2503C38.2904 19.2396 39.2024 19.2236 40.2158 19.2023C41.2398 19.181 42.3171 19.165 43.4478 19.1543C44.5891 19.133 45.7518 19.1116 46.9358 19.0903C48.1198 19.0583 49.2878 19.0263 50.4398 18.9943L50.3438 20.7383C48.8398 20.8023 47.3198 20.861 45.7838 20.9143C44.2478 20.9676 42.7811 21.0156 41.3838 21.0583C39.9971 21.101 38.7544 21.1383 37.6558 21.1703L37.4798 19.2503ZM47.0318 13.6663L48.9038 14.6743C48.3704 15.197 47.8104 15.7303 47.2238 16.2743C46.6371 16.8076 46.0344 17.3303 45.4158 17.8423C44.8078 18.3543 44.1998 18.8396 43.5918 19.2983C42.9944 19.7463 42.4238 20.1463 41.8798 20.4983L40.3758 19.5223C40.9198 19.149 41.4904 18.733 42.0878 18.2743C42.6958 17.805 43.2931 17.309 43.8798 16.7863C44.4771 16.2636 45.0424 15.7356 45.5758 15.2023C46.1198 14.669 46.6051 14.157 47.0318 13.6663ZM42.9838 12.5623L44.8718 13.4903C44.5411 13.8743 44.1891 14.2636 43.8158 14.6583C43.4424 15.053 43.0691 15.4263 42.6958 15.7783C42.3331 16.1196 41.9918 16.4236 41.6718 16.6903L40.1198 15.8263C40.4291 15.549 40.7598 15.229 41.1118 14.8663C41.4638 14.493 41.8051 14.1036 42.1358 13.6983C42.4664 13.293 42.7491 12.9143 42.9838 12.5623ZM49.6558 11.0103L51.0158 12.6423C50.1304 12.8236 49.1758 12.9836 48.1518 13.1223C47.1278 13.2503 46.0611 13.3623 44.9518 13.4583C43.8424 13.5436 42.7331 13.6076 41.6238 13.6503C40.5251 13.693 39.4531 13.7196 38.4078 13.7303C38.3971 13.485 38.3438 13.197 38.2478 12.8663C38.1518 12.525 38.0558 12.2423 37.9598 12.0183C38.9944 11.9863 40.0451 11.949 41.1118 11.9063C42.1891 11.853 43.2451 11.7836 44.2798 11.6983C45.3144 11.613 46.2904 11.517 47.2078 11.4103C48.1251 11.293 48.9411 11.1596 49.6558 11.0103ZM64.0238 12.2903L65.4638 11.3143C65.7518 11.5596 66.0451 11.837 66.3438 12.1463C66.6531 12.445 66.9411 12.749 67.2078 13.0583C67.4851 13.357 67.6984 13.6343 67.8478 13.8903L66.2958 14.9623C66.1678 14.7063 65.9758 14.4236 65.7198 14.1143C65.4744 13.7943 65.2024 13.4796 64.9038 13.1703C64.6051 12.8503 64.3118 12.557 64.0238 12.2903ZM53.5438 15.4263H67.9758V17.2343H53.5438V15.4263ZM53.2398 19.9383C53.8798 19.8423 54.6264 19.725 55.4798 19.5863C56.3331 19.4476 57.2344 19.293 58.1838 19.1223C59.1438 18.9516 60.0878 18.7863 61.0158 18.6263L61.1438 20.3543C60.2904 20.5356 59.4211 20.717 58.5358 20.8983C57.6611 21.0796 56.8078 21.2556 55.9758 21.4263C55.1544 21.5863 54.3971 21.7356 53.7038 21.8743L53.2398 19.9383ZM56.5678 12.8343H58.5038V23.6503C58.5038 24.173 58.4398 24.5783 58.3118 24.8663C58.1944 25.1543 57.9758 25.373 57.6558 25.5223C57.3358 25.6716 56.9358 25.7676 56.4558 25.8103C55.9758 25.8636 55.4051 25.8903 54.7438 25.8903C54.7224 25.709 54.6744 25.501 54.5998 25.2663C54.5251 25.0316 54.4398 24.797 54.3438 24.5623C54.2584 24.3276 54.1678 24.125 54.0718 23.9543C54.5198 23.9756 54.9518 23.9863 55.3678 23.9863C55.7838 23.9863 56.0611 23.981 56.1998 23.9703C56.3384 23.9703 56.4344 23.949 56.4878 23.9063C56.5411 23.853 56.5678 23.7623 56.5678 23.6343V12.8343ZM59.8478 10.9783L61.1598 12.6103C60.4664 12.8236 59.7144 13.0156 58.9038 13.1863C58.0931 13.3463 57.2664 13.4903 56.4238 13.6183C55.5918 13.7463 54.7864 13.853 54.0078 13.9383C53.9758 13.7143 53.9011 13.4423 53.7838 13.1223C53.6771 12.8023 53.5704 12.5356 53.4638 12.3223C54.2104 12.2263 54.9731 12.109 55.7518 11.9703C56.5304 11.8316 57.2718 11.677 57.9758 11.5063C58.6798 11.3356 59.3038 11.1596 59.8478 10.9783ZM61.4318 10.9943H63.4318C63.4104 12.285 63.4424 13.5596 63.5278 14.8183C63.6238 16.077 63.7624 17.261 63.9438 18.3703C64.1251 19.469 64.3384 20.445 64.5838 21.2983C64.8291 22.141 65.0904 22.8023 65.3678 23.2823C65.6451 23.7623 65.9331 24.0023 66.2318 24.0023C66.4024 24.0023 66.5304 23.7943 66.6158 23.3783C66.7118 22.9623 66.7811 22.2796 66.8238 21.3303C67.0264 21.5436 67.2771 21.757 67.5758 21.9703C67.8744 22.173 68.1518 22.3276 68.4078 22.4343C68.3011 23.373 68.1571 24.093 67.9758 24.5943C67.7944 25.1063 67.5438 25.4583 67.2238 25.6503C66.9144 25.853 66.5198 25.9543 66.0398 25.9543C65.4851 25.9543 64.9838 25.7516 64.5358 25.3463C64.0984 24.9516 63.7091 24.397 63.3678 23.6823C63.0371 22.9676 62.7491 22.1356 62.5038 21.1863C62.2691 20.2263 62.0718 19.1916 61.9118 18.0823C61.7518 16.9623 61.6344 15.7996 61.5598 14.5943C61.4851 13.389 61.4424 12.189 61.4318 10.9943ZM65.7838 17.7623L67.4638 18.4983C66.9198 19.4903 66.2744 20.413 65.5278 21.2663C64.7811 22.1196 63.9651 22.893 63.0798 23.5863C62.1944 24.269 61.2664 24.8663 60.2958 25.3783C60.1571 25.1436 59.9651 24.8823 59.7198 24.5943C59.4851 24.3063 59.2451 24.0556 58.9998 23.8423C59.9171 23.4156 60.8024 22.8983 61.6558 22.2903C62.5198 21.6823 63.3038 20.9943 64.0078 20.2263C64.7118 19.4583 65.3038 18.637 65.7838 17.7623ZM77.9118 11.3943H82.5038V13.1223H77.9118V11.3943ZM81.7998 11.3943H83.7038V23.7943C83.7038 24.2636 83.6451 24.6316 83.5278 24.8983C83.4211 25.165 83.2131 25.373 82.9038 25.5223C82.6051 25.661 82.2371 25.7516 81.7998 25.7943C81.3624 25.837 80.8291 25.8583 80.1998 25.8583C80.1571 25.613 80.0771 25.3143 79.9598 24.9623C79.8531 24.6103 79.7358 24.317 79.6078 24.0823C79.9811 24.1036 80.3491 24.1196 80.7118 24.1303C81.0851 24.1303 81.3358 24.125 81.4638 24.1143C81.5918 24.1143 81.6771 24.0876 81.7198 24.0343C81.7731 23.981 81.7998 23.8956 81.7998 23.7783V11.3943ZM74.4878 11.6983L75.9438 10.8503C76.1891 11.1596 76.4344 11.501 76.6798 11.8743C76.9358 12.237 77.1758 12.5943 77.3998 12.9463C77.6238 13.2876 77.7998 13.597 77.9278 13.8743L76.3598 14.8503C76.2531 14.573 76.0931 14.253 75.8798 13.8903C75.6771 13.5276 75.4531 13.1543 75.2078 12.7703C74.9624 12.3863 74.7224 12.029 74.4878 11.6983ZM73.7998 14.4183H75.6718V25.8743H73.7998V14.4183ZM71.9758 10.9303L73.7518 11.4423C73.4744 12.3703 73.1438 13.309 72.7598 14.2583C72.3864 15.2076 71.9704 16.109 71.5118 16.9623C71.0531 17.805 70.5678 18.5516 70.0558 19.2023C70.0131 19.0423 69.9331 18.8343 69.8158 18.5783C69.7091 18.3116 69.5918 18.045 69.4638 17.7783C69.3358 17.5116 69.2184 17.2983 69.1118 17.1383C69.5064 16.6156 69.8798 16.0236 70.2318 15.3623C70.5944 14.6903 70.9251 13.9756 71.2238 13.2183C71.5224 12.461 71.7731 11.6983 71.9758 10.9303ZM70.6638 15.3303L72.4398 13.5543L72.4878 13.5863V25.8903H70.6638V15.3303Z" fill="black"/>
<rect x="114.688" y="15" width="6.93645" height="20.1479" rx="3.46823" transform="rotate(19.1848 114.688 15)" fill="#E4FF1A"/>
<defs>
<linearGradient id="paint0_linear_2701_2743" x1="-4.73496" y1="5.59854" x2="113.223" y2="34.236" gradientUnits="userSpaceOnUse">
<stop stop-color="#F767C9"/>
<stop offset="1" stop-color="#E4FF1A"/>
</linearGradient>
</defs>
</svg>
