<svg width="148" height="37" viewBox="0 0 148 37" fill="none" xmlns="http://www.w3.org/2000/svg">
<path d="M0 12C0 5.37258 5.37258 0 12 0H131.899C134.78 0 136.716 2.95311 135.567 5.59488L123.394 33.5949C122.759 35.0553 121.318 36 119.725 36H0V12Z" fill="url(#paint0_linear_2701_3028)"/>
<path d="M32.187 18.0459H29.346C29.3082 17.7542 29.2305 17.4909 29.1131 17.2561C28.9957 17.0212 28.8404 16.8205 28.6472 16.6538C28.454 16.4871 28.2248 16.3602 27.9597 16.2731C27.6983 16.1822 27.4085 16.1368 27.0904 16.1368C26.526 16.1368 26.0392 16.275 25.6301 16.5515C25.2248 16.8281 24.9123 17.2277 24.6926 17.7504C24.4767 18.2731 24.3688 18.9057 24.3688 19.6481C24.3688 20.4209 24.4786 21.0686 24.6983 21.5913C24.9218 22.1102 25.2343 22.5023 25.6358 22.7674C26.0411 23.0288 26.5203 23.1595 27.0733 23.1595C27.3839 23.1595 27.6661 23.1197 27.9199 23.0402C28.1775 22.9606 28.4029 22.8451 28.596 22.6936C28.793 22.5383 28.954 22.3508 29.079 22.1311C29.2078 21.9076 29.2968 21.6557 29.346 21.3754L32.187 21.3924C32.1377 21.9076 31.9881 22.4152 31.7381 22.9152C31.4919 23.4152 31.1529 23.8716 30.721 24.2845C30.2892 24.6936 29.7627 25.0193 29.1415 25.2618C28.5241 25.5042 27.8157 25.6254 27.0165 25.6254C25.9635 25.6254 25.0203 25.3943 24.187 24.9322C23.3574 24.4663 22.7021 23.7883 22.221 22.8981C21.74 22.008 21.4995 20.9246 21.4995 19.6481C21.4995 18.3678 21.7438 17.2826 22.2324 16.3924C22.721 15.5023 23.382 14.8262 24.2154 14.364C25.0487 13.9019 25.9824 13.6709 27.0165 13.6709C27.721 13.6709 28.3726 13.7693 28.971 13.9663C29.5695 14.1595 30.096 14.4436 30.5506 14.8186C31.0051 15.1898 31.3745 15.6462 31.6585 16.1879C31.9426 16.7296 32.1188 17.3489 32.187 18.0459ZM37.8702 25.6311C36.9535 25.6311 36.1656 25.4436 35.5066 25.0686C34.8513 24.6898 34.3456 24.1633 33.9895 23.489C33.6372 22.811 33.4611 22.025 33.4611 21.1311C33.4611 20.2334 33.6372 19.4474 33.9895 18.7731C34.3456 18.0951 34.8513 17.5686 35.5066 17.1936C36.1656 16.8148 36.9535 16.6254 37.8702 16.6254C38.7869 16.6254 39.5728 16.8148 40.2281 17.1936C40.8872 17.5686 41.3929 18.0951 41.7452 18.7731C42.1013 19.4474 42.2793 20.2334 42.2793 21.1311C42.2793 22.025 42.1013 22.811 41.7452 23.489C41.3929 24.1633 40.8872 24.6898 40.2281 25.0686C39.5728 25.4436 38.7869 25.6311 37.8702 25.6311ZM37.8872 23.5345C38.2206 23.5345 38.5028 23.4322 38.7338 23.2277C38.9649 23.0231 39.141 22.739 39.2622 22.3754C39.3872 22.0118 39.4497 21.5913 39.4497 21.114C39.4497 20.6292 39.3872 20.2049 39.2622 19.8413C39.141 19.4777 38.9649 19.1936 38.7338 18.989C38.5028 18.7845 38.2206 18.6822 37.8872 18.6822C37.5425 18.6822 37.2509 18.7845 37.0122 18.989C36.7774 19.1936 36.5975 19.4777 36.4725 19.8413C36.3513 20.2049 36.2906 20.6292 36.2906 21.114C36.2906 21.5913 36.3513 22.0118 36.4725 22.3754C36.5975 22.739 36.7774 23.0231 37.0122 23.2277C37.2509 23.4322 37.5425 23.5345 37.8872 23.5345ZM46.481 20.489V25.4663H43.7026V16.739H46.3446V18.3413H46.4412C46.6344 17.8072 46.9639 17.3887 47.4299 17.0856C47.8958 16.7788 48.4507 16.6254 49.0946 16.6254C49.7083 16.6254 50.2405 16.7637 50.6912 17.0402C51.1458 17.3129 51.498 17.6955 51.748 18.1879C52.0018 18.6765 52.1268 19.2485 52.123 19.9038V25.4663H49.3446V20.4493C49.3484 19.9644 49.2253 19.5856 48.9753 19.3129C48.7291 19.0402 48.3863 18.9038 47.9469 18.9038C47.6552 18.9038 47.3977 18.9682 47.1742 19.097C46.9545 19.222 46.784 19.4019 46.6628 19.6368C46.5454 19.8716 46.4848 20.1557 46.481 20.489ZM58.7693 16.739V18.7845H53.2637V16.739H58.7693ZM54.4171 14.6481H57.1955V22.722C57.1955 22.8924 57.222 23.0307 57.275 23.1368C57.3318 23.239 57.4133 23.3129 57.5193 23.3584C57.6254 23.4 57.7523 23.4209 57.9 23.4209C58.0061 23.4209 58.1178 23.4114 58.2353 23.3924C58.3565 23.3697 58.4474 23.3508 58.508 23.3356L58.9284 25.3413C58.7959 25.3792 58.6084 25.4265 58.3659 25.4834C58.1273 25.5402 57.8413 25.5762 57.508 25.5913C56.8565 25.6216 56.2978 25.5459 55.8318 25.364C55.3697 25.1784 55.0156 24.8906 54.7693 24.5004C54.5269 24.1102 54.4095 23.6197 54.4171 23.0288V14.6481ZM62.6472 25.614C62.0904 25.614 61.596 25.5212 61.1642 25.3356C60.7362 25.1462 60.3972 24.8621 60.1472 24.4834C59.901 24.1008 59.7779 23.6216 59.7779 23.0459C59.7779 22.561 59.8631 22.1519 60.0335 21.8186C60.204 21.4852 60.4389 21.2144 60.7381 21.0061C61.0373 20.7977 61.382 20.6406 61.7722 20.5345C62.1623 20.4246 62.579 20.3508 63.0222 20.3129C63.5184 20.2674 63.918 20.2201 64.221 20.1709C64.5241 20.1178 64.7438 20.044 64.8801 19.9493C65.0203 19.8508 65.0904 19.7125 65.0904 19.5345V19.5061C65.0904 19.2144 64.99 18.989 64.7892 18.8299C64.5885 18.6709 64.3176 18.5913 63.9767 18.5913C63.6093 18.5913 63.3139 18.6709 63.0904 18.8299C62.8669 18.989 62.7248 19.2087 62.6642 19.489L60.1017 19.3981C60.1775 18.8678 60.3726 18.3943 60.687 17.9777C61.0051 17.5572 61.4407 17.2277 61.9938 16.989C62.5506 16.7466 63.2192 16.6254 63.9995 16.6254C64.5563 16.6254 65.0695 16.6917 65.5392 16.8243C66.0089 16.9531 66.418 17.1424 66.7665 17.3924C67.115 17.6387 67.3839 17.9417 67.5733 18.3015C67.7665 18.6614 67.8631 19.0724 67.8631 19.5345V25.4663H65.2495V24.2504H65.1813C65.026 24.5459 64.8271 24.7959 64.5847 25.0004C64.346 25.2049 64.0639 25.3584 63.7381 25.4606C63.4161 25.5629 63.0525 25.614 62.6472 25.614ZM63.5051 23.7959C63.8044 23.7959 64.0733 23.7352 64.312 23.614C64.5544 23.4928 64.7476 23.3262 64.8915 23.114C65.0354 22.8981 65.1074 22.6481 65.1074 22.364V21.5345C65.0279 21.5762 64.9313 21.614 64.8176 21.6481C64.7078 21.6822 64.5866 21.7144 64.454 21.7447C64.3214 21.775 64.1851 21.8015 64.0449 21.8243C63.9048 21.847 63.7703 21.8678 63.6415 21.8868C63.3801 21.9284 63.1567 21.9928 62.971 22.0799C62.7892 22.1671 62.6491 22.2807 62.5506 22.4209C62.4559 22.5572 62.4085 22.7201 62.4085 22.9095C62.4085 23.1974 62.5108 23.4171 62.7154 23.5686C62.9237 23.7201 63.187 23.7959 63.5051 23.7959ZM73.6358 25.6311C72.7154 25.6311 71.9256 25.4417 71.2665 25.0629C70.6112 24.6841 70.1074 24.1576 69.7551 23.4834C69.4029 22.8053 69.2267 22.0212 69.2267 21.1311C69.2267 20.2371 69.4029 19.4531 69.7551 18.7788C70.1112 18.1008 70.6169 17.5724 71.2722 17.1936C71.9313 16.8148 72.7173 16.6254 73.6301 16.6254C74.437 16.6254 75.1396 16.7712 75.7381 17.0629C76.3404 17.3546 76.8101 17.7674 77.1472 18.3015C77.4881 18.8318 77.668 19.4549 77.687 20.1709H75.0904C75.0373 19.7239 74.8858 19.3735 74.6358 19.1197C74.3896 18.8659 74.0676 18.739 73.6699 18.739C73.3479 18.739 73.0657 18.8299 72.8233 19.0118C72.5809 19.1898 72.3915 19.4549 72.2551 19.8072C72.1226 20.1557 72.0563 20.5875 72.0563 21.1027C72.0563 21.6178 72.1226 22.0534 72.2551 22.4095C72.3915 22.7618 72.5809 23.0288 72.8233 23.2106C73.0657 23.3887 73.3479 23.4777 73.6699 23.4777C73.9275 23.4777 74.1548 23.4227 74.3517 23.3129C74.5525 23.2031 74.7173 23.0421 74.846 22.8299C74.9748 22.614 75.0563 22.3527 75.0904 22.0459H77.687C77.6604 22.7656 77.4805 23.3943 77.1472 23.9322C76.8176 24.4701 76.3536 24.8887 75.7551 25.1879C75.1604 25.4834 74.454 25.6311 73.6358 25.6311ZM84.035 16.739V18.7845H78.5293V16.739H84.035ZM79.6827 14.6481H82.4611V22.722C82.4611 22.8924 82.4876 23.0307 82.5406 23.1368C82.5975 23.239 82.6789 23.3129 82.785 23.3584C82.891 23.4 83.0179 23.4209 83.1656 23.4209C83.2717 23.4209 83.3835 23.4114 83.5009 23.3924C83.6221 23.3697 83.713 23.3508 83.7736 23.3356L84.1941 25.3413C84.0615 25.3792 83.874 25.4265 83.6316 25.4834C83.3929 25.5402 83.1069 25.5762 82.7736 25.5913C82.1221 25.6216 81.5634 25.5459 81.0975 25.364C80.6353 25.1784 80.2812 24.8906 80.035 24.5004C79.7925 24.1102 79.6751 23.6197 79.6827 23.0288V14.6481ZM95.9299 13.8299H98.7367V21.3356C98.7367 22.2031 98.5302 22.9587 98.1174 23.6027C97.7045 24.2428 97.1287 24.739 96.3901 25.0913C95.6514 25.4398 94.7935 25.614 93.8162 25.614C92.8276 25.614 91.9639 25.4398 91.2253 25.0913C90.4867 24.739 89.9128 24.2428 89.5037 23.6027C89.0946 22.9587 88.8901 22.2031 88.8901 21.3356V13.8299H91.7026V21.0913C91.7026 21.4928 91.7897 21.8508 91.9639 22.1652C92.142 22.4796 92.3901 22.7258 92.7083 22.9038C93.0264 23.0818 93.3958 23.1709 93.8162 23.1709C94.2367 23.1709 94.6041 23.0818 94.9185 22.9038C95.2367 22.7258 95.4848 22.4796 95.6628 22.1652C95.8408 21.8508 95.9299 21.4928 95.9299 21.0913V13.8299ZM108.119 19.4038L105.568 19.472C105.541 19.2902 105.469 19.1292 105.352 18.989C105.234 18.8451 105.081 18.7334 104.892 18.6538C104.706 18.5705 104.49 18.5288 104.244 18.5288C103.922 18.5288 103.647 18.5932 103.42 18.722C103.196 18.8508 103.087 19.025 103.09 19.2447C103.087 19.4152 103.155 19.5629 103.295 19.6879C103.439 19.8129 103.695 19.9133 104.062 19.989L105.744 20.3072C106.615 20.4739 107.263 20.7504 107.687 21.1368C108.115 21.5231 108.331 22.0345 108.335 22.6709C108.331 23.2693 108.153 23.7902 107.801 24.2334C107.452 24.6765 106.975 25.0212 106.369 25.2674C105.763 25.5099 105.07 25.6311 104.289 25.6311C103.043 25.6311 102.06 25.3754 101.34 24.864C100.624 24.3489 100.215 23.6595 100.113 22.7959L102.857 22.7277C102.918 23.0459 103.075 23.2883 103.329 23.4549C103.583 23.6216 103.907 23.7049 104.301 23.7049C104.657 23.7049 104.946 23.6387 105.17 23.5061C105.393 23.3735 105.507 23.1974 105.511 22.9777C105.507 22.7807 105.42 22.6235 105.249 22.5061C105.079 22.3849 104.812 22.2902 104.448 22.222L102.926 21.9322C102.051 21.7731 101.399 21.4796 100.971 21.0515C100.543 20.6197 100.331 20.0705 100.335 19.4038C100.331 18.8205 100.486 18.3224 100.801 17.9095C101.115 17.4928 101.562 17.1746 102.142 16.9549C102.721 16.7352 103.405 16.6254 104.193 16.6254C105.374 16.6254 106.306 16.8735 106.988 17.3697C107.67 17.8621 108.047 18.5402 108.119 19.4038Z" fill="black"/>
<rect x="140.688" y="15" width="6.93645" height="20.1479" rx="3.46823" transform="rotate(19.1848 140.688 15)" fill="#E4FF1A"/>
<defs>
<linearGradient id="paint0_linear_2701_3028" x1="-5.73179" y1="5.59854" x2="133.454" y2="46.5036" gradientUnits="userSpaceOnUse">
<stop stop-color="#F767C9"/>
<stop offset="1" stop-color="#E4FF1A"/>
</linearGradient>
</defs>
</svg>
